SplineFontDB: 3.2
FontName: NimbusSans-Regular
FullName: Nimbus Sans
FamilyName: Nimbus Sans
Weight: Book
Copyright: (URW)++,Copyright 2014 by (URW)++ Design & Development
Version: 1.00
ItalicAngle: 0
UnderlinePosition: -360
UnderlineWidth: 102
Ascent: 1602
Descent: 446
InvalidEm: 0
sfntRevision: 0x00010000
LayerCount: 2
Layer: 0 1 "Hinten" 1
Layer: 1 1 "Vorne" 0
XUID: [1021 367 390255522 6854603]
StyleMap: 0x0040
FSType: 8
OS2Version: 4
OS2_WeightWidthSlopeOnly: 0
OS2_UseTypoMetrics: 0
CreationTime: 1501165580
ModificationTime: 1762541713
PfmFamily: 81
TTFWeight: 400
TTFWidth: 5
LineGap: 307
VLineGap: 0
Panose: 0 0 0 0 0 0 0 0 0 0
OS2TypoAscent: 1602
OS2TypoAOffset: 0
OS2TypoDescent: -446
OS2TypoDOffset: 0
OS2TypoLinegap: 307
OS2WinAscent: 1952
OS2WinAOffset: 0
OS2WinDescent: 451
OS2WinDOffset: 0
HheadAscent: 1602
HheadAOffset: 0
HheadDescent: -446
HheadDOffset: 0
OS2SubXSize: 1331
OS2SubYSize: 1331
OS2SubXOff: 0
OS2SubYOff: 307
OS2SupXSize: 1331
OS2SupYSize: 1331
OS2SupXOff: 0
OS2SupYOff: 983
OS2StrikeYSize: 147
OS2StrikeYPos: 639
OS2CapHeight: 1493
OS2XHeight: 1073
OS2FamilyClass: 2053
OS2Vendor: 'URW '
OS2CodePages: 0000009f.00000000
OS2UnicodeRanges: a00002af.100178ff.00000000.00000000
Lookup: 258 8 0 "'kern' Horizontal Kerning lookup 0" { "'kern' Horizontal Kerning lookup 0 subtable" [307,30,0] } ['kern' ('DFLT' <'dflt' > 'grek' <'dflt' > 'latn' <'dflt' > ) ]
MarkAttachClasses: 1
DEI: 91125
TtTable: prep
PUSHW_1
 511
SCANCTRL
PUSHB_1
 1
SCANTYPE
SVTCA[y-axis]
MPPEM
PUSHB_1
 8
LT
IF
PUSHB_2
 1
 1
INSTCTRL
EIF
PUSHB_2
 70
 6
CALL
IF
POP
PUSHB_1
 16
EIF
MPPEM
PUSHB_1
 20
GT
IF
POP
PUSHB_1
 128
EIF
SCVTCI
PUSHB_1
 6
CALL
NOT
IF
SVTCA[y-axis]
PUSHB_1
 5
DUP
RCVT
PUSHB_1
 3
CALL
WCVTP
SVTCA[x-axis]
PUSHB_1
 6
DUP
RCVT
PUSHB_1
 3
CALL
WCVTP
EIF
PUSHB_1
 20
CALL
EndTTInstrs
TtTable: fpgm
PUSHB_1
 0
FDEF
PUSHB_1
 0
SZP0
MPPEM
PUSHB_1
 42
LT
IF
PUSHB_1
 74
SROUND
EIF
PUSHB_1
 0
SWAP
MIAP[rnd]
RTG
PUSHB_1
 6
CALL
IF
RTDG
EIF
MPPEM
PUSHB_1
 42
LT
IF
RDTG
EIF
DUP

StartChar: exclam
Encoding: 33 33 1
Width: 569
GlyphClass: 2
Flags: W
HStem: 0 213<254 425> 1473 20G<255 425>
VStem: 255 170<0 213 665.566 1493>
LayerCount: 2
Fore
SplineSet
425 1493 m 1,0,-1
 425 801 l 1,1,-1
 380 344 l 1,2,-1
 300 344 l 1,3,-1
 255 801 l 1,4,-1
 255 1493 l 1,5,-1
 425 1493 l 1,0,-1
426 213 m 1,6,-1
 425 0 l 1,7,-1
 254 0 l 1,8,-1
 254 213 l 1,9,-1
 426 213 l 1,6,-1
EndSplineSet
EndChar

StartChar: quotedbl
Encoding: 34 34 2
Width: 727
GlyphClass: 2
Flags: W
HStem: 950 502<161 241 489 569>
VStem: 106 190<1153.32 1452> 161 80<950 1021.68> 434 190<1153.32 1452> 489 80<950 1021.68>
LayerCount: 2
Fore
SplineSet
106 1452 m 1,0,-1
 296 1452 l 1,1,-1
 296 1225 l 1,2,-1
 241 950 l 1,3,-1
 161 950 l 1,4,-1
 106 1225 l 1,5,-1
 106 1452 l 1,0,-1
434 1452 m 1,6,-1
 624 1452 l 1,7,-1
 624 1225 l 1,8,-1
 569 950 l 1,9,-1
 489 950 l 1,10,-1
 434 1225 l 1,11,-1
 434 1452 l 1,6,-1
EndSplineSet
EndChar

StartChar: numbersign
Encoding: 35 35 3
Width: 1139
GlyphClass: 2
Flags: W
HStem: 391 139<29 237 419 648 830 1045> 887 139<105 327 509 738 921 1110>
VStem: 158 157<-41 116> 426 156<1271 1427> 570 156<-41 115> 837 156<1271 1427>
LayerCount: 2
Fore
SplineSet
993 1427 m 1,0,-1
 921 1026 l 1,1,-1
 1110 1026 l 1,2,-1
 1110 887 l 1,3,-1
 894 887 l 1,4,-1
 830 530 l 1,5,-1
 1045 530 l 1,6,-1
 1045 391 l 1,7,-1
 804 391 l 1,8,-1
 726 -41 l 1,9,-1
 570 -41 l 1,10,-1
 648 391 l 1,11,-1
 393 391 l 1,12,-1
 315 -41 l 1,13,-1
 158 -41 l 1,14,-1
 237 391 l 1,15,-1
 29 391 l 1,16,-1
 29 530 l 1,17,-1
 263 530 l 1,18,-1
 327 887 l 1,19,-1
 105 887 l 1,20,-1
 105 1026 l 1,21,-1
 353 1026 l 1,22,-1
 426 1427 l 1,23,-1
 582 1427 l 1,24,-1
 509 1026 l 1,25,-1
 764 1026 l 1,26,-1
 837 1427 l 1,27,-1
 993 1427 l 1,0,-1
738 887 m 1,28,-1
 483 887 l 1,29,-1
 419 530 l 1,30,-1
 674 530 l 1,31,-1
 738 887 l 1,28,-1
EndSplineSet
EndChar

StartChar: dollar
Encoding: 36 36 4
Width: 1139
GlyphClass: 2
Flags: W
HStem: -47 142<363.239 498 619 764.524> 651 179<386.34 498> 1322 145<369.071 498 619 750.297>
VStem: 95 166<183.91 422.014 943.412 1221.71> 498 121<-258 -43.7695 95 632 830 1322 1462.98 1577> 854 163<1063 1217.32> 893 168<220.901 517.045>
LayerCount: 2
Fore
SplineSet
498 1577 m 1,0,-1
 619 1577 l 1,1,-1
 619 1467 l 1,2,3
 1004 1432 1004 1432 1017 1063 c 1,4,-1
 854 1063 l 1,5,6
 848 1189 848 1189 777 1258 c 0,7,8
 716 1316 716 1316 619 1322 c 1,9,-1
 619 813 l 1,10,11
 829 749 829 749 887 716 c 0,12,13
 1061 614 1061 614 1061 400 c 0,14,15
 1061 261 1061 261 995 150 c 0,16,17
 890 -26 890 -26 619 -47 c 1,18,-1
 619 -258 l 1,19,-1
 498 -258 l 1,20,-1
 498 -47 l 1,21,22
 286 -34 286 -34 167 93 c 0,23,24
 110 156 110 156 89 227 c 128,-1,25
 68 298 68 298 68 426 c 1,26,-1
 230 426 l 1,27,28
 239 324 239 324 248.5 284 c 128,-1,29
 258 244 258 244 282 211 c 0,30,31
 345 119 345 119 498 95 c 1,32,-1
 498 651 l 1,33,34
 308 709 308 709 239 758 c 0,35,36
 95 862 95 862 95 1056 c 0,37,38
 95 1231 95 1231 198.5 1336.5 c 128,-1,39
 302 1442 302 1442 498 1467 c 1,40,-1
 498 1577 l 1,0,-1
498 1322 m 1,41,42
 398 1307 398 1307 342 1261 c 0,43,44
 261 1192 261 1192 261 1077 c 0,45,46
 261 893 261 893 498 830 c 1,47,-1
 498 1322 l 1,41,42
619 95 m 1,48,49
 740 107 740 107 806 170 c 0,50,51
 893 253 893 253 893 374 c 0,52,53
 893 476 893 476 834.5 531.5 c 128,-1,54
 776 587 776 587 619 632 c 1,55,-1
 619 95 l 1,48,49
EndSplineSet
EndChar

StartChar: percent
Encoding: 37 37 5
Width: 1821
GlyphClass: 2
Flags: W
HStem: -39 143<1279.53 1539.61> 516 143<1279.88 1539.23> 702 143<280.191 535.919> 1260 143<278.869 535.657>
VStem: 59 141<924.971 1181.05> 616 141<923.987 1179.94> 1060 141<182.571 437.927> 1618 141<181.987 437.087>
LayerCount: 2
Fore
SplineSet
407 1403 m 0,0,1
 553 1403 553 1403 655 1300 c 0,2,3
 757 1198 757 1198 757 1048 c 0,4,5
 757 907 757 907 655 805 c 0,6,7
 553 702 553 702 408 702 c 256,8,9
 263 702 263 702 162 805 c 0,10,11
 59 908 59 908 59 1053 c 0,12,13
 59 1200 59 1200 162 1300 c 0,14,15
 266 1403 266 1403 407 1403 c 0,0,1
408 1260 m 0,16,17
 322 1260 322 1260 261 1199 c 0,18,19
 200 1139 200 1139 200 1053 c 256,20,21
 200 967 200 967 261 906 c 256,22,23
 322 845 322 845 408 845 c 256,24,25
 494 845 494 845 555 906 c 256,26,27
 616 967 616 967 616 1050 c 0,28,29
 616 1140 616 1140 555 1199 c 0,30,31
 493 1260 493 1260 408 1260 c 0,16,17
1246 1452 m 1,32,-1
 1382 1452 l 1,33,-1
 573 -41 l 1,34,-1
 437 -41 l 1,35,-1
 1246 1452 l 1,32,-1
1409 659 m 0,36,37
 1554 659 1554 659 1657 557 c 0,38,39
 1759 455 1759 455 1759 306 c 0,40,41
 1759 165 1759 165 1657 63 c 0,42,43
 1554 -39 1554 -39 1410 -39 c 0,44,45
 1265 -39 1265 -39 1162 63 c 0,46,47
 1060 165 1060 165 1060 310 c 0,48,49
 1060 457 1060 457 1162 557 c 0,50,51
 1267 659 1267 659 1409 659 c 0,36,37
1409 516 m 0,52,53
 1323 516 1323 516 1262 456 c 0,54,55
 1201 395 1201 395 1201 310 c 256,56,57
 1201 225 1201 225 1262 164 c 0,58,59
 1323 104 1323 104 1410 104 c 0,60,61
 1496 104 1496 104 1557 164 c 0,62,63
 1618 225 1618 225 1618 308 c 0,64,65
 1618 397 1618 397 1557 456 c 0,66,67
 1494 516 1494 516 1409 516 c 0,52,53
EndSplineSet
EndChar

StartChar: ampersand
Encoding: 38 38 6
Width: 1366
GlyphClass: 2
Flags: W
HStem: -47 160<398.77 708.767> 1309 143<491.693 737.576>
VStem: 106 172<229.83 514.69> 272 168<1004.91 1257.36> 794 162<1013.92 1252.24> 1010 163<481.938 684>
LayerCount: 2
Fore
SplineSet
1010 684 m 1,0,-1
 1173 684 l 1,1,2
 1170 491 1170 491 1054 308 c 1,3,-1
 1304 0 l 1,4,-1
 1081 0 l 1,5,-1
 953 159 l 1,6,7
 851 61 851 61 796 26 c 0,8,9
 682 -47 682 -47 527 -47 c 0,10,11
 328 -47 328 -47 210 77 c 0,12,13
 106 185 106 185 106 361 c 0,14,15
 106 501 106 501 176.5 593 c 128,-1,16
 247 685 247 685 439 796 c 1,17,18
 342 918 342 918 307 988 c 128,-1,19
 272 1058 272 1058 272 1131 c 0,20,21
 272 1267 272 1267 377 1362 c 0,22,23
 477 1452 477 1452 623 1452 c 0,24,25
 768 1452 768 1452 863 1361 c 0,26,27
 956 1271 956 1271 956 1131 c 0,28,29
 956 1020 956 1020 894.5 942.5 c 128,-1,30
 833 865 833 865 674 775 c 1,31,-1
 946 440 l 1,32,33
 1010 562 1010 562 1010 684 c 1,0,-1
584 883 m 1,34,35
 700 955 700 955 747 1010.5 c 128,-1,36
 794 1066 794 1066 794 1134 c 0,37,38
 794 1210 794 1210 743.5 1259.5 c 128,-1,39
 693 1309 693 1309 616 1309 c 0,40,41
 536 1309 536 1309 488 1261 c 128,-1,42
 440 1213 440 1213 440 1133 c 0,43,44
 440 1078 440 1078 465 1034 c 128,-1,45
 490 990 490 990 584 883 c 1,34,35
527 689 m 1,46,47
 427 626 427 626 377 578 c 0,48,49
 278 486 278 486 278 375 c 0,50,51
 278 267 278 267 356.5 190 c 128,-1,52
 435 113 435 113 546 113 c 0,53,54
 626 113 626 113 697.5 151.5 c 128,-1,55
 769 190 769 190 856 280 c 1,56,-1
 527 689 l 1,46,47
EndSplineSet
EndChar

StartChar: quotesingle
Encoding: 39 39 7
Width: 391
GlyphClass: 2
Flags: W
HStem: 950 502<153 236>
VStem: 98 193<1153.32 1452> 153 83<950 1021.68>
LayerCount: 2
Fore
SplineSet
98 1452 m 1,0,-1
 291 1452 l 1,1,-1
 291 1225 l 1,2,-1
 236 950 l 1,3,-1
 153 950 l 1,4,-1
 98 1225 l 1,5,-1
 98 1452 l 1,0,-1
EndSplineSet
EndChar

StartChar: parenleft
Encoding: 40 40 8
Width: 682
GlyphClass: 2
Flags: W
HStem: 1473 20G<431 596>
VStem: 150 166<180.734 879.869>
LayerCount: 2
Fore
SplineSet
484 1493 m 1,0,-1
 596 1493 l 1,1,2
 496 1330 496 1330 425 1136 c 0,3,4
 316 835 316 835 316 530 c 0,5,6
 316 284 316 284 388.5 35 c 128,-1,7
 461 -214 461 -214 596 -434 c 1,8,-1
 484 -434 l 1,9,10
 364 -277 364 -277 276 -65 c 0,11,12
 150 237 150 237 150 530 c 0,13,14
 150 845 150 845 297 1173 c 0,15,16
 378 1355 378 1355 484 1493 c 1,0,-1
EndSplineSet
EndChar

StartChar: parenright
Encoding: 41 41 9
Width: 682
GlyphClass: 2
Flags: W
HStem: 1473 20G<78 250.5>
VStem: 358 166<178.639 878.389>
LayerCount: 2
Fore
SplineSet
191 -434 m 1,0,-1
 78 -434 l 1,1,2
 178 -273 178 -273 249 -77 c 0,3,4
 358 223 358 223 358 529 c 0,5,6
 358 775 358 775 285.5 1024.5 c 128,-1,7
 213 1274 213 1274 78 1493 c 1,8,-1
 191 1493 l 1,9,10
 310 1337 310 1337 398 1124 c 0,11,12
 524 822 524 822 524 529 c 0,13,14
 524 213 524 213 378 -114 c 0,15,16
 296 -296 296 -296 191 -434 c 1,0,-1
EndSplineSet
EndChar

StartChar: asterisk
Encoding: 42 42 10
Width: 797
GlyphClass: 2
Flags: W
HStem: 903 590
VStem: 338 109<1263 1493>
LayerCount: 2
Fore
SplineSet
329 1493 m 1,0,-1
 456 1493 l 1,1,-1
 447 1263 l 1,2,-1
 664 1342 l 1,3,-1
 703 1221 l 1,4,-1
 481 1158 l 1,5,-1
 624 978 l 1,6,-1
 521 903 l 1,7,-1
 393 1094 l 1,8,-1
 264 903 l 1,9,-1
 161 978 l 1,10,-1
 304 1158 l 1,11,-1
 82 1221 l 1,12,-1
 121 1342 l 1,13,-1
 338 1263 l 1,14,-1
 329 1493 l 1,0,-1
EndSplineSet
EndChar

StartChar: plus
Encoding: 43 43 11
Width: 1196
GlyphClass: 2
Flags: W
HStem: 403 143<102 526 669 1093>
VStem: 526 143<-20 403 546 971>
LayerCount: 2
Fore
SplineSet
1093 546 m 1,0,-1
 1093 403 l 1,1,-1
 669 403 l 1,2,-1
 669 -20 l 1,3,-1
 526 -20 l 1,4,-1
 526 403 l 1,5,-1
 102 403 l 1,6,-1
 102 546 l 1,7,-1
 526 546 l 1,8,-1
 526 971 l 1,9,-1
 669 971 l 1,10,-1
 669 546 l 1,11,-1
 1093 546 l 1,0,-1
EndSplineSet
EndChar

StartChar: comma
Encoding: 44 44 12
Width: 569
GlyphClass: 2
Flags: W
HStem: -302 78<178 248.244> 0 213<178 300>
VStem: 178 215<0 213> 300 93<-200.787 0>
LayerCount: 2
Fore
SplineSet
178 213 m 1,0,-1
 393 213 l 1,1,-1
 393 -32 l 2,2,3
 393 -300 393 -300 178 -302 c 1,4,-1
 178 -224 l 1,5,6
 225 -222 225 -222 249 -207 c 128,-1,7
 273 -192 273 -192 286 -155 c 0,8,9
 300 -118 300 -118 300 0 c 1,10,-1
 178 0 l 1,11,-1
 178 213 l 1,0,-1
EndSplineSet
EndChar

StartChar: hyphen
Encoding: 45 45 13
Width: 682
GlyphClass: 2
Flags: W
HStem: 492 147<94 581>
VStem: 94 487<492 639>
LayerCount: 2
Fore
SplineSet
581 639 m 1,0,-1
 581 492 l 1,1,-1
 94 492 l 1,2,-1
 94 639 l 1,3,-1
 581 639 l 1,0,-1
EndSplineSet
EndChar

StartChar: period
Encoding: 46 46 14
Width: 569
GlyphClass: 2
Flags: W
HStem: 0 213<178 391>
VStem: 178 213<0 213>
LayerCount: 2
Fore
SplineSet
391 213 m 1,0,-1
 391 0 l 1,1,-1
 178 0 l 1,2,-1
 178 213 l 1,3,-1
 391 213 l 1,0,-1
EndSplineSet
EndChar

StartChar: slash
Encoding: 47 47 15
Width: 569
GlyphClass: 2
Flags: W
HStem: 1473 20G<462.677 582>
VStem: -16 113<-41 72> 469 113<1380 1493>
LayerCount: 2
Fore
SplineSet
469 1493 m 1,0,-1
 582 1493 l 1,1,-1
 97 -41 l 1,2,-1
 -16 -41 l 1,3,-1
 469 1493 l 1,0,-1
EndSplineSet
EndChar

StartChar: zero
Encoding: 48 48 16
Width: 1139
GlyphClass: 2
Flags: W
HStem: -47 150<425.811 701.694> 1321 160<427.963 697.082>
VStem: 88 184<328.868 1093.22> 854 184<333.262 1094.72>
LayerCount: 2
Fore
SplineSet
562 1481 m 0,0,1
 701 1481 701 1481 809 1404 c 0,2,3
 1038 1241 1038 1241 1038 705 c 0,4,5
 1038 312 1038 312 896 115 c 0,6,7
 841 39 841 39 753 -4 c 128,-1,8
 665 -47 665 -47 563 -47 c 0,9,10
 425 -47 425 -47 317 30 c 0,11,12
 88 192 88 192 88 717 c 0,13,14
 88 1125 88 1125 230 1319 c 0,15,16
 291 1402 291 1402 388 1445 c 0,17,18
 470 1481 470 1481 562 1481 c 0,0,1
563 1321 m 256,19,20
 272 1321 272 1321 272 716 c 0,21,22
 272 103 272 103 559 103 c 0,23,24
 708 103 708 103 776 242 c 0,25,26
 854 404 854 404 854 722 c 0,27,28
 854 1321 854 1321 563 1321 c 256,19,20
EndSplineSet
EndChar

StartChar: one
Encoding: 49 49 17
Width: 1139
GlyphClass: 2
Flags: W
HStem: 1055 131<209 425.726> 1461 20G<569 711>
VStem: 531 180<0 1055> 592 119<1355.08 1481>
LayerCount: 2
Fore
SplineSet
531 1055 m 1,0,-1
 209 1055 l 1,1,-1
 209 1186 l 1,2,3
 345 1206 345 1206 397.5 1221 c 128,-1,4
 450 1236 450 1236 486 1266 c 0,5,6
 546 1316 546 1316 592 1481 c 1,7,-1
 711 1481 l 1,8,-1
 711 0 l 1,9,-1
 531 0 l 1,10,-1
 531 1055 l 1,0,-1
EndSplineSet
EndChar

StartChar: two
Encoding: 50 50 18
Width: 1139
GlyphClass: 2
Flags: W
HStem: 1 178<274 1037> 1323 158<420.295 734.907>
VStem: 103 180<968 1177.88> 863 174<887.443 1198.8>
LayerCount: 2
Fore
SplineSet
1037 179 m 1,0,-1
 1037 1 l 1,1,-1
 70 1 l 1,2,3
 84 230 84 230 149 348 c 0,4,5
 195 429 195 429 270 496 c 128,-1,6
 345 563 345 563 477 639 c 2,7,-1
 667 749 l 2,8,9
 863 863 863 863 863 1044 c 0,10,11
 863 1168 863 1168 776 1248 c 0,12,13
 694 1323 694 1323 576 1323 c 0,14,15
 494 1323 494 1323 427.5 1284.5 c 128,-1,16
 361 1246 361 1246 326 1178 c 0,17,18
 291 1109 291 1109 283 968 c 1,19,-1
 103 968 l 1,20,21
 109 1179 109 1179 180 1288 c 0,22,23
 304 1481 304 1481 582 1481 c 0,24,25
 785 1481 785 1481 911 1365 c 0,26,27
 1047 1240 1047 1240 1047 1048 c 0,28,29
 1047 772 1047 772 741 602 c 2,30,-1
 536 488 l 2,31,32
 411 419 411 419 349.5 346 c 128,-1,33
 288 273 288 273 274 179 c 1,34,-1
 1037 179 l 1,0,-1
EndSplineSet
EndChar

StartChar: three
Encoding: 51 51 19
Width: 1139
GlyphClass: 2
Flags: W
HStem: -48 159<372.925 727.389> 681 154<453 720.422> 1324 157<389.68 713.374>
VStem: 66 181<246.728 430> 97 180<1004 1209.86> 810 184<919.418 1228.43> 853 184<237.433 576.375>
LayerCount: 2
Fore
SplineSet
453 681 m 1,0,-1
 453 835 l 1,1,2
 625 836 625 836 693 865 c 0,3,4
 810 915 810 915 810 1068 c 0,5,6
 810 1197 810 1197 734 1263 c 0,7,8
 664 1324 664 1324 553 1324 c 0,9,10
 469 1324 469 1324 404.5 1289 c 128,-1,11
 340 1254 340 1254 309 1191 c 0,12,13
 279 1128 279 1128 277 1004 c 1,14,-1
 97 1004 l 1,15,16
 101 1194 101 1194 172 1303 c 0,17,18
 230 1394 230 1394 334 1439 c 0,19,20
 431 1481 431 1481 552 1481 c 0,21,22
 754 1481 754 1481 875 1375 c 0,23,24
 994 1271 994 1271 994 1073 c 0,25,26
 994 945 994 945 920 857 c 0,27,28
 870 799 870 799 791 767 c 1,29,30
 895 730 895 730 948 675 c 0,31,32
 1037 583 1037 583 1037 413 c 0,33,34
 1037 200 1037 200 897 73 c 0,35,36
 764 -48 764 -48 546 -48 c 0,37,38
 318 -48 318 -48 201 69 c 128,-1,39
 84 186 84 186 66 430 c 1,40,-1
 247 430 l 1,41,42
 254 299 254 299 300 228 c 0,43,44
 341 167 341 167 401.5 139 c 128,-1,45
 462 111 462 111 553 111 c 0,46,47
 700 111 700 111 778 196 c 0,48,49
 853 278 853 278 853 411 c 256,50,51
 853 544 853 544 776.5 613 c 128,-1,52
 700 682 700 682 552 682 c 2,53,-1
 453 681 l 1,0,-1
EndSplineSet
EndChar

StartChar: four
Encoding: 52 52 20
Width: 1139
GlyphClass: 2
Flags: W
HStem: 358 162<215 670 850 1065> 1461 20G<701.858 850>
VStem: 670 180<0 358 520 1173>
LayerCount: 2
Fore
SplineSet
670 358 m 1,0,-1
 57 358 l 1,1,-1
 57 549 l 1,2,-1
 716 1481 l 1,3,-1
 850 1481 l 1,4,-1
 850 520 l 1,5,-1
 1065 520 l 1,6,-1
 1065 358 l 1,7,-1
 850 358 l 1,8,-1
 850 0 l 1,9,-1
 670 0 l 1,10,-1
 670 358 l 1,0,-1
670 520 m 1,11,-1
 670 1173 l 1,12,-1
 215 520 l 1,13,-1
 670 520 l 1,11,-1
EndSplineSet
EndChar

StartChar: five
Encoding: 53 53 21
Width: 1139
GlyphClass: 2
Flags: W
HStem: -47 160<381.493 724.07> 797 160<387.466 723.385> 1274 178<370 975>
VStem: 72 181<249.688 356> 867 184<260.156 644.992>
LayerCount: 2
Fore
SplineSet
975 1452 m 1,0,-1
 975 1274 l 1,1,-1
 370 1274 l 1,2,-1
 314 869 l 1,3,4
 435 957 435 957 582 957 c 0,5,6
 784 957 784 957 915 828 c 0,7,8
 1051 695 1051 695 1051 473 c 0,9,10
 1051 261 1051 261 929 117 c 0,11,12
 790 -47 790 -47 553 -47 c 0,13,14
 409 -47 409 -47 295 14 c 0,15,16
 197 66 197 66 148.5 140.5 c 128,-1,17
 100 215 100 215 72 356 c 1,18,-1
 253 356 l 1,19,20
 315 113 315 113 549 113 c 0,21,22
 707 113 707 113 792 214 c 0,23,24
 867 303 867 303 867 449 c 0,25,26
 867 613 867 613 778 708 c 0,27,28
 695 797 695 797 550 797 c 0,29,30
 465 797 465 797 405.5 767 c 128,-1,31
 346 737 346 737 282 662 c 1,32,-1
 118 662 l 1,33,-1
 226 1452 l 1,34,-1
 975 1452 l 1,0,-1
EndSplineSet
EndChar

StartChar: six
Encoding: 54 54 22
Width: 1139
GlyphClass: 2
Flags: W
HStem: -47 160<427.452 730.75> 755 160<418.334 742.063> 1096 21G<831 1021> 1321 160<447.164 737.316>
VStem: 88 194<299.729 1069.62> 840 181<1096 1211.1> 866 185<254.545 623.889>
LayerCount: 2
Fore
SplineSet
1021 1096 m 1,0,-1
 840 1096 l 1,1,2
 822 1189 822 1189 774 1243 c 0,3,4
 704 1321 704 1321 596 1321 c 0,5,6
 440 1321 440 1321 356.5 1174 c 128,-1,7
 273 1027 273 1027 272 752 c 1,8,9
 390 915 390 915 606 915 c 0,10,11
 793 915 793 915 913 798 c 0,12,13
 971 741 971 741 1007 661 c 0,14,15
 1051 561 1051 561 1051 449 c 0,16,17
 1051 249 1051 249 932 109 c 0,18,19
 799 -47 799 -47 576 -47 c 0,20,21
 332 -47 332 -47 210 137 c 0,22,23
 133 254 133 254 110 394 c 0,24,25
 88 525 88 525 88 675 c 0,26,27
 88 877 88 877 119.5 1019 c 128,-1,28
 151 1161 151 1161 219 1269 c 0,29,30
 284 1370 284 1370 390 1427 c 0,31,32
 489 1481 489 1481 608 1481 c 0,33,34
 774 1481 774 1481 883.5 1379 c 128,-1,35
 993 1277 993 1277 1021 1096 c 1,0,-1
583 755 m 0,36,37
 444 755 444 755 358 661 c 0,38,39
 282 576 282 576 282 444 c 0,40,41
 282 305 282 305 361 213 c 0,42,43
 448 113 448 113 578 113 c 0,44,45
 643 113 643 113 702.5 142 c 128,-1,46
 762 171 762 171 800 222 c 0,47,48
 866 308 866 308 866 434 c 0,49,50
 866 563 866 563 805 650 c 0,51,52
 731 755 731 755 583 755 c 0,36,37
EndSplineSet
EndChar

StartChar: seven
Encoding: 55 55 23
Width: 1139
GlyphClass: 2
Flags: W
HStem: 1274 178<94 878>
VStem: 283 192<0 174.357>
LayerCount: 2
Fore
SplineSet
1065 1452 m 1,0,-1
 1065 1301 l 1,1,2
 915 1093 915 1093 846.5 982.5 c 128,-1,3
 778 872 778 872 706 722 c 0,4,5
 543 381 543 381 475 0 c 1,6,-1
 283 0 l 1,7,8
 337 223 337 223 374 337.5 c 128,-1,9
 411 452 411 452 474 591 c 0,10,11
 547 752 547 752 632.5 896.5 c 128,-1,12
 718 1041 718 1041 878 1274 c 1,13,-1
 94 1274 l 1,14,-1
 94 1452 l 1,15,-1
 1065 1452 l 1,0,-1
EndSplineSet
EndChar

StartChar: eight
Encoding: 56 56 24
Width: 1139
GlyphClass: 2
Flags: W
HStem: -47 160<391.411 735.413> 699 152<405.188 721.953> 1321 160<403.442 723.55>
VStem: 76 184<243.226 566.628> 127 184<941.567 1229.04> 816 184<940.898 1231.26> 867 184<241.761 571.735>
LayerCount: 2
Fore
SplineSet
802 779 m 1,0,1
 1051 656 1051 656 1051 411 c 0,2,3
 1051 222 1051 222 931 96 c 0,4,5
 796 -47 796 -47 563 -47 c 0,6,7
 331 -47 331 -47 196 96 c 0,8,9
 76 222 76 222 76 411 c 0,10,11
 76 656 76 656 325 779 c 1,12,13
 231 838 231 838 194 882 c 0,14,15
 127 962 127 962 127 1087 c 0,16,17
 127 1260 127 1260 251 1373 c 0,18,19
 369 1481 369 1481 564 1481 c 0,20,21
 758 1481 758 1481 876 1373 c 0,22,23
 1000 1260 1000 1260 1000 1086 c 0,24,25
 1000 981 1000 981 957.5 915 c 128,-1,26
 915 849 915 849 802 779 c 1,0,1
563 1321 m 256,27,28
 447 1321 447 1321 379 1257 c 0,29,30
 311 1192 311 1192 311 1086 c 256,31,32
 311 980 311 980 379 915 c 0,33,34
 447 851 447 851 564 851 c 0,35,36
 680 851 680 851 748 915 c 0,37,38
 816 980 816 980 816 1082 c 0,39,40
 816 1193 816 1193 748 1257 c 0,41,42
 679 1321 679 1321 563 1321 c 256,27,28
564 699 m 0,43,44
 432 699 432 699 348 621 c 0,45,46
 260 540 260 540 260 406 c 256,47,48
 260 272 260 272 348 191 c 0,49,50
 431 113 431 113 559 113 c 0,51,52
 696 113 696 113 780 191 c 0,53,54
 867 272 867 272 867 407 c 256,55,56
 867 542 867 542 780 621 c 0,57,58
 694 699 694 699 564 699 c 0,43,44
EndSplineSet
EndChar

StartChar: nine
Encoding: 57 57 25
Width: 1139
GlyphClass: 2
Flags: W
HStem: -47 160<393.401 681.697> 522 160<385.957 710.093> 1323 158<397.844 701.538>
VStem: 77 185<812.583 1180.96> 108 180<222.897 338> 847 196<365.236 1134.01>
LayerCount: 2
Fore
SplineSet
108 338 m 1,0,-1
 288 338 l 1,1,2
 307 245 307 245 355 191 c 0,3,4
 424 113 424 113 533 113 c 0,5,6
 688 113 688 113 771.5 260.5 c 128,-1,7
 855 408 855 408 856 684 c 1,8,9
 721 522 721 522 523 522 c 0,10,11
 335 522 335 522 215 639 c 0,12,13
 157 695 157 695 121 775 c 0,14,15
 77 875 77 875 77 986 c 0,16,17
 77 1186 77 1186 197 1326 c 0,18,19
 329 1481 329 1481 553 1481 c 0,20,21
 798 1481 798 1481 920 1297 c 0,22,23
 998 1180 998 1180 1021 1040 c 0,24,25
 1043 908 1043 908 1043 758 c 0,26,27
 1043 556 1043 556 1011.5 414 c 128,-1,28
 980 272 980 272 911 164 c 0,29,30
 847 64 847 64 740 6 c 0,31,32
 640 -47 640 -47 521 -47 c 0,33,34
 354 -47 354 -47 244.5 55 c 128,-1,35
 135 157 135 157 108 338 c 1,0,-1
550 1323 m 0,36,37
 485 1323 485 1323 426 1294 c 128,-1,38
 367 1265 367 1265 328 1214 c 0,39,40
 262 1128 262 1128 262 1002 c 0,41,42
 262 874 262 874 323 787 c 0,43,44
 396 682 396 682 546 682 c 0,45,46
 686 682 686 682 772 779 c 0,47,48
 847 864 847 864 847 992 c 0,49,50
 847 1133 847 1133 768 1223 c 0,51,52
 680 1323 680 1323 550 1323 c 0,36,37
EndSplineSet
EndChar

StartChar: colon
Encoding: 58 58 26
Width: 569
GlyphClass: 2
Flags: W
HStem: 0 213<225 438> 860 213<225 438>
VStem: 225 213<0 213 860 1073>
LayerCount: 2
Fore
SplineSet
438 213 m 1,0,-1
 438 0 l 1,1,-1
 225 0 l 1,2,-1
 225 213 l 1,3,-1
 438 213 l 1,0,-1
438 1073 m 1,4,-1
 438 860 l 1,5,-1
 225 860 l 1,6,-1
 225 1073 l 1,7,-1
 438 1073 l 1,4,-1
EndSplineSet
EndChar

StartChar: semicolon
Encoding: 59 59 27
Width: 569
GlyphClass: 2
Flags: W
HStem: -302 78<225 295.244> 0 213<225 347> 860 213<227 440>
VStem: 225 215<0 213 860 1073> 347 93<-200.787 0>
LayerCount: 2
Fore
SplineSet
440 1073 m 1,0,-1
 440 860 l 1,1,-1
 227 860 l 1,2,-1
 227 1073 l 1,3,-1
 440 1073 l 1,0,-1
225 213 m 1,4,-1
 440 213 l 1,5,-1
 440 -32 l 2,6,7
 440 -300 440 -300 225 -302 c 1,8,-1
 225 -224 l 1,9,10
 272 -222 272 -222 296 -207 c 128,-1,11
 320 -192 320 -192 333 -155 c 0,12,13
 347 -118 347 -118 347 0 c 1,14,-1
 225 0 l 1,15,-1
 225 213 l 1,4,-1
EndSplineSet
EndChar

StartChar: less
Encoding: 60 60 28
Width: 1196
GlyphClass: 2
Flags: W
LayerCount: 2
Fore
SplineSet
92 406 m 1,0,-1
 92 547 l 1,1,-1
 1093 971 l 1,2,-1
 1093 808 l 1,3,-1
 286 479 l 1,4,-1
 1093 144 l 1,5,-1
 1093 -18 l 1,6,-1
 92 406 l 1,0,-1
EndSplineSet
EndChar

StartChar: equal
Encoding: 61 61 29
Width: 1196
GlyphClass: 2
Flags: W
HStem: 227 143<102 1093> 580 143<102 1093>
LayerCount: 2
Fore
SplineSet
1093 723 m 1,0,-1
 1093 580 l 1,1,-1
 102 580 l 1,2,-1
 102 723 l 1,3,-1
 1093 723 l 1,0,-1
1093 370 m 1,4,-1
 1093 227 l 1,5,-1
 102 227 l 1,6,-1
 102 370 l 1,7,-1
 1093 370 l 1,4,-1
EndSplineSet
EndChar

StartChar: greater
Encoding: 62 62 30
Width: 1196
GlyphClass: 2
Flags: W
LayerCount: 2
Fore
SplineSet
1103 546 m 1,0,-1
 1103 406 l 1,1,-1
 102 -18 l 1,2,-1
 102 144 l 1,3,-1
 909 473 l 1,4,-1
 102 808 l 1,5,-1
 102 971 l 1,6,-1
 1103 546 l 1,0,-1
EndSplineSet
EndChar

StartChar: question
Encoding: 63 63 31
Width: 1139
GlyphClass: 2
Flags: W
HStem: 0 213<492 676> 1358 160<431.525 759.871>
VStem: 158 173<1038 1248> 492 184<0 213 408 638.229> 859 184<975.131 1263.73>
LayerCount: 2
Fore
SplineSet
676 408 m 1,0,-1
 492 408 l 1,1,-1
 492 520 l 2,2,3
 492 611 492 611 529.5 670 c 128,-1,4
 567 729 567 729 705 853 c 0,5,6
 787 926 787 926 823 989.5 c 128,-1,7
 859 1053 859 1053 859 1124 c 0,8,9
 859 1229 859 1229 787 1293.5 c 128,-1,10
 715 1358 715 1358 597 1358 c 0,11,12
 429 1358 429 1358 367 1239 c 0,13,14
 332 1171 332 1171 331 1038 c 1,15,-1
 158 1038 l 1,16,17
 158 1518 158 1518 606 1518 c 0,18,19
 812 1518 812 1518 930 1406 c 0,20,21
 1043 1299 1043 1299 1043 1124 c 0,22,23
 1043 1021 1043 1021 998.5 941.5 c 128,-1,24
 954 862 954 862 838 757 c 0,25,26
 737 665 737 665 709 622 c 0,27,28
 676 572 676 572 676 504 c 2,29,-1
 676 408 l 1,0,-1
676 213 m 1,30,-1
 676 0 l 1,31,-1
 492 0 l 1,32,-1
 492 213 l 1,33,-1
 676 213 l 1,30,-1
EndSplineSet
EndChar

StartChar: at
Encoding: 64 64 32
Width: 2079
GlyphClass: 2
Flags: W
HStem: -291 158<738.982 1327.92> 127 131<810.358 1039.8 1339.22 1555.14> 938 131<916.138 1183.81> 1360 158<794.092 1306.18>
VStem: 70 174<315.273 811.576> 541 184<349.273 708.188> 1770 178<520.642 948.567>
LayerCount: 2
Fore
SplineSet
1363 1026 m 1,0,-1
 1532 1026 l 1,1,-1
 1347 453 l 2,2,3
 1323 377 1323 377 1323 350 c 0,4,5
 1323 313 1323 313 1353.5 286.5 c 128,-1,6
 1384 260 1384 260 1425 260 c 0,7,8
 1534 260 1534 260 1636 371 c 0,9,10
 1699 440 1699 440 1734.5 535.5 c 128,-1,11
 1770 631 1770 631 1770 730 c 0,12,13
 1770 909 1770 909 1662 1060 c 0,14,15
 1557 1207 1557 1207 1376 1288 c 0,16,17
 1215 1360 1215 1360 1049 1360 c 0,18,19
 844 1360 844 1360 655 1252 c 0,20,21
 457 1139 457 1139 346 938 c 0,22,23
 244 755 244 755 244 559 c 0,24,25
 244 267 244 267 462 70 c 0,26,27
 574 -32 574 -32 723 -84 c 0,28,29
 861 -133 861 -133 1011 -133 c 0,30,31
 1170 -133 1170 -133 1407 -68 c 1,32,-1
 1464 -204 l 1,33,34
 1236 -291 1236 -291 1001 -291 c 0,35,36
 731 -291 731 -291 505 -166 c 0,37,38
 277 -39 277 -39 162 171 c 0,39,40
 70 339 70 339 70 529 c 0,41,42
 70 821 70 821 243 1079 c 0,43,44
 398 1309 398 1309 659 1426 c 0,45,46
 866 1518 866 1518 1077 1518 c 0,47,48
 1321 1518 1321 1518 1538 1399 c 0,49,50
 1767 1275 1767 1275 1875 1060 c 0,51,52
 1948 915 1948 915 1948 756 c 0,53,54
 1948 616 1948 616 1888 483 c 0,55,56
 1798 283 1798 283 1649 189 c 0,57,58
 1534 117 1534 117 1392 117 c 0,59,60
 1194 117 1194 117 1166 275 c 1,61,62
 1032 127 1032 127 875 127 c 0,63,64
 741 127 741 127 647 222 c 0,65,66
 541 330 541 330 541 502 c 0,67,68
 541 667 541 667 638 817 c 0,69,70
 733 964 733 964 887 1030 c 0,71,72
 979 1069 979 1069 1068 1069 c 0,73,74
 1238 1069 1238 1069 1318 891 c 1,75,-1
 1363 1026 l 1,0,-1
1056 938 m 0,76,77
 930 938 930 938 833 816 c 0,78,79
 783 753 783 753 754 668 c 128,-1,80
 725 583 725 583 725 500 c 0,81,82
 725 393 725 393 789 323 c 0,83,84
 849 258 849 258 929 258 c 0,85,86
 1047 258 1047 258 1136 391 c 0,87,88
 1175 448 1175 448 1209.5 556.5 c 128,-1,89
 1244 665 1244 665 1248 741 c 0,90,91
 1248 747 1248 747 1248 752 c 0,92,93
 1248 829 1248 829 1195 883.5 c 128,-1,94
 1142 938 1142 938 1056 938 c 0,76,77
EndSplineSet
EndChar

StartChar: A
Encoding: 65 65 33
Width: 1366
GlyphClass: 2
Flags: W
HStem: 449 160<443 918> 1473 20G<560.86 821.019>
LayerCount: 2
Fore
SplineSet
972 449 m 1,0,-1
 395 449 l 1,1,-1
 238 0 l 1,2,-1
 35 0 l 1,3,-1
 568 1493 l 1,4,-1
 814 1493 l 1,5,-1
 1338 0 l 1,6,-1
 1125 0 l 1,7,-1
 972 449 l 1,0,-1
918 609 m 1,8,-1
 688 1288 l 1,9,-1
 443 609 l 1,10,-1
 918 609 l 1,8,-1
EndSplineSet
EndChar

StartChar: B
Encoding: 66 66 34
Width: 1366
GlyphClass: 2
Flags: W
HStem: 0 168<352 983.396> 682 168<352 926.01> 1325 168<352 921.816>
VStem: 162 190<168 682 850 1325> 1020 190<941.227 1235.59> 1086 190<269.847 581.607>
LayerCount: 2
Fore
SplineSet
162 0 m 1,0,-1
 162 1493 l 1,1,-1
 768 1493 l 2,2,3
 976 1493 976 1493 1092 1388 c 0,4,5
 1210 1282 1210 1282 1210 1113 c 0,6,7
 1210 883 1210 883 1003 789 c 1,8,9
 1104 750 1104 750 1160 701 c 0,10,11
 1276 600 1276 600 1276 425 c 0,12,13
 1276 246 1276 246 1161 124 c 0,14,15
 1043 0 1043 0 834 0 c 2,16,-1
 162 0 l 1,0,-1
352 850 m 1,17,-1
 721 850 l 2,18,19
 801 850 801 850 850 862 c 128,-1,20
 899 874 899 874 937 902 c 0,21,22
 1020 964 1020 964 1020 1088 c 0,23,24
 1020 1211 1020 1211 937 1273 c 0,25,26
 896 1303 896 1303 852 1313 c 0,27,28
 796 1325 796 1325 721 1325 c 2,29,-1
 352 1325 l 1,30,-1
 352 850 l 1,17,-1
352 168 m 1,31,-1
 816 168 l 2,32,33
 950 168 950 168 1017 239 c 0,34,35
 1086 311 1086 311 1086 425 c 0,36,37
 1086 546 1086 546 1014.5 614 c 128,-1,38
 943 682 943 682 816 682 c 2,39,-1
 352 682 l 1,40,-1
 352 168 l 1,31,-1
EndSplineSet
EndChar

StartChar: C
Encoding: 67 67 35
Width: 1479
GlyphClass: 2
Flags: W
HStem: -47 168<570.806 973.637> 1349 169<554.615 980.068>
VStem: 98 190<447.806 1022.51> 1160 196<1030 1167.01> 1190 196<374.453 545>
LayerCount: 2
Fore
SplineSet
1356 1030 m 1,0,-1
 1160 1030 l 1,1,2
 1130 1184 1130 1184 1053 1256 c 0,3,4
 951 1349 951 1349 758 1349 c 0,5,6
 540 1349 540 1349 422 1195 c 0,7,8
 288 1019 288 1019 288 732 c 0,9,10
 288 456 288 456 418 287 c 0,11,12
 476 211 476 211 569 166 c 0,13,14
 663 121 663 121 773 121 c 0,15,16
 894 121 894 121 985 171 c 128,-1,17
 1076 221 1076 221 1123 313 c 0,18,19
 1166 399 1166 399 1190 545 c 1,20,-1
 1386 545 l 1,21,22
 1317 -47 1317 -47 772 -47 c 0,23,24
 484 -47 484 -47 314 128 c 0,25,26
 98 350 98 350 98 729 c 0,27,28
 98 1102 98 1102 306 1332 c 0,29,30
 475 1518 475 1518 780 1518 c 0,31,32
 1101 1518 1101 1518 1245 1312 c 0,33,34
 1324 1199 1324 1199 1356 1030 c 1,0,-1
EndSplineSet
EndChar

StartChar: D
Encoding: 68 68 36
Width: 1479
GlyphClass: 2
Flags: W
HStem: 0 168<372 933.908> 1325 168<372 934.368>
VStem: 182 190<168 1325> 1175 190<445.133 1047.02>
LayerCount: 2
Fore
SplineSet
182 0 m 1,0,-1
 182 1493 l 1,1,-1
 757 1493 l 2,2,3
 1023 1493 1023 1493 1182 1316 c 0,4,5
 1365 1113 1365 1113 1365 747 c 0,6,7
 1365 380 1365 380 1182 177 c 0,8,9
 1022 0 1022 0 757 0 c 2,10,-1
 182 0 l 1,0,-1
372 168 m 1,11,-1
 724 168 l 2,12,13
 945 168 945 168 1062 318 c 0,14,15
 1124 399 1124 399 1147 495 c 0,16,17
 1175 610 1175 610 1175 746 c 0,18,19
 1175 893 1175 893 1147.5 996 c 128,-1,20
 1120 1099 1120 1099 1062 1175 c 0,21,22
 945 1325 945 1325 724 1325 c 2,23,-1
 372 1325 l 1,24,-1
 372 168 l 1,11,-1
EndSplineSet
EndChar

StartChar: E
Encoding: 69 69 37
Width: 1366
GlyphClass: 2
Flags: W
HStem: 0 168<374 1255> 680 168<374 1188> 1325 168<374 1218>
VStem: 184 190<168 680 848 1325>
LayerCount: 2
Fore
SplineSet
374 680 m 1,0,-1
 374 168 l 1,1,-1
 1255 168 l 1,2,-1
 1255 0 l 1,3,-1
 184 0 l 1,4,-1
 184 1493 l 1,5,-1
 1218 1493 l 1,6,-1
 1218 1325 l 1,7,-1
 374 1325 l 1,8,-1
 374 848 l 1,9,-1
 1188 848 l 1,10,-1
 1188 680 l 1,11,-1
 374 680 l 1,0,-1
EndSplineSet
EndChar

StartChar: F
Encoding: 70 70 38
Width: 1251
GlyphClass: 2
Flags: W
HStem: 680 168<374 1087> 1325 168<374 1185>
VStem: 184 190<0 680 848 1325>
LayerCount: 2
Fore
SplineSet
374 680 m 1,0,-1
 374 0 l 1,1,-1
 184 0 l 1,2,-1
 184 1493 l 1,3,-1
 1185 1493 l 1,4,-1
 1185 1325 l 1,5,-1
 374 1325 l 1,6,-1
 374 848 l 1,7,-1
 1087 848 l 1,8,-1
 1087 680 l 1,9,-1
 374 680 l 1,0,-1
EndSplineSet
EndChar

StartChar: G
Encoding: 71 71 39
Width: 1593
GlyphClass: 2
Flags: W
HStem: -47 168<590.883 1011.85> 620 168<829 1284> 1350 168<587.825 1021.3>
VStem: 90 190<468.822 1005.35> 1237 195<1040 1156.41> 1284 168<376.41 620> 1332 120<-8 51.136>
LayerCount: 2
Fore
SplineSet
1452 788 m 1,0,-1
 1452 -8 l 1,1,-1
 1332 -8 l 1,2,-1
 1284 190 l 1,3,4
 1070 -47 1070 -47 774 -47 c 0,5,6
 495 -47 495 -47 308 139 c 0,7,8
 197 250 197 250 142 411 c 0,9,10
 90 565 90 565 90 732 c 0,11,12
 90 1015 90 1015 223 1219 c 0,13,14
 417 1518 417 1518 807 1518 c 0,15,16
 1130 1518 1130 1518 1305 1318 c 0,17,18
 1402 1206 1402 1206 1432 1040 c 1,19,-1
 1237 1040 l 1,20,21
 1210 1165 1210 1165 1120 1243 c 0,22,23
 997 1350 997 1350 804 1350 c 0,24,25
 585 1350 585 1350 446 1208 c 0,26,27
 369 1129 369 1129 328 1016 c 0,28,29
 280 886 280 886 280 742 c 0,30,31
 280 545 280 545 359 387 c 0,32,33
 434 238 434 238 575 172 c 0,34,35
 684 121 684 121 814 121 c 0,36,37
 1024 121 1024 121 1154 254 c 0,38,39
 1284 386 1284 386 1284 580 c 2,40,-1
 1284 620 l 1,41,-1
 829 620 l 1,42,-1
 829 788 l 1,43,-1
 1452 788 l 1,0,-1
EndSplineSet
EndChar

StartChar: H
Encoding: 72 72 40
Width: 1479
GlyphClass: 2
Flags: W
HStem: 680 168<360 1129> 1473 20G<170 360 1129 1319>
VStem: 170 190<0 680 848 1493> 1129 190<0 680 848 1493>
LayerCount: 2
Fore
SplineSet
1129 680 m 1,0,-1
 360 680 l 1,1,-1
 360 0 l 1,2,-1
 170 0 l 1,3,-1
 170 1493 l 1,4,-1
 360 1493 l 1,5,-1
 360 848 l 1,6,-1
 1129 848 l 1,7,-1
 1129 1493 l 1,8,-1
 1319 1493 l 1,9,-1
 1319 0 l 1,10,-1
 1129 0 l 1,11,-1
 1129 680 l 1,0,-1
EndSplineSet
EndChar

StartChar: I
Encoding: 73 73 41
Width: 569
GlyphClass: 2
Flags: W
HStem: 1473 20G<205 398>
VStem: 205 193<0 1493>
LayerCount: 2
Fore
SplineSet
398 1493 m 1,0,-1
 398 0 l 1,1,-1
 205 0 l 1,2,-1
 205 1493 l 1,3,-1
 398 1493 l 1,0,-1
EndSplineSet
EndChar

StartChar: J
Encoding: 74 74 42
Width: 1024
GlyphClass: 2
Flags: W
HStem: -47 160<314.468 591.742> 1473 20G<683 873>
VStem: 35 195<199.658 479> 683 190<211.512 1493>
LayerCount: 2
Fore
SplineSet
683 1493 m 1,0,-1
 873 1493 l 1,1,-1
 873 372 l 2,2,3
 873 183 873 183 761 70 c 0,4,5
 646 -47 646 -47 451 -47 c 0,6,7
 261 -47 261 -47 148 60 c 0,8,9
 35 168 35 168 35 348 c 2,10,-1
 35 479 l 1,11,-1
 230 479 l 1,12,-1
 230 383 l 2,13,14
 230 258 230 258 281 191 c 0,15,16
 342 113 342 113 453 113 c 0,17,18
 576 113 576 113 636 205 c 0,19,20
 683 276 683 276 683 441 c 2,21,-1
 683 1493 l 1,0,-1
EndSplineSet
EndChar

StartChar: K
Encoding: 75 75 43
Width: 1366
GlyphClass: 2
Flags: W
HStem: 1473 20G<162 352 1076.29 1342>
VStem: 162 190<0 523 738 1493>
LayerCount: 2
Fore
SplineSet
352 523 m 1,0,-1
 352 0 l 1,1,-1
 162 0 l 1,2,-1
 162 1493 l 1,3,-1
 352 1493 l 1,4,-1
 352 738 l 1,5,-1
 1096 1493 l 1,6,-1
 1342 1493 l 1,7,-1
 732 885 l 1,8,-1
 1347 0 l 1,9,-1
 1121 0 l 1,10,-1
 596 766 l 1,11,-1
 352 523 l 1,0,-1
EndSplineSet
EndChar

StartChar: L
Encoding: 76 76 44
Width: 1139
GlyphClass: 2
Flags: W
HStem: 0 168<354 1092> 1473 20G<164 354>
VStem: 164 190<168 1493>
LayerCount: 2
Fore
SplineSet
354 1493 m 1,0,-1
 354 168 l 1,1,-1
 1092 168 l 1,2,-1
 1092 0 l 1,3,-1
 164 0 l 1,4,-1
 164 1493 l 1,5,-1
 354 1493 l 1,0,-1
EndSplineSet
EndChar

StartChar: M
Encoding: 77 77 45
Width: 1706
GlyphClass: 2
Flags: W
HStem: 1473 20G<154 423.831 1288.32 1559>
VStem: 154 180<0 1252> 1379 180<0 1252>
LayerCount: 2
Fore
SplineSet
959 0 m 1,0,-1
 759 0 l 1,1,-1
 334 1252 l 1,2,-1
 334 0 l 1,3,-1
 154 0 l 1,4,-1
 154 1493 l 1,5,-1
 417 1493 l 1,6,-1
 861 193 l 1,7,-1
 1295 1493 l 1,8,-1
 1559 1493 l 1,9,-1
 1559 0 l 1,10,-1
 1379 0 l 1,11,-1
 1379 1252 l 1,12,-1
 959 0 l 1,0,-1
EndSplineSet
EndChar

StartChar: N
Encoding: 78 78 46
Width: 1479
GlyphClass: 2
Flags: W
HStem: 1473 20G<156 375.787 1143 1323>
VStem: 156 180<0 1211> 1143 180<273 1493>
LayerCount: 2
Fore
SplineSet
1323 1493 m 1,0,-1
 1323 0 l 1,1,-1
 1109 0 l 1,2,-1
 336 1211 l 1,3,-1
 336 0 l 1,4,-1
 156 0 l 1,5,-1
 156 1493 l 1,6,-1
 363 1493 l 1,7,-1
 1143 273 l 1,8,-1
 1143 1493 l 1,9,-1
 1323 1493 l 1,0,-1
EndSplineSet
EndChar

StartChar: O
Encoding: 79 79 47
Width: 1593
GlyphClass: 2
Flags: W
HStem: -47 168<581.564 1019.11> 1350 168<578.365 1017.22>
VStem: 78 190<465.237 1002.85> 1329 191<466.946 1007.97>
LayerCount: 2
Fore
SplineSet
797 1518 m 0,0,1
 1075 1518 1075 1518 1262 1360 c 0,2,3
 1394 1248 1394 1248 1459 1076 c 0,4,5
 1520 914 1520 914 1520 724 c 0,6,7
 1520 469 1520 469 1397 270 c 0,8,9
 1285 88 1285 88 1092 8 c 0,10,11
 959 -47 959 -47 799 -47 c 0,12,13
 521 -47 521 -47 335 111 c 0,14,15
 205 223 205 223 139 394 c 0,16,17
 78 556 78 556 78 736 c 0,18,19
 78 1002 78 1002 201 1201 c 0,20,21
 314 1385 314 1385 506 1464 c 0,22,23
 639 1518 639 1518 797 1518 c 0,0,1
797 1350 m 0,24,25
 576 1350 576 1350 432 1203 c 0,26,27
 354 1123 354 1123 313 1006 c 0,28,29
 268 877 268 877 268 735 c 0,30,31
 268 533 268 533 350 380 c 0,32,33
 427 239 427 239 569 171 c 0,34,35
 675 121 675 121 798 121 c 0,36,37
 1022 121 1022 121 1165 268 c 0,38,39
 1243 348 1243 348 1284 465 c 0,40,41
 1329 593 1329 593 1329 727 c 0,42,43
 1329 1034 1329 1034 1165 1203 c 0,44,45
 1023 1350 1023 1350 797 1350 c 0,24,25
EndSplineSet
EndChar

StartChar: P
Encoding: 80 80 48
Width: 1366
GlyphClass: 2
Flags: W
HStem: 633 168<376 949.549> 1325 168<376 953.926>
VStem: 186 190<0 633 801 1325> 1064 199<909.147 1219.06>
LayerCount: 2
Fore
SplineSet
376 633 m 1,0,-1
 376 0 l 1,1,-1
 186 0 l 1,2,-1
 186 1493 l 1,3,-1
 803 1493 l 2,4,5
 1000 1493 1000 1493 1116 1401 c 0,6,7
 1263 1286 1263 1286 1263 1056 c 0,8,9
 1263 915 1263 915 1204 823 c 0,10,11
 1083 633 1083 633 844 633 c 2,12,-1
 376 633 l 1,0,-1
376 801 m 1,13,-1
 774 801 l 2,14,15
 918 801 918 801 992 875 c 0,16,17
 1064 948 1064 948 1064 1063 c 0,18,19
 1064 1186 1064 1186 987.5 1255.5 c 128,-1,20
 911 1325 911 1325 774 1325 c 2,21,-1
 376 1325 l 1,22,-1
 376 801 l 1,13,-1
EndSplineSet
EndChar

StartChar: Q
Encoding: 81 81 49
Width: 1593
GlyphClass: 2
Flags: W
HStem: -47 168<581.397 1011.94> 1350 168<578.641 1015.79>
VStem: 78 190<465.639 1002.85> 1330 190<469.766 1005.29>
LayerCount: 2
Fore
SplineSet
1501 -1 m 1,0,-1
 1405 -121 l 1,1,-1
 1189 58 l 1,2,3
 1016 -47 1016 -47 798 -47 c 0,4,5
 521 -47 521 -47 335 111 c 0,6,7
 204 223 204 223 139 394 c 0,8,9
 78 557 78 557 78 736 c 0,10,11
 78 1002 78 1002 201 1201 c 0,12,13
 312 1383 312 1383 506 1463 c 0,14,15
 639 1518 639 1518 799 1518 c 0,16,17
 1077 1518 1077 1518 1262 1360 c 0,18,19
 1393 1248 1393 1248 1459 1076 c 0,20,21
 1520 916 1520 916 1520 739 c 256,22,23
 1520 562 1520 562 1468 417 c 128,-1,24
 1416 272 1416 272 1310 155 c 1,25,-1
 1501 -1 l 1,0,-1
985 420 m 1,26,-1
 1168 271 l 1,27,28
 1330 454 1330 454 1330 737 c 0,29,30
 1330 937 1330 937 1248 1090 c 0,31,32
 1172 1232 1172 1232 1028 1300 c 0,33,34
 921 1350 921 1350 799 1350 c 0,35,36
 576 1350 576 1350 432 1203 c 0,37,38
 354 1123 354 1123 313 1006 c 0,39,40
 268 877 268 877 268 736 c 0,41,42
 268 534 268 534 350 380 c 0,43,44
 426 238 426 238 569 171 c 0,45,46
 675 121 675 121 798 121 c 0,47,48
 920 121 920 121 1044 178 c 1,49,-1
 890 305 l 1,50,-1
 985 420 l 1,26,-1
EndSplineSet
EndChar

StartChar: R
Encoding: 82 82 50
Width: 1479
GlyphClass: 2
Flags: W
HStem: 643 168<380 1036.51> 1325 168<380 1038.66>
VStem: 190 190<0 643 811 1325> 1115 184<94.2539 563.041> 1134 199<904.543 1229.68>
LayerCount: 2
Fore
SplineSet
380 643 m 1,0,-1
 380 0 l 1,1,-1
 190 0 l 1,2,-1
 190 1493 l 1,3,-1
 877 1493 l 2,4,5
 1081 1493 1081 1493 1197 1405 c 0,6,7
 1333 1300 1333 1300 1333 1093 c 0,8,9
 1333 965 1333 965 1278 882.5 c 128,-1,10
 1223 800 1223 800 1096 737 c 1,11,12
 1216 688 1216 688 1255 614 c 128,-1,13
 1294 540 1294 540 1299 348 c 0,14,15
 1304 194 1304 194 1320.5 139 c 128,-1,16
 1337 84 1337 84 1390 48 c 1,17,-1
 1390 0 l 1,18,-1
 1159 0 l 1,19,20
 1115 97 1115 97 1115 243 c 2,21,-1
 1117 377 l 2,22,23
 1117 512 1117 512 1062 575 c 0,24,25
 1003 643 1003 643 871 643 c 2,26,-1
 380 643 l 1,0,-1
380 811 m 1,27,-1
 840 811 l 2,28,29
 990 811 990 811 1057 868 c 0,30,31
 1134 934 1134 934 1134 1068 c 256,32,33
 1134 1202 1134 1202 1057 1268 c 0,34,35
 990 1325 990 1325 840 1325 c 2,36,-1
 380 1325 l 1,37,-1
 380 811 l 1,27,-1
EndSplineSet
EndChar

StartChar: S
Encoding: 83 83 51
Width: 1366
GlyphClass: 2
Flags: W
HStem: -47 168<463.791 942.058> 1358 160<463.657 884.27>
VStem: 98 180<295.941 475> 143 190<983.14 1241.67> 1041 180<1055 1216.32> 1081 191<247.984 513.584>
LayerCount: 2
Fore
SplineSet
1221 1055 m 1,0,-1
 1041 1055 l 1,1,2
 1038 1184 1038 1184 965 1258 c 0,3,4
 866 1358 866 1358 667 1358 c 0,5,6
 515 1358 515 1358 426 1290 c 0,7,8
 333 1219 333 1219 333 1106 c 0,9,10
 333 1020 333 1020 388.5 970.5 c 128,-1,11
 444 921 444 921 580 885 c 2,12,-1
 953 784 l 2,13,14
 1107 743 1107 743 1187 649 c 0,15,16
 1272 549 1272 549 1272 410 c 0,17,18
 1272 279 1272 279 1194 163 c 0,19,20
 1054 -47 1054 -47 689 -47 c 0,21,22
 341 -47 341 -47 185 166 c 0,23,24
 102 281 102 281 98 475 c 1,25,-1
 278 475 l 1,26,27
 278 473 278 473 278 472 c 0,28,29
 278 339 278 339 356 247 c 0,30,31
 462 121 462 121 700 121 c 0,32,33
 884 121 884 121 975 184 c 0,34,35
 1023 218 1023 218 1052 274.5 c 128,-1,36
 1081 331 1081 331 1081 391 c 0,37,38
 1081 479 1081 479 1015 537.5 c 128,-1,39
 949 596 949 596 807 633 c 2,40,-1
 435 730 l 2,41,42
 143 807 143 807 143 1080 c 0,43,44
 143 1276 143 1276 279 1395 c 0,45,46
 418 1518 418 1518 673 1518 c 0,47,48
 999 1518 999 1518 1140 1325 c 0,49,50
 1221 1214 1221 1214 1221 1082 c 2,51,-1
 1221 1055 l 1,0,-1
EndSplineSet
EndChar

StartChar: T
Encoding: 84 84 52
Width: 1251
GlyphClass: 2
Flags: W
HStem: 1325 168<43 535 725 1214>
VStem: 535 190<0 1325>
LayerCount: 2
Fore
SplineSet
725 1325 m 1,0,-1
 725 0 l 1,1,-1
 535 0 l 1,2,-1
 535 1325 l 1,3,-1
 43 1325 l 1,4,-1
 43 1493 l 1,5,-1
 1214 1493 l 1,6,-1
 1214 1325 l 1,7,-1
 725 1325 l 1,0,-1
EndSplineSet
EndChar

StartChar: U
Encoding: 85 85 53
Width: 1479
GlyphClass: 2
Flags: W
HStem: -47 168<528.894 960.856> 1473 20G<174 364 1131 1321>
VStem: 174 190<272.399 1493> 1131 190<274.303 1493>
LayerCount: 2
Fore
SplineSet
1131 1493 m 1,0,-1
 1321 1493 l 1,1,-1
 1321 445 l 2,2,3
 1321 206 1321 206 1146 72 c 0,4,5
 990 -47 990 -47 745 -47 c 0,6,7
 499 -47 499 -47 344 72 c 0,8,9
 174 202 174 202 174 445 c 2,10,-1
 174 1493 l 1,11,-1
 364 1493 l 1,12,-1
 364 445 l 2,13,14
 364 281 364 281 473 199 c 0,15,16
 579 121 579 121 745 121 c 256,17,18
 911 121 911 121 1017 199 c 0,19,20
 1131 284 1131 284 1131 445 c 2,21,-1
 1131 1493 l 1,0,-1
EndSplineSet
EndChar

StartChar: V
Encoding: 86 86 54
Width: 1366
GlyphClass: 2
Flags: W
HStem: 1473 20G<61 272.941 1111.47 1321>
VStem: 1118 203<1290 1493>
LayerCount: 2
Fore
SplineSet
803 0 m 1,0,-1
 597 0 l 1,1,-1
 61 1493 l 1,2,-1
 266 1493 l 1,3,-1
 705 228 l 1,4,-1
 1118 1493 l 1,5,-1
 1321 1493 l 1,6,-1
 803 0 l 1,0,-1
EndSplineSet
EndChar

StartChar: W
Encoding: 87 87 55
Width: 1933
GlyphClass: 2
Flags: W
HStem: 1473 20G<45 262.62 864.521 1081.59 1685.46 1903>
VStem: 45 213<1280 1493> 1690 213<1280 1493>
LayerCount: 2
Fore
SplineSet
1524 0 m 1,0,-1
 1314 0 l 1,1,-1
 970 1227 l 1,2,-1
 636 0 l 1,3,-1
 427 0 l 1,4,-1
 45 1493 l 1,5,-1
 258 1493 l 1,6,-1
 538 281 l 1,7,-1
 870 1493 l 1,8,-1
 1076 1493 l 1,9,-1
 1415 281 l 1,10,-1
 1690 1493 l 1,11,-1
 1903 1493 l 1,12,-1
 1524 0 l 1,0,-1
EndSplineSet
EndChar

StartChar: X
Encoding: 88 88 56
Width: 1366
GlyphClass: 2
Flags: W
HStem: 1473 20G<78 322.072 1063.86 1305>
LayerCount: 2
Fore
SplineSet
800 766 m 1,0,-1
 1329 0 l 1,1,-1
 1093 0 l 1,2,-1
 687 623 l 1,3,-1
 276 0 l 1,4,-1
 45 0 l 1,5,-1
 574 766 l 1,6,-1
 78 1493 l 1,7,-1
 309 1493 l 1,8,-1
 692 907 l 1,9,-1
 1077 1493 l 1,10,-1
 1305 1493 l 1,11,-1
 800 766 l 1,0,-1
EndSplineSet
EndChar

StartChar: Y
Encoding: 89 89 57
Width: 1366
GlyphClass: 2
Flags: W
HStem: 1473 20G<27 273.105 1113.34 1353>
VStem: 602 190<0 585>
LayerCount: 2
Fore
SplineSet
792 585 m 1,0,-1
 792 0 l 1,1,-1
 602 0 l 1,2,-1
 602 585 l 1,3,-1
 27 1493 l 1,4,-1
 261 1493 l 1,5,-1
 701 766 l 1,6,-1
 1125 1493 l 1,7,-1
 1353 1493 l 1,8,-1
 792 585 l 1,0,-1
EndSplineSet
EndChar

StartChar: Z
Encoding: 90 90 58
Width: 1251
GlyphClass: 2
Flags: W
HStem: 0 168<296 1194> 1325 168<114 954>
LayerCount: 2
Fore
SplineSet
1190 1493 m 1,0,-1
 1190 1321 l 1,1,-1
 296 168 l 1,2,-1
 1194 168 l 1,3,-1
 1194 0 l 1,4,-1
 57 0 l 1,5,-1
 57 168 l 1,6,-1
 954 1325 l 1,7,-1
 114 1325 l 1,8,-1
 114 1493 l 1,9,-1
 1190 1493 l 1,0,-1
EndSplineSet
EndChar

StartChar: bracketleft
Encoding: 91 91 59
Width: 569
GlyphClass: 2
Flags: W
HStem: -434 147<301 512> 1346 147<301 512>
VStem: 131 381<-434 -287 1346 1493> 131 170<-287 1346>
LayerCount: 2
Fore
SplineSet
512 1493 m 1,0,-1
 512 1346 l 1,1,-1
 301 1346 l 1,2,-1
 301 -287 l 1,3,-1
 512 -287 l 1,4,-1
 512 -434 l 1,5,-1
 131 -434 l 1,6,-1
 131 1493 l 1,7,-1
 512 1493 l 1,0,-1
EndSplineSet
EndChar

StartChar: backslash
Encoding: 92 92 60
Width: 569
GlyphClass: 2
Flags: W
HStem: 1473 20G<-16 103.323>
VStem: -16 113<1380 1493> 469 113<-41 72>
LayerCount: 2
Fore
SplineSet
97 1493 m 1,0,-1
 582 -41 l 1,1,-1
 469 -41 l 1,2,-1
 -16 1493 l 1,3,-1
 97 1493 l 1,0,-1
EndSplineSet
EndChar

StartChar: bracketright
Encoding: 93 93 61
Width: 569
GlyphClass: 2
Flags: W
HStem: -434 147<47 258> 1346 147<47 258>
VStem: 47 381<-434 -287 1346 1493> 258 170<-287 1346>
LayerCount: 2
Fore
SplineSet
47 -434 m 1,0,-1
 47 -287 l 1,1,-1
 258 -287 l 1,2,-1
 258 1346 l 1,3,-1
 47 1346 l 1,4,-1
 47 1493 l 1,5,-1
 428 1493 l 1,6,-1
 428 -434 l 1,7,-1
 47 -434 l 1,0,-1
EndSplineSet
EndChar

StartChar: asciicircum
Encoding: 94 94 62
Width: 961
GlyphClass: 2
Flags: W
LayerCount: 2
Fore
SplineSet
403 1452 m 1,0,-1
 554 1452 l 1,1,-1
 870 674 l 1,2,-1
 728 674 l 1,3,-1
 478 1289 l 1,4,-1
 231 674 l 1,5,-1
 90 674 l 1,6,-1
 403 1452 l 1,0,-1
EndSplineSet
EndChar

StartChar: underscore
Encoding: 95 95 63
Width: 1139
GlyphClass: 2
Flags: W
HStem: -360 102<-45 1184>
LayerCount: 2
Fore
SplineSet
1184 -258 m 1,0,-1
 1184 -360 l 1,1,-1
 -45 -360 l 1,2,-1
 -45 -258 l 1,3,-1
 1184 -258 l 1,0,-1
EndSplineSet
EndChar

StartChar: grave
Encoding: 96 96 64
Width: 682
GlyphClass: 2
Flags: W
HStem: 1212 304
VStem: 45 428
LayerCount: 2
Fore
SplineSet
276 1516 m 1,0,-1
 473 1212 l 1,1,-1
 350 1212 l 1,2,-1
 45 1516 l 1,3,-1
 276 1516 l 1,0,-1
EndSplineSet
EndChar

StartChar: a
Encoding: 97 97 65
Width: 1139
GlyphClass: 2
Flags: W
HStem: -47 143<328.898 641.712 975.428 1094.55> 946 158<379.755 741.193>
VStem: 86 178<158.119 390.017> 134 172<756 874.436> 797 170<222.531 530 662.304 892.523>
LayerCount: 2
Fore
SplineSet
1096 101 m 1,0,-1
 1096 -28 l 1,1,2
 1025 -47 1025 -47 980 -47 c 0,3,4
 870 -47 870 -47 829 22 c 0,5,6
 809 57 809 57 803 111 c 1,7,8
 712 27 712 27 626 -10 c 128,-1,9
 540 -47 540 -47 438 -47 c 0,10,11
 274 -47 274 -47 177 41 c 0,12,13
 86 124 86 124 86 271 c 0,14,15
 86 479 86 479 276 558 c 0,16,17
 324 578 324 578 380.5 588.5 c 128,-1,18
 437 599 437 599 619 623 c 0,19,20
 721 636 721 636 759 661.5 c 128,-1,21
 797 687 797 687 797 741 c 2,22,-1
 797 786 l 2,23,24
 797 946 797 946 556 946 c 0,25,26
 437 946 437 946 376.5 900 c 128,-1,27
 316 854 316 854 306 756 c 1,28,-1
 134 756 l 1,29,30
 140 903 140 903 207 978 c 0,31,32
 320 1104 320 1104 563 1104 c 0,33,34
 761 1104 761 1104 864 1029.5 c 128,-1,35
 967 955 967 955 967 810 c 2,36,-1
 967 181 l 2,37,38
 967 96 967 96 1059 96 c 0,39,40
 1074 96 1074 96 1096 101 c 1,0,-1
797 530 m 1,41,42
 752 510 752 510 709.5 500.5 c 128,-1,43
 667 491 667 491 522 470 c 0,44,45
 389 451 389 451 329 409 c 0,46,47
 264 362 264 362 264 274 c 0,48,49
 264 193 264 193 320 147.5 c 128,-1,50
 376 102 376 102 476 102 c 0,51,52
 625 102 625 102 730 199 c 0,53,54
 767 234 767 234 782 264.5 c 128,-1,55
 797 295 797 295 797 338 c 2,56,-1
 797 530 l 1,41,42
EndSplineSet
EndChar

StartChar: b
Encoding: 98 98 66
Width: 1139
GlyphClass: 2
Flags: W
HStem: -47 160<429.87 737.625> 944 160<431.132 735.665> 1473 20G<111 281>
VStem: 111 170<291.915 765.475 928 1493> 111 154<0 138> 894 178<298.301 758.188>
LayerCount: 2
Fore
SplineSet
111 1493 m 1,0,-1
 281 1493 l 1,1,-1
 281 928 l 1,2,3
 398 1104 398 1104 612 1104 c 0,4,5
 741 1104 741 1104 847 1042 c 0,6,7
 968 970 968 970 1025 822 c 0,8,9
 1072 699 1072 699 1072 540 c 0,10,11
 1072 280 1072 280 948 117 c 0,12,13
 888 39 888 39 798.5 -4 c 128,-1,14
 709 -47 709 -47 605 -47 c 0,15,16
 382 -47 382 -47 265 138 c 1,17,-1
 265 0 l 1,18,-1
 111 0 l 1,19,-1
 111 1493 l 1,0,-1
581 944 m 0,20,21
 433 944 433 944 354 819 c 0,22,23
 281 703 281 703 281 529 c 256,24,25
 281 355 281 355 354 238 c 0,26,27
 433 113 433 113 581 113 c 0,28,29
 732 113 732 113 817 238 c 0,30,31
 894 353 894 353 894 523 c 0,32,33
 894 706 894 706 817 819 c 0,34,35
 730 944 730 944 581 944 c 0,20,21
EndSplineSet
EndChar

StartChar: c
Encoding: 99 99 67
Width: 1024
GlyphClass: 2
Flags: W
HStem: -47 158<387.005 690.473> 946 158<386.071 692.444>
VStem: 63 178<282.523 769.106> 804 172<234 369 713 822.184>
LayerCount: 2
Fore
SplineSet
964 713 m 1,0,-1
 792 713 l 1,1,2
 780 808 780 808 730 867 c 0,3,4
 662 946 662 946 539 946 c 0,5,6
 406 946 406 946 331 848 c 0,7,8
 241 732 241 732 241 518 c 0,9,10
 241 324 241 324 325 214 c 0,11,12
 404 111 404 111 542 111 c 0,13,14
 761 111 761 111 804 369 c 1,15,-1
 976 369 l 1,16,17
 965 222 965 222 897 123 c 0,18,19
 781 -47 781 -47 538 -47 c 0,20,21
 337 -47 337 -47 215 81 c 0,22,23
 63 238 63 238 63 518 c 0,24,25
 63 788 63 788 197 950 c 0,26,27
 325 1104 325 1104 541 1104 c 0,28,29
 674 1104 674 1104 778 1045 c 0,30,31
 903 974 903 974 944 834 c 0,32,33
 958 785 958 785 964 713 c 1,0,-1
EndSplineSet
EndChar

StartChar: d
Encoding: 100 100 68
Width: 1139
GlyphClass: 2
Flags: W
HStem: -47 160<387.978 695.846> 944 160<391.953 695.18> 1473 20G<844 1014>
VStem: 53 178<298.396 761.473> 844 170<291.628 765.871 939 1493> 862 152<0 141>
LayerCount: 2
Fore
SplineSet
1014 1493 m 1,0,-1
 1014 0 l 1,1,-1
 862 0 l 1,2,-1
 862 141 l 1,3,4
 733 -47 733 -47 520 -47 c 0,5,6
 381 -47 381 -47 270 25 c 0,7,8
 143 107 143 107 89 283 c 0,9,10
 53 398 53 398 53 540 c 0,11,12
 53 812 53 812 193 967 c 0,13,14
 318 1104 318 1104 514 1104 c 0,15,16
 733 1104 733 1104 844 939 c 1,17,-1
 844 1493 l 1,18,-1
 1014 1493 l 1,0,-1
543 944 m 0,19,20
 444 944 444 944 366 881 c 0,21,22
 231 773 231 773 231 529 c 0,23,24
 231 353 231 353 308 238 c 0,25,26
 393 113 393 113 544 113 c 0,27,28
 693 113 693 113 771 238 c 0,29,30
 844 355 844 355 844 523 c 0,31,32
 844 705 844 705 771 819 c 0,33,34
 691 944 691 944 543 944 c 0,19,20
EndSplineSet
EndChar

StartChar: e
Encoding: 101 101 69
Width: 1139
GlyphClass: 2
Flags: W
HStem: -47 158<411.766 735.779> 479 139<265 867> 946 158<411.712 727.647>
VStem: 82 178<274.234 479 618 773.721> 867 184<618 796.368>
LayerCount: 2
Fore
SplineSet
1051 479 m 1,0,-1
 260 479 l 1,1,2
 262 334 262 334 317 250 c 0,3,4
 408 111 408 111 575 111 c 0,5,6
 784 111 784 111 857 326 c 1,7,-1
 1029 326 l 1,8,9
 1005 197 1005 197 928 104 c 0,10,11
 802 -47 802 -47 570 -47 c 0,12,13
 342 -47 342 -47 209 109 c 0,14,15
 82 259 82 259 82 521 c 0,16,17
 82 797 82 797 222 953 c 0,18,19
 358 1104 358 1104 573 1104 c 0,20,21
 749 1104 749 1104 877 1002 c 0,22,23
 974 924 974 924 1012.5 807.5 c 128,-1,24
 1051 691 1051 691 1051 479 c 1,0,-1
867 618 m 1,25,26
 867 697 867 697 842 759 c 0,27,28
 805 848 805 848 734.5 897 c 128,-1,29
 664 946 664 946 571 946 c 0,30,31
 403 946 403 946 318 801 c 0,32,33
 272 723 272 723 265 618 c 1,34,-1
 867 618 l 1,25,26
EndSplineSet
EndChar

StartChar: f
Encoding: 102 102 70
Width: 569
GlyphClass: 2
Flags: W
HStem: 934 139<37 180 350 529> 1349 150<365.971 529>
VStem: 180 170<0 934 1073 1331.13>
LayerCount: 2
Fore
SplineSet
529 1073 m 1,0,-1
 529 934 l 1,1,-1
 350 934 l 1,2,-1
 350 0 l 1,3,-1
 180 0 l 1,4,-1
 180 934 l 1,5,-1
 37 934 l 1,6,-1
 37 1073 l 1,7,-1
 180 1073 l 1,8,-1
 180 1255 l 2,9,10
 180 1370 180 1370 246.5 1434.5 c 128,-1,11
 313 1499 313 1499 432 1499 c 0,12,13
 478 1499 478 1499 529 1489 c 1,14,-1
 529 1347 l 1,15,16
 486 1349 486 1349 470 1349 c 0,17,18
 350 1349 350 1349 350 1241 c 2,19,-1
 350 1073 l 1,20,-1
 529 1073 l 1,0,-1
EndSplineSet
EndChar

StartChar: g
Encoding: 103 103 71
Width: 1139
GlyphClass: 2
Flags: W
HStem: -446 143<352.915 697.484> -48 159<383.244 666.414> 946 158<383.325 677.457> 1053 20G<828 986>
VStem: 72 178<279.324 777.898> 106 175<-234.059 -123> 812 174<-173.713 146 272.802 784.457> 828 158<917 1073>
LayerCount: 2
Fore
SplineSet
828 1073 m 1,0,-1
 986 1073 l 1,1,-1
 986 175 l 2,2,3
 986 -50 986 -50 949 -165 c 0,4,5
 860 -446 860 -446 515 -446 c 0,6,7
 294 -446 294 -446 178 -306 c 0,8,9
 116 -231 116 -231 106 -123 c 1,10,-1
 281 -123 l 1,11,12
 292 -206 292 -206 336 -245 c 0,13,14
 401 -303 401 -303 518 -303 c 0,15,16
 679 -303 679 -303 745.5 -214 c 128,-1,17
 812 -125 812 -125 812 91 c 2,18,-1
 812 146 l 1,19,20
 761 69 761 69 716 32 c 0,21,22
 622 -48 622 -48 500 -48 c 0,23,24
 330 -48 330 -48 207 97 c 0,25,26
 72 255 72 255 72 517 c 0,27,28
 72 798 72 798 217 965 c 0,29,30
 337 1104 337 1104 513 1104 c 0,31,32
 614 1104 614 1104 689 1059.5 c 128,-1,33
 764 1015 764 1015 828 917 c 1,34,-1
 828 1073 l 1,0,-1
528 946 m 0,35,36
 383 946 383 946 314 821 c 0,37,38
 250 705 250 705 250 528 c 0,39,40
 250 352 250 352 314 236 c 0,41,42
 383 111 383 111 528 111 c 0,43,44
 679 111 679 111 749 236 c 0,45,46
 812 349 812 349 812 523 c 0,47,48
 812 710 812 710 749 821 c 0,49,50
 677 946 677 946 528 946 c 0,35,36
EndSplineSet
EndChar

StartChar: h
Encoding: 104 104 72
Width: 1139
GlyphClass: 2
Flags: W
HStem: 954 150<458.161 750.68> 1473 20G<143 313>
VStem: 143 170<0 802.597 926 1493> 825 170<0 881.688>
LayerCount: 2
Fore
SplineSet
143 1493 m 1,0,-1
 313 1493 l 1,1,-1
 313 926 l 1,2,3
 370 1000 370 1000 418 1035 c 0,4,5
 515 1104 515 1104 657 1104 c 0,6,7
 801 1104 801 1104 889 1039 c 0,8,9
 995 960 995 960 995 812 c 2,10,-1
 995 0 l 1,11,-1
 825 0 l 1,12,-1
 825 743 l 2,13,14
 825 854 825 854 756 906 c 0,15,16
 692 954 692 954 605 954 c 0,17,18
 484 954 484 954 402 867 c 0,19,20
 313 771 313 771 313 591 c 2,21,-1
 313 0 l 1,22,-1
 143 0 l 1,23,-1
 143 1493 l 1,0,-1
EndSplineSet
EndChar

StartChar: i
Encoding: 105 105 73
Width: 455
GlyphClass: 2
Flags: W
HStem: 1053 20G<136 306> 1278 215<135 307>
VStem: 136 170<0 1073 1278 1493>
LayerCount: 2
Fore
SplineSet
306 1073 m 1,0,-1
 306 0 l 1,1,-1
 136 0 l 1,2,-1
 136 1073 l 1,3,-1
 306 1073 l 1,0,-1
307 1493 m 1,4,-1
 307 1278 l 1,5,-1
 135 1278 l 1,6,-1
 135 1493 l 1,7,-1
 307 1493 l 1,4,-1
EndSplineSet
EndChar

StartChar: j
Encoding: 106 106 74
Width: 455
GlyphClass: 2
Flags: W
HStem: -446 149<-37 117.435> 1053 20G<143 313> 1278 215<143 313>
VStem: 143 170<-265.535 1073 1278 1493>
LayerCount: 2
Fore
SplineSet
143 1073 m 1,0,-1
 313 1073 l 1,1,-1
 313 -224 l 2,2,3
 313 -333 313 -333 239 -389.5 c 128,-1,4
 165 -446 165 -446 21 -446 c 0,5,6
 -12 -446 -12 -446 -37 -441 c 1,7,-1
 -37 -295 l 1,8,9
 -10 -297 -10 -297 4 -297 c 0,10,11
 83 -297 83 -297 113 -266.5 c 128,-1,12
 143 -236 143 -236 143 -155 c 2,13,-1
 143 1073 l 1,0,-1
313 1493 m 1,14,-1
 313 1278 l 1,15,-1
 143 1278 l 1,16,-1
 143 1493 l 1,17,-1
 313 1493 l 1,14,-1
EndSplineSet
EndChar

StartChar: k
Encoding: 107 107 75
Width: 1024
GlyphClass: 2
Flags: W
HStem: 1053 20G<723.044 964> 1473 20G<119 289>
VStem: 119 170<0 419 618 1493>
LayerCount: 2
Fore
SplineSet
289 1493 m 1,0,-1
 289 618 l 1,1,-1
 743 1073 l 1,2,-1
 964 1073 l 1,3,-1
 589 703 l 1,4,-1
 1028 0 l 1,5,-1
 818 0 l 1,6,-1
 455 582 l 1,7,-1
 289 419 l 1,8,-1
 289 0 l 1,9,-1
 119 0 l 1,10,-1
 119 1493 l 1,11,-1
 289 1493 l 1,0,-1
EndSplineSet
EndChar

StartChar: l
Encoding: 108 108 76
Width: 455
GlyphClass: 2
Flags: W
HStem: 1473 20G<139 311>
VStem: 139 172<0 1493>
LayerCount: 2
Fore
SplineSet
311 1493 m 1,0,-1
 311 0 l 1,1,-1
 139 0 l 1,2,-1
 139 1493 l 1,3,-1
 311 1493 l 1,0,-1
EndSplineSet
EndChar

StartChar: m
Encoding: 109 109 77
Width: 1706
GlyphClass: 2
Flags: W
HStem: 954 150<445.469 702.375 1055.07 1322.27> 1053 20G<144 302>
VStem: 144 172<0 832.594 921 1073> 767 172<0 832.189> 1389 172<0 887.859>
LayerCount: 2
Fore
SplineSet
144 1073 m 1,0,-1
 302 1073 l 1,1,-1
 302 921 l 1,2,3
 359 1004 359 1004 419 1043 c 0,4,5
 510 1104 510 1104 632 1104 c 0,6,7
 737 1104 737 1104 805 1065.5 c 128,-1,8
 873 1027 873 1027 921 940 c 1,9,10
 977 1008 977 1008 1021 1039 c 0,11,12
 1115 1104 1115 1104 1251 1104 c 0,13,14
 1401 1104 1401 1104 1481 1027 c 128,-1,15
 1561 950 1561 950 1561 804 c 2,16,-1
 1561 0 l 1,17,-1
 1389 0 l 1,18,-1
 1389 739 l 2,19,20
 1389 849 1389 849 1332 902 c 0,21,22
 1275 954 1275 954 1190 954 c 0,23,24
 1085 954 1085 954 1012 870 c 0,25,26
 939 788 939 788 939 674 c 2,27,-1
 939 0 l 1,28,-1
 767 0 l 1,29,-1
 767 739 l 2,30,31
 767 849 767 849 711 902 c 0,32,33
 655 954 655 954 568 954 c 0,34,35
 462 954 462 954 389 870 c 0,36,37
 316 788 316 788 316 674 c 2,38,-1
 316 0 l 1,39,-1
 144 0 l 1,40,-1
 144 1073 l 1,0,-1
EndSplineSet
EndChar

StartChar: n
Encoding: 110 110 78
Width: 1139
GlyphClass: 2
Flags: W
HStem: 954 150<466.234 751.673> 1053 20G<143 301>
VStem: 143 172<0 802.597 894 1073> 827 170<0 881.469>
LayerCount: 2
Fore
SplineSet
143 1073 m 1,0,-1
 301 1073 l 1,1,-1
 301 894 l 1,2,3
 358 985 358 985 419 1030 c 0,4,5
 518 1104 518 1104 657 1104 c 0,6,7
 795 1104 795 1104 887 1039 c 0,8,9
 997 960 997 960 997 812 c 2,10,-1
 997 0 l 1,11,-1
 827 0 l 1,12,-1
 827 743 l 2,13,14
 827 851 827 851 757 906 c 0,15,16
 695 954 695 954 606 954 c 0,17,18
 486 954 486 954 404 867 c 0,19,20
 315 771 315 771 315 591 c 2,21,-1
 315 0 l 1,22,-1
 143 0 l 1,23,-1
 143 1073 l 1,0,-1
EndSplineSet
EndChar

StartChar: o
Encoding: 111 111 79
Width: 1139
GlyphClass: 2
Flags: W
HStem: -47 158<408.07 710.774> 946 158<407.939 714.232>
VStem: 74 178<288.046 770.232> 867 178<287.019 768.843>
LayerCount: 2
Fore
SplineSet
558 1104 m 0,0,1
 794 1104 794 1104 924 943 c 0,2,3
 1045 792 1045 792 1045 521 c 0,4,5
 1045 267 1045 267 924 114 c 0,6,7
 795 -47 795 -47 559 -47 c 0,8,9
 324 -47 324 -47 196 114 c 0,10,11
 74 267 74 267 74 529 c 256,12,13
 74 791 74 791 196 943 c 0,14,15
 325 1104 325 1104 558 1104 c 0,0,1
559 946 m 0,16,17
 450 946 450 946 369 873 c 0,18,19
 252 768 252 768 252 529 c 0,20,21
 252 358 252 358 316 249 c 0,22,23
 353 185 353 185 418 148 c 128,-1,24
 483 111 483 111 560 111 c 0,25,26
 636 111 636 111 701 148 c 128,-1,27
 766 185 766 185 803 249 c 0,28,29
 867 358 867 358 867 523 c 0,30,31
 867 701 867 701 803 808 c 0,32,33
 767 870 767 870 705 907 c 0,34,35
 639 946 639 946 559 946 c 0,16,17
EndSplineSet
EndChar

StartChar: p
Encoding: 112 112 80
Width: 1139
GlyphClass: 2
Flags: W
HStem: -446 21G<111 283> -47 160<431.444 737.506> 944 160<430.594 735.778> 1053 20G<111 269>
VStem: 111 172<-446 113 291.867 765.427 912 1073> 893 178<300.42 758.766>
LayerCount: 2
Fore
SplineSet
111 -446 m 1,0,-1
 111 1073 l 1,1,-1
 269 1073 l 1,2,-1
 269 912 l 1,3,4
 388 1104 388 1104 611 1104 c 0,5,6
 745 1104 745 1104 855 1032 c 0,7,8
 982 950 982 950 1036 774 c 0,9,10
 1071 658 1071 658 1071 518 c 0,11,12
 1071 245 1071 245 931 91 c 0,13,14
 807 -47 807 -47 612 -47 c 0,15,16
 508 -47 508 -47 429.5 -9 c 128,-1,17
 351 29 351 29 283 113 c 1,18,-1
 283 -446 l 1,19,-1
 111 -446 l 1,0,-1
582 944 m 0,20,21
 434 944 434 944 356 819 c 0,22,23
 283 703 283 703 283 528 c 0,24,25
 283 355 283 355 356 238 c 0,26,27
 434 113 434 113 582 113 c 0,28,29
 733 113 733 113 816 238 c 0,30,31
 893 353 893 353 893 523 c 0,32,33
 893 706 893 706 816 819 c 0,34,35
 731 944 731 944 582 944 c 0,20,21
EndSplineSet
EndChar

StartChar: q
Encoding: 113 113 81
Width: 1139
GlyphClass: 2
Flags: W
HStem: -446 21G<844 1014> -47 160<392.473 695.606> 944 160<392.359 695.239> 1053 20G<862 1014>
VStem: 53 178<299.188 759.807> 844 170<-446 124 291.628 765.871> 862 152<929 1073>
LayerCount: 2
Fore
SplineSet
1014 -446 m 1,0,-1
 844 -446 l 1,1,-1
 844 124 l 1,2,3
 791 46 791 46 731 9 c 0,4,5
 639 -47 639 -47 513 -47 c 0,6,7
 384 -47 384 -47 278 16 c 0,8,9
 156 87 156 87 100 235 c 0,10,11
 53 358 53 358 53 517 c 0,12,13
 53 777 53 777 177 940 c 0,14,15
 237 1019 237 1019 326.5 1061.5 c 128,-1,16
 416 1104 416 1104 521 1104 c 0,17,18
 627 1104 627 1104 715 1059 c 128,-1,19
 803 1014 803 1014 862 929 c 1,20,-1
 862 1073 l 1,21,-1
 1014 1073 l 1,22,-1
 1014 -446 l 1,0,-1
544 944 m 0,23,24
 445 944 445 944 367 881 c 0,25,26
 231 773 231 773 231 528 c 0,27,28
 231 354 231 354 308 238 c 0,29,30
 348 179 348 179 410.5 146 c 128,-1,31
 473 113 473 113 544 113 c 0,32,33
 693 113 693 113 771 238 c 0,34,35
 844 355 844 355 844 523 c 0,36,37
 844 705 844 705 771 819 c 0,38,39
 691 944 691 944 544 944 c 0,23,24
EndSplineSet
EndChar

StartChar: r
Encoding: 114 114 82
Width: 682
GlyphClass: 2
Flags: W
HStem: 924 180<458.328 657> 1053 20G<141 299>
VStem: 141 172<0 780.717 878 1073>
LayerCount: 2
Fore
SplineSet
141 1073 m 1,0,-1
 299 1073 l 1,1,-1
 299 878 l 1,2,3
 435 1104 435 1104 591 1104 c 0,4,5
 620 1104 620 1104 657 1098 c 1,6,-1
 657 924 l 1,7,8
 505 923 505 923 434 871 c 0,9,10
 313 782 313 782 313 557 c 2,11,-1
 313 0 l 1,12,-1
 141 0 l 1,13,-1
 141 1073 l 1,0,-1
EndSplineSet
EndChar

StartChar: s
Encoding: 115 115 83
Width: 1024
GlyphClass: 2
Flags: W
HStem: -48 158<334.359 690.466> 946 158<334.506 658.721>
VStem: 70 180<194.277 319> 96 178<691.92 888.261> 718 180<774 887.004> 762 178<175.959 372.878>
LayerCount: 2
Fore
SplineSet
898 774 m 1,0,-1
 718 774 l 1,1,2
 714 857 714 857 666 896 c 0,3,4
 606 946 606 946 503 946 c 0,5,6
 407 946 407 946 343 908 c 0,7,8
 274 867 274 867 274 785 c 0,9,10
 274 718 274 718 329 684 c 0,11,12
 385 651 385 651 473 630 c 2,13,-1
 637 591 l 2,14,15
 787 556 787 556 854 497 c 0,16,17
 940 421 940 421 940 293 c 0,18,19
 940 133 940 133 811 38 c 0,20,21
 695 -48 695 -48 498 -48 c 0,22,23
 83 -48 83 -48 70 319 c 1,24,-1
 250 319 l 1,25,26
 264 221 264 221 300 182 c 0,27,28
 367 110 367 110 512 110 c 0,29,30
 613 110 613 110 682 149 c 0,31,32
 762 194 762 194 762 279 c 0,33,34
 762 337 762 337 723.5 372 c 128,-1,35
 685 407 685 407 597 428 c 2,36,-1
 437 467 l 2,37,38
 252 512 252 512 179 573 c 0,39,40
 96 643 96 643 96 776 c 0,41,42
 96 931 96 931 214 1019 c 0,43,44
 330 1104 330 1104 508 1104 c 0,45,46
 694 1104 694 1104 795 1018.5 c 128,-1,47
 896 933 896 933 898 774 c 1,0,-1
EndSplineSet
EndChar

StartChar: t
Encoding: 116 116 84
Width: 569
GlyphClass: 2
Flags: W
HStem: -47 150<357.502 519.235> 934 139<29 174 344 521> 1348 20G<174 344>
VStem: 174 170<123.634 934 1073 1368>
LayerCount: 2
Fore
SplineSet
521 1073 m 1,0,-1
 521 934 l 1,1,-1
 344 934 l 1,2,-1
 344 199 l 2,3,4
 344 143 344 143 363.5 123 c 128,-1,5
 383 103 383 103 439 103 c 0,6,7
 487 103 487 103 521 111 c 1,8,-1
 521 -32 l 1,9,10
 442 -47 442 -47 381 -47 c 0,11,12
 281 -47 281 -47 227.5 -3.5 c 128,-1,13
 174 40 174 40 174 123 c 2,14,-1
 174 934 l 1,15,-1
 29 934 l 1,16,-1
 29 1073 l 1,17,-1
 174 1073 l 1,18,-1
 174 1368 l 1,19,-1
 344 1368 l 1,20,-1
 344 1073 l 1,21,-1
 521 1073 l 1,0,-1
EndSplineSet
EndChar

StartChar: u
Encoding: 117 117 85
Width: 1139
GlyphClass: 2
Flags: W
HStem: -48 150<379.207 675.092> 1053 20G<133 303 817 987>
VStem: 133 170<176.646 1073> 817 170<253.986 1073> 833 154<0 149>
LayerCount: 2
Fore
SplineSet
987 0 m 1,0,-1
 833 0 l 1,1,-1
 833 149 l 1,2,3
 760 43 760 43 677 -2.5 c 128,-1,4
 594 -48 594 -48 475 -48 c 0,5,6
 335 -48 335 -48 243 17 c 0,7,8
 133 96 133 96 133 245 c 2,9,-1
 133 1073 l 1,10,-1
 303 1073 l 1,11,-1
 303 314 l 2,12,13
 303 205 303 205 374 150 c 0,14,15
 435 102 435 102 524 102 c 0,16,17
 646 102 646 102 728 190 c 0,18,19
 817 285 817 285 817 466 c 2,20,-1
 817 1073 l 1,21,-1
 987 1073 l 1,22,-1
 987 0 l 1,0,-1
EndSplineSet
EndChar

StartChar: v
Encoding: 118 118 86
Width: 1024
GlyphClass: 2
Flags: W
HStem: 1053 20G<20 219.582 796.003 995>
LayerCount: 2
Fore
SplineSet
583 0 m 1,0,-1
 397 0 l 1,1,-1
 20 1073 l 1,2,-1
 213 1073 l 1,3,-1
 499 204 l 1,4,-1
 803 1073 l 1,5,-1
 995 1073 l 1,6,-1
 583 0 l 1,0,-1
EndSplineSet
EndChar

StartChar: w
Encoding: 119 119 87
Width: 1479
GlyphClass: 2
Flags: W
HStem: 1053 20G<12 205.269 620.09 839.03 1252.87 1450>
VStem: 12 188<885 1073> 1258 192<881 1073>
LayerCount: 2
Fore
SplineSet
1133 0 m 1,0,-1
 940 0 l 1,1,-1
 722 842 l 1,2,-1
 516 0 l 1,3,-1
 323 0 l 1,4,-1
 12 1073 l 1,5,-1
 200 1073 l 1,6,-1
 420 238 l 1,7,-1
 625 1073 l 1,8,-1
 834 1073 l 1,9,-1
 1044 238 l 1,10,-1
 1258 1073 l 1,11,-1
 1450 1073 l 1,12,-1
 1133 0 l 1,0,-1
EndSplineSet
EndChar

StartChar: x
Encoding: 120 120 88
Width: 1024
GlyphClass: 2
Flags: W
HStem: 1053 20G<55 264.247 753.649 959>
LayerCount: 2
Fore
SplineSet
599 554 m 1,0,-1
 969 0 l 1,1,-1
 771 0 l 1,2,-1
 502 412 l 1,3,-1
 229 0 l 1,4,-1
 35 0 l 1,5,-1
 414 547 l 1,6,-1
 55 1073 l 1,7,-1
 251 1073 l 1,8,-1
 508 685 l 1,9,-1
 767 1073 l 1,10,-1
 959 1073 l 1,11,-1
 599 554 l 1,0,-1
EndSplineSet
EndChar

StartChar: y
Encoding: 121 121 89
Width: 1024
GlyphClass: 2
Flags: W
HStem: -446 168<112.578 295.184> 1053 20G<41 231.531 788.871 979>
VStem: 41 184<889 1073>
LayerCount: 2
Fore
SplineSet
796 1073 m 1,0,-1
 979 1073 l 1,1,-1
 501 -225 l 2,2,3
 420 -446 420 -446 225 -446 c 0,4,5
 162 -446 162 -446 111 -419 c 1,6,-1
 111 -266 l 1,7,8
 161 -278 161 -278 201 -278 c 0,9,10
 255 -278 255 -278 286.5 -254.5 c 128,-1,11
 318 -231 318 -231 339 -174 c 2,12,-1
 403 -3 l 1,13,-1
 41 1073 l 1,14,-1
 225 1073 l 1,15,-1
 498 237 l 1,16,-1
 796 1073 l 1,0,-1
EndSplineSet
EndChar

StartChar: z
Encoding: 122 122 90
Width: 1024
GlyphClass: 2
Flags: W
HStem: 0 150<269 935> 923 150<106 704>
LayerCount: 2
Fore
SplineSet
907 1073 m 1,0,-1
 907 921 l 1,1,-1
 269 150 l 1,2,-1
 935 150 l 1,3,-1
 935 0 l 1,4,-1
 63 0 l 1,5,-1
 63 154 l 1,6,-1
 704 923 l 1,7,-1
 106 923 l 1,8,-1
 106 1073 l 1,9,-1
 907 1073 l 1,0,-1
EndSplineSet
EndChar

StartChar: braceleft
Encoding: 123 123 91
Width: 684
GlyphClass: 2
Flags: W
HStem: -434 134<433.34 565> 1359 134<432.823 565>
VStem: 248 158<-271.112 377.043 680.803 1330.11>
LayerCount: 2
Fore
SplineSet
565 1493 m 1,0,-1
 565 1359 l 1,1,-1
 534 1359 l 2,2,3
 531 1359 531 1359 529 1359 c 0,4,5
 458 1359 458 1359 432 1331 c 128,-1,6
 406 1303 406 1303 406 1223 c 2,7,-1
 406 851 l 2,8,9
 406 706 406 706 360 626 c 0,10,11
 324 565 324 565 237 530 c 1,12,13
 404 465 404 465 406 208 c 2,14,-1
 406 -164 l 2,15,16
 406 -244 406 -244 432.5 -272 c 128,-1,17
 459 -300 459 -300 534 -300 c 2,18,-1
 565 -300 l 1,19,-1
 565 -434 l 1,20,-1
 471 -434 l 2,21,22
 366 -434 366 -434 307 -362.5 c 128,-1,23
 248 -291 248 -291 248 -165 c 2,24,-1
 248 177 l 2,25,26
 248 317 248 317 213 379 c 128,-1,27
 178 441 178 441 88 460 c 1,28,-1
 88 600 l 1,29,30
 174 617 174 617 212 679 c 0,31,32
 248 736 248 736 248 882 c 2,33,-1
 248 1224 l 2,34,35
 248 1341 248 1341 296 1408 c 0,36,37
 359 1493 359 1493 471 1493 c 2,38,-1
 565 1493 l 1,0,-1
EndSplineSet
EndChar

StartChar: bar
Encoding: 124 124 92
Width: 532
GlyphClass: 2
Flags: W
HStem: 1473 20G<205 328>
VStem: 205 123<-434 1493>
LayerCount: 2
Fore
SplineSet
205 1493 m 1,0,-1
 328 1493 l 1,1,-1
 328 -434 l 1,2,-1
 205 -434 l 1,3,-1
 205 1493 l 1,0,-1
EndSplineSet
EndChar

StartChar: braceright
Encoding: 125 125 93
Width: 684
GlyphClass: 2
Flags: W
HStem: -434 134<59 194.629> 1359 134<59 195.144>
VStem: 223 158<-271.597 378.166 681.957 1330.11>
LayerCount: 2
Fore
SplineSet
59 -434 m 1,0,-1
 59 -300 l 1,1,-1
 91 -301 l 2,2,3
 168 -301 168 -301 195.5 -272.5 c 128,-1,4
 223 -244 223 -244 223 -164 c 2,5,-1
 223 208 l 2,6,7
 225 465 225 465 392 529 c 1,8,9
 225 595 225 595 223 851 c 2,10,-1
 223 1223 l 2,11,12
 223 1303 223 1303 196 1331 c 128,-1,13
 169 1359 169 1359 91 1359 c 2,14,-1
 59 1359 l 1,15,-1
 59 1493 l 1,16,-1
 156 1493 l 2,17,18
 263 1493 263 1493 322 1422 c 128,-1,19
 381 1351 381 1351 381 1224 c 2,20,-1
 381 882 l 2,21,22
 381 742 381 742 415 680 c 128,-1,23
 449 618 449 618 536 600 c 1,24,-1
 536 459 l 1,25,26
 453 442 453 442 416 380 c 0,27,28
 381 322 381 322 381 177 c 2,29,-1
 381 -165 l 2,30,31
 381 -282 381 -282 333 -349 c 0,32,33
 271 -434 271 -434 156 -434 c 2,34,-1
 59 -434 l 1,0,-1
EndSplineSet
EndChar

StartChar: asciitilde
Encoding: 126 126 94
Width: 1196
GlyphClass: 2
Flags: W
HStem: 549 139<710.969 914.753> 760 137<295.609 482.279>
VStem: 154 108<600 730.565> 933 108<705.433 842>
LayerCount: 2
Fore
SplineSet
932 842 m 1,0,-1
 1040 842 l 1,1,2
 1041 818 1041 818 1041 810 c 0,3,4
 1041 697 1041 697 989 629 c 0,5,6
 928 549 928 549 826 549 c 0,7,8
 743 549 743 549 660 603 c 2,9,-1
 460 730 l 2,10,11
 444 741 444 741 415 750.5 c 128,-1,12
 386 760 386 760 371 760 c 0,13,14
 279 760 279 760 262 600 c 1,15,-1
 154 600 l 1,16,17
 160 707 160 707 188 769 c 0,18,19
 247 897 247 897 375 897 c 0,20,21
 433 897 433 897 486 865 c 2,22,-1
 725 724 l 2,23,24
 785 688 785 688 828 688 c 0,25,26
 933 688 933 688 933 816 c 0,27,28
 933 825 933 825 932 842 c 1,0,-1
EndSplineSet
EndChar

StartChar: exclamdown
Encoding: 161 161 96
Width: 682
GlyphClass: 2
Flags: W
HStem: 860 213<248 420>
VStem: 249 170<-420 407.434 860 1073>
LayerCount: 2
Fore
SplineSet
249 -420 m 1,0,-1
 249 272 l 1,1,-1
 294 729 l 1,2,-1
 374 729 l 1,3,-1
 419 272 l 1,4,-1
 419 -420 l 1,5,-1
 249 -420 l 1,0,-1
248 860 m 1,6,-1
 248 1073 l 1,7,-1
 420 1073 l 1,8,-1
 420 860 l 1,9,-1
 248 860 l 1,6,-1
EndSplineSet
EndChar

StartChar: cent
Encoding: 162 162 97
Width: 1139
GlyphClass: 2
Flags: W
HStem: -46 158<436.053 552 638 762.641> 945 157<440.438 552 638 762.113>
VStem: 106 178<288.138 767.25> 552 86<-246 -42.2325 112 945 1100 1286> 859 172<713 885> 871 172<230.114 369>
LayerCount: 2
Fore
SplineSet
638 947 m 1,0,-1
 638 110 l 1,1,2
 834 129 834 129 871 369 c 1,3,-1
 1043 369 l 1,4,5
 1029 181 1029 181 924 73.5 c 128,-1,6
 819 -34 819 -34 638 -46 c 1,7,-1
 638 -246 l 1,8,-1
 552 -246 l 1,9,-1
 552 -46 l 1,10,11
 419 -34 419 -34 323 32 c 0,12,13
 106 182 106 182 106 517 c 0,14,15
 106 730 106 730 195 879 c 0,16,17
 314 1077 314 1077 552 1102 c 1,18,-1
 552 1286 l 1,19,-1
 638 1286 l 1,20,-1
 638 1103 l 1,21,22
 1000 1079 1000 1079 1031 713 c 1,23,-1
 859 713 l 1,24,25
 832 927 832 927 638 947 c 1,0,-1
552 945 m 1,26,27
 473 930 473 930 419 888 c 0,28,29
 284 783 284 783 284 518 c 0,30,31
 284 345 284 345 354.5 238.5 c 128,-1,32
 425 132 425 132 552 112 c 1,33,-1
 552 945 l 1,26,27
EndSplineSet
EndChar

StartChar: sterling
Encoding: 163 163 98
Width: 1139
GlyphClass: 2
Flags: W
HStem: -48 188<640.183 979.869> 46 158<321.281 591.2> 657 113<53 219 471 749> 1333 160<417.615 753.262>
VStem: 110 191<911.731 1222.97> 328 174<360.622 646.502> 868 180<1018 1209.3>
LayerCount: 2
Fore
SplineSet
749 770 m 1,0,-1
 749 657 l 1,1,-1
 471 657 l 1,2,3
 502 569 502 569 502 511 c 0,4,5
 502 432 502 432 449.5 347.5 c 128,-1,6
 397 263 397 263 261 124 c 1,7,8
 379 204 379 204 509 204 c 0,9,10
 579 204 579 204 678 174 c 0,11,12
 790 140 790 140 839 140 c 0,13,14
 919 140 919 140 1009 203 c 1,15,-1
 1095 68 l 1,16,17
 980 -48 980 -48 826 -48 c 0,18,19
 769 -48 769 -48 713 -34.5 c 128,-1,20
 657 -21 657 -21 527 23 c 0,21,22
 460 46 460 46 393 46 c 0,23,24
 286 46 286 46 170 -29 c 1,25,-1
 71 107 l 1,26,27
 173 194 173 194 226 255 c 0,28,29
 328 375 328 375 328 498 c 0,30,31
 328 576 328 576 278 657 c 1,32,-1
 53 657 l 1,33,-1
 53 770 l 1,34,-1
 219 770 l 1,35,36
 148 887 148 887 129 937 c 128,-1,37
 110 987 110 987 110 1055 c 0,38,39
 110 1249 110 1249 264 1377 c 0,40,41
 404 1493 404 1493 598 1493 c 0,42,43
 750 1493 750 1493 863 1422 c 0,44,45
 960 1361 960 1361 1003 1267 c 128,-1,46
 1046 1173 1046 1173 1048 1018 c 1,47,-1
 868 1018 l 1,48,49
 858 1333 858 1333 588 1333 c 0,50,51
 469 1333 469 1333 385 1266 c 256,52,53
 301 1199 301 1199 301 1072 c 0,54,55
 301 1009 301 1009 316 971.5 c 128,-1,56
 331 934 331 934 422 770 c 1,57,-1
 749 770 l 1,0,-1
EndSplineSet
EndChar

StartChar: yen
Encoding: 165 165 99
Width: 1139
GlyphClass: 2
Flags: W
HStem: 358 104<134 486 666 1015> 621 104<134 443 704 1015>
VStem: 486 180<0 358 462 621>
LayerCount: 2
Fore
SplineSet
1015 725 m 1,0,-1
 1015 621 l 1,1,-1
 666 621 l 1,2,-1
 666 462 l 1,3,-1
 1015 462 l 1,4,-1
 1015 358 l 1,5,-1
 666 358 l 1,6,-1
 666 0 l 1,7,-1
 486 0 l 1,8,-1
 486 358 l 1,9,-1
 134 358 l 1,10,-1
 134 462 l 1,11,-1
 486 462 l 1,12,-1
 486 621 l 1,13,-1
 134 621 l 1,14,-1
 134 725 l 1,15,-1
 443 725 l 1,16,-1
 23 1452 l 1,17,-1
 198 1452 l 1,18,-1
 576 793 l 1,19,-1
 944 1452 l 1,20,-1
 1117 1452 l 1,21,-1
 704 725 l 1,22,-1
 1015 725 l 1,0,-1
EndSplineSet
EndChar

StartChar: section
Encoding: 167 167 100
Width: 1139
GlyphClass: 2
Flags: W
HStem: -436 157<410.11 678.727> 1073 21G<780 951> 1335 158<455.364 711.613>
VStem: 90 162<547.198 795.04> 159 175<-199.898 -29> 215 184<1060.56 1279> 738 184<-220.25 16.0466> 780 171<1073 1264.67> 874 162<301.534 557.682>
LayerCount: 2
Fore
SplineSet
726 217 m 1,0,1
 798 255 798 255 836 309.5 c 128,-1,2
 874 364 874 364 874 427 c 0,3,4
 874 553 874 553 726 654 c 2,5,-1
 397 879 l 1,6,7
 317 827 317 827 284.5 780.5 c 128,-1,8
 252 734 252 734 252 672 c 256,9,10
 252 610 252 610 279 569 c 128,-1,11
 306 528 306 528 386 469 c 2,12,-1
 726 217 l 1,0,1
951 1073 m 1,13,-1
 780 1073 l 1,14,-1
 780 1127 l 2,15,16
 780 1222 780 1222 726 1278 c 0,17,18
 671 1335 671 1335 582 1335 c 0,19,20
 502 1335 502 1335 452 1288 c 0,21,22
 399 1236 399 1236 399 1161 c 0,23,24
 399 1116 399 1116 425 1081 c 128,-1,25
 451 1046 451 1046 516 1004 c 2,26,-1
 815 812 l 2,27,28
 937 733 937 733 986.5 655.5 c 128,-1,29
 1036 578 1036 578 1036 468 c 0,30,31
 1036 233 1036 233 815 149 c 1,32,33
 875 80 875 80 898.5 26.5 c 128,-1,34
 922 -27 922 -27 922 -93 c 0,35,36
 922 -240 922 -240 812 -340 c 0,37,38
 706 -436 706 -436 540 -436 c 0,39,40
 366 -436 366 -436 261 -330 c 0,41,42
 203 -272 203 -272 181 -206.5 c 128,-1,43
 159 -141 159 -141 159 -29 c 1,44,-1
 334 -29 l 1,45,46
 334 -32 334 -32 334 -35 c 0,47,48
 334 -137 334 -137 370 -189 c 0,49,50
 430 -279 430 -279 542 -279 c 0,51,52
 628 -279 628 -279 681 -233 c 0,53,54
 738 -183 738 -183 738 -102 c 0,55,56
 738 0 738 0 626 77 c 2,57,-1
 279 318 l 2,58,59
 177 388 177 388 134 462 c 0,60,61
 90 538 90 538 90 639 c 0,62,63
 90 741 90 741 140.5 813.5 c 128,-1,64
 191 886 191 886 305 946 c 1,65,66
 215 1047 215 1047 215 1154 c 0,67,68
 215 1302 215 1302 333 1402 c 0,69,70
 440 1493 440 1493 593 1493 c 0,71,72
 744 1493 744 1493 845 1399 c 0,73,74
 951 1299 951 1299 951 1130 c 2,75,-1
 951 1073 l 1,13,-1
EndSplineSet
EndChar

StartChar: dieresis
Encoding: 168 168 101
Width: 682
GlyphClass: 2
Flags: W
HStem: 1253 211<61 274 393 606>
VStem: 61 213<1253 1464> 393 213<1253 1464>
LayerCount: 2
Fore
SplineSet
274 1464 m 1,0,-1
 274 1253 l 1,1,-1
 61 1253 l 1,2,-1
 61 1464 l 1,3,-1
 274 1464 l 1,0,-1
606 1464 m 1,4,-1
 606 1253 l 1,5,-1
 393 1253 l 1,6,-1
 393 1464 l 1,7,-1
 606 1464 l 1,4,-1
EndSplineSet
EndChar

StartChar: copyright
Encoding: 169 169 102
Width: 1509
GlyphClass: 2
Flags: W
HStem: -45 127<523.675 992.417> 258 127<636.998 889.191> 1085 127<627.844 893.5> 1393 127<517.11 987.128>
VStem: -27 139<498.34 976.418> 370 141<523.666 946.348> 968 146<895 1006.34> 984 147<496.387 639> 1399 139<493.606 980.025>
LayerCount: 2
Fore
SplineSet
1114 895 m 1,0,-1
 968 895 l 1,1,2
 945 988 945 988 907 1028 c 0,3,4
 853 1085 853 1085 768 1085 c 0,5,6
 653 1085 653 1085 587 999 c 0,7,8
 511 899 511 899 511 733 c 0,9,10
 511 572 511 572 584 478 c 0,11,12
 617 437 617 437 668 411 c 128,-1,13
 719 385 719 385 768 385 c 0,14,15
 854 385 854 385 909 450 c 128,-1,16
 964 515 964 515 984 639 c 1,17,-1
 1131 639 l 1,18,19
 1098 476 1098 476 1046 402 c 0,20,21
 944 258 944 258 767 258 c 0,22,23
 607 258 607 258 502 366 c 0,24,25
 370 501 370 501 370 732 c 0,26,27
 370 962 370 962 497 1098 c 0,28,29
 603 1212 603 1212 773 1212 c 0,30,31
 951 1212 951 1212 1040 1080 c 0,32,33
 1088 1009 1088 1009 1114 895 c 1,0,-1
756 1520 m 0,34,35
 976 1520 976 1520 1164 1405 c 0,36,37
 1353 1289 1353 1289 1453 1093 c 0,38,39
 1538 925 1538 925 1538 739 c 0,40,41
 1538 517 1538 517 1423 329 c 256,42,43
 1308 141 1308 141 1111 41 c 0,44,45
 943 -45 943 -45 746 -45 c 0,46,47
 536 -45 536 -45 347 71 c 0,48,49
 159 186 159 186 59 383 c 0,50,51
 -27 550 -27 550 -27 738 c 0,52,53
 -27 957 -27 957 88 1147 c 0,54,55
 201 1332 201 1332 401 1435 c 0,56,57
 567 1520 567 1520 756 1520 c 0,34,35
756 1393 m 0,58,59
 490 1393 490 1393 301 1201 c 0,60,61
 211 1109 211 1109 161 989 c 0,62,63
 112 868 112 868 112 738 c 0,64,65
 112 553 112 553 207 395 c 0,66,67
 302 238 302 238 464 154 c 0,68,69
 602 82 602 82 748 82 c 0,70,71
 1021 82 1021 82 1210 274 c 256,72,73
 1399 466 1399 466 1399 739 c 0,74,75
 1399 923 1399 923 1305 1080 c 0,76,77
 1212 1236 1212 1236 1048 1322 c 0,78,79
 911 1393 911 1393 756 1393 c 0,58,59
EndSplineSet
EndChar

StartChar: ordfeminine
Encoding: 170 170 103
Width: 758
GlyphClass: 2
Flags: W
HStem: 621 104<88 656> 817 106<218.341 444.779 615.206 681.297> 1413 107<254.5 485.792>
VStem: 76 119<944.42 1096.03> 101 120<1298 1387.72> 498 117<971.917 1163 1247.93 1394.38>
LayerCount: 2
Fore
SplineSet
656 725 m 1,0,-1
 656 621 l 1,1,-1
 88 621 l 1,2,-1
 88 725 l 1,3,-1
 656 725 l 1,0,-1
682 919 m 1,4,-1
 682 830 l 1,5,6
 648 817 648 817 617 817 c 0,7,8
 566 817 566 817 540 837 c 128,-1,9
 514 857 514 857 503 905 c 1,10,11
 406 817 406 817 289 817 c 0,12,13
 190 817 190 817 132 871 c 0,14,15
 76 923 76 923 76 1014 c 0,16,17
 76 1143 76 1143 192 1191 c 0,18,19
 252 1216 252 1216 398 1229 c 0,20,21
 457 1234 457 1234 477.5 1247.5 c 128,-1,22
 498 1261 498 1261 498 1295 c 2,23,-1
 498 1322 l 2,24,25
 498 1413 498 1413 361 1413 c 0,26,27
 292 1413 292 1413 262.5 1388.5 c 128,-1,28
 233 1364 233 1364 221 1298 c 1,29,-1
 101 1298 l 1,30,31
 108 1520 108 1520 364 1520 c 0,32,33
 490 1520 490 1520 552.5 1471.5 c 128,-1,34
 615 1423 615 1423 615 1326 c 2,35,-1
 615 960 l 2,36,37
 615 913 615 913 661 913 c 0,38,39
 671 913 671 913 682 919 c 1,4,-1
498 1163 m 1,40,41
 465 1149 465 1149 342 1131 c 0,42,43
 263 1119 263 1119 229 1093.5 c 128,-1,44
 195 1068 195 1068 195 1020 c 0,45,46
 195 974 195 974 225.5 948.5 c 128,-1,47
 256 923 256 923 312 923 c 0,48,49
 387 923 387 923 442.5 963 c 128,-1,50
 498 1003 498 1003 498 1057 c 2,51,-1
 498 1163 l 1,40,41
EndSplineSet
EndChar

StartChar: guillemotleft
Encoding: 171 171 104
Width: 1139
GlyphClass: 2
Flags: W
HStem: 217 680
LayerCount: 2
Fore
SplineSet
201 466 m 1,0,-1
 201 648 l 1,1,-1
 512 897 l 1,2,-1
 512 726 l 1,3,-1
 295 557 l 1,4,-1
 512 388 l 1,5,-1
 512 217 l 1,6,-1
 201 466 l 1,0,-1
621 466 m 1,7,-1
 621 648 l 1,8,-1
 932 897 l 1,9,-1
 932 726 l 1,10,-1
 715 557 l 1,11,-1
 932 388 l 1,12,-1
 932 217 l 1,13,-1
 621 466 l 1,7,-1
EndSplineSet
EndChar

StartChar: logicalnot
Encoding: 172 172 105
Width: 1196
GlyphClass: 2
Flags: W
HStem: 625 143<82 971>
VStem: 971 143<176 625>
LayerCount: 2
Fore
SplineSet
82 768 m 1,0,-1
 1114 768 l 1,1,-1
 1114 176 l 1,2,-1
 971 176 l 1,3,-1
 971 625 l 1,4,-1
 82 625 l 1,5,-1
 82 768 l 1,0,-1
EndSplineSet
EndChar

StartChar: registered
Encoding: 174 174 106
Width: 1509
GlyphClass: 2
Flags: W
HStem: -45 127<523.675 992.417> 665 130<556 930.022> 1068 130<556 935.864> 1393 127<517.11 987.128>
VStem: -27 139<498.34 976.418> 413 143<287 665 795 1068> 959 146<338.987 631.474> 973 150<824.789 1037.5> 991 161<287 463.219> 1399 139<493.606 980.025>
LayerCount: 2
Fore
SplineSet
556 665 m 1,0,-1
 556 287 l 1,1,-1
 413 287 l 1,2,-1
 413 1198 l 1,3,-1
 835 1198 l 2,4,5
 1123 1198 1123 1198 1123 940 c 0,6,7
 1123 870 1123 870 1100 826.5 c 128,-1,8
 1077 783 1077 783 1013 737 c 1,9,10
 1070 699 1070 699 1085 660 c 0,11,12
 1102 617 1102 617 1105 507 c 0,13,14
 1108 417 1108 417 1116 387.5 c 128,-1,15
 1124 358 1124 358 1152 337 c 1,16,-1
 1152 287 l 1,17,-1
 991 287 l 1,18,19
 959 355 959 355 959 444 c 2,20,-1
 962 526 l 2,21,22
 962 600 962 600 931 632.5 c 128,-1,23
 900 665 900 665 831 665 c 2,24,-1
 556 665 l 1,0,-1
556 795 m 1,25,-1
 821 795 l 2,26,27
 900 795 900 795 936.5 827.5 c 128,-1,28
 973 860 973 860 973 932 c 0,29,30
 973 1003 973 1003 937 1035.5 c 128,-1,31
 901 1068 901 1068 821 1068 c 2,32,-1
 556 1068 l 1,33,-1
 556 795 l 1,25,-1
756 1520 m 0,34,35
 976 1520 976 1520 1164 1405 c 0,36,37
 1353 1289 1353 1289 1453 1093 c 0,38,39
 1538 925 1538 925 1538 739 c 0,40,41
 1538 517 1538 517 1423 329 c 256,42,43
 1308 141 1308 141 1111 41 c 0,44,45
 943 -45 943 -45 746 -45 c 0,46,47
 536 -45 536 -45 347 71 c 0,48,49
 159 186 159 186 59 383 c 0,50,51
 -27 550 -27 550 -27 738 c 0,52,53
 -27 957 -27 957 88 1147 c 0,54,55
 201 1332 201 1332 401 1435 c 0,56,57
 567 1520 567 1520 756 1520 c 0,34,35
756 1393 m 0,58,59
 490 1393 490 1393 301 1201 c 0,60,61
 211 1109 211 1109 161 989 c 0,62,63
 112 868 112 868 112 738 c 0,64,65
 112 553 112 553 207 395 c 0,66,67
 302 238 302 238 464 154 c 0,68,69
 602 82 602 82 748 82 c 0,70,71
 1021 82 1021 82 1210 274 c 256,72,73
 1399 466 1399 466 1399 739 c 0,74,75
 1399 923 1399 923 1305 1080 c 0,76,77
 1212 1236 1212 1236 1048 1322 c 0,78,79
 911 1393 911 1393 756 1393 c 0,58,59
EndSplineSet
EndChar

StartChar: macron
Encoding: 175 175 107
Width: 682
GlyphClass: 2
Flags: W
HStem: 1292 143<57 618>
VStem: 57 561<1292 1435>
LayerCount: 2
Fore
SplineSet
618 1435 m 1,0,-1
 618 1292 l 1,1,-1
 57 1292 l 1,2,-1
 57 1435 l 1,3,-1
 618 1435 l 1,0,-1
EndSplineSet
EndChar

StartChar: degree
Encoding: 176 176 108
Width: 819
GlyphClass: 2
Flags: W
HStem: 784 117<285.848 531.228> 1288 117<284.45 532.011>
VStem: 98 117<972.231 1218.03> 602 117<972.04 1218.26>
LayerCount: 2
Fore
SplineSet
409 1405 m 0,0,1
 537 1405 537 1405 628 1314 c 0,2,3
 719 1224 719 1224 719 1095 c 256,4,5
 719 966 719 966 628 875 c 256,6,7
 537 784 537 784 405 784 c 0,8,9
 280 784 280 784 189 875 c 256,10,11
 98 966 98 966 98 1095 c 0,12,13
 98 1226 98 1226 189 1314 c 0,14,15
 283 1405 283 1405 409 1405 c 0,0,1
409 1288 m 256,16,17
 329 1288 329 1288 272 1232 c 0,18,19
 215 1175 215 1175 215 1095 c 0,20,21
 215 1014 215 1014 272 958 c 0,22,23
 329 901 329 901 406 901 c 0,24,25
 488 901 488 901 545 957.5 c 128,-1,26
 602 1014 602 1014 602 1095 c 0,27,28
 602 1175 602 1175 545.5 1231.5 c 128,-1,29
 489 1288 489 1288 409 1288 c 256,16,17
EndSplineSet
EndChar

StartChar: plusminus
Encoding: 177 177 109
Width: 1196
GlyphClass: 2
Flags: W
HStem: -23 143<102 1093> 709 143<102 526 669 1093>
VStem: 526 143<285 709 852 1276>
LayerCount: 2
Fore
SplineSet
1093 852 m 1,0,-1
 1093 709 l 1,1,-1
 669 709 l 1,2,-1
 669 285 l 1,3,-1
 526 285 l 1,4,-1
 526 709 l 1,5,-1
 102 709 l 1,6,-1
 102 852 l 1,7,-1
 526 852 l 1,8,-1
 526 1276 l 1,9,-1
 669 1276 l 1,10,-1
 669 852 l 1,11,-1
 1093 852 l 1,0,-1
1093 120 m 1,12,-1
 1093 -23 l 1,13,-1
 102 -23 l 1,14,-1
 102 120 l 1,15,-1
 1093 120 l 1,12,-1
EndSplineSet
EndChar

StartChar: acute
Encoding: 180 180 110
Width: 682
GlyphClass: 2
Flags: W
HStem: 1212 304
VStem: 188 428
LayerCount: 2
Fore
SplineSet
385 1516 m 1,0,-1
 616 1516 l 1,1,-1
 311 1212 l 1,2,-1
 188 1212 l 1,3,-1
 385 1516 l 1,0,-1
EndSplineSet
EndChar

StartChar: mu
Encoding: 181 181 111
Width: 1139
GlyphClass: 2
Flags: W
HStem: -451 21G<133 303> -47 143<386.964 665.637 992.502 1112.55> 1053 20G<133 303 815 985>
VStem: 133 170<-451 6 174.572 1073> 815 170<108.344 124 253.986 1073>
LayerCount: 2
Fore
SplineSet
1114 -29 m 1,0,1
 1045 -47 1045 -47 998 -47 c 0,2,3
 828 -47 828 -47 821 124 c 1,4,5
 699 -47 699 -47 488 -47 c 0,6,7
 379 -47 379 -47 303 6 c 1,8,-1
 303 -451 l 1,9,-1
 133 -451 l 1,10,-1
 133 1073 l 1,11,-1
 303 1073 l 1,12,-1
 303 314 l 2,13,14
 303 205 303 205 373 150 c 0,15,16
 434 102 434 102 523 102 c 0,17,18
 644 102 644 102 726 190 c 0,19,20
 815 285 815 285 815 466 c 2,21,-1
 815 1073 l 1,22,-1
 985 1073 l 1,23,-1
 985 180 l 2,24,25
 985 96 985 96 1077 96 c 0,26,27
 1090 96 1090 96 1114 100 c 1,28,-1
 1114 -29 l 1,0,1
EndSplineSet
EndChar

StartChar: paragraph
Encoding: 182 182 112
Width: 1100
GlyphClass: 2
Flags: W
HStem: 1362 131<653 821 952 1069>
VStem: 98 555<786.02 1218.04> 522 131<-362 534.733> 821 131<-362 1362>
LayerCount: 2
Fore
SplineSet
1069 1493 m 1,0,-1
 1069 1362 l 1,1,-1
 952 1362 l 1,2,-1
 952 -362 l 1,3,-1
 821 -362 l 1,4,-1
 821 1362 l 1,5,-1
 653 1362 l 1,6,-1
 653 -362 l 1,7,-1
 522 -363 l 1,8,-1
 522 531 l 1,9,10
 366 539 366 539 265 622 c 0,11,12
 187 686 187 686 143 786 c 0,13,14
 98 888 98 888 98 1002 c 0,15,16
 98 1214 98 1214 233 1355 c 0,17,18
 365 1493 365 1493 556 1493 c 2,19,-1
 1069 1493 l 1,0,-1
EndSplineSet
EndChar

StartChar: periodcentered
Encoding: 183 183 113
Width: 569
GlyphClass: 2
Flags: W
HStem: 466 213<225 438>
VStem: 225 213<466 679>
LayerCount: 2
Fore
SplineSet
438 679 m 1,0,-1
 438 466 l 1,1,-1
 225 466 l 1,2,-1
 225 679 l 1,3,-1
 438 679 l 1,0,-1
EndSplineSet
EndChar

StartChar: cedilla
Encoding: 184 184 114
Width: 682
GlyphClass: 2
Flags: W
HStem: -438 84<178.605 408.458> -186 76<324.5 464.358>
VStem: 434 154<-332.028 -193.436>
LayerCount: 2
Fore
SplineSet
337 0 m 1,0,-1
 417 0 l 1,1,-1
 369 -114 l 1,2,3
 402 -110 402 -110 425 -110 c 0,4,5
 503 -110 503 -110 545.5 -145.5 c 128,-1,6
 588 -181 588 -181 588 -247 c 0,7,8
 588 -336 588 -336 523 -386 c 0,9,10
 456 -438 456 -438 336 -438 c 0,11,12
 276 -438 276 -438 226 -424.5 c 128,-1,13
 176 -411 176 -411 80 -369 c 1,14,-1
 123 -286 l 1,15,-1
 141 -295 l 2,16,17
 257 -354 257 -354 324 -354 c 0,18,19
 371 -354 371 -354 402.5 -328 c 128,-1,20
 434 -302 434 -302 434 -262 c 0,21,22
 434 -186 434 -186 340 -186 c 0,23,24
 309 -186 309 -186 276 -201 c 1,25,-1
 253 -188 l 1,26,-1
 337 0 l 1,0,-1
EndSplineSet
EndChar

StartChar: ordmasculine
Encoding: 186 186 115
Width: 748
GlyphClass: 2
Flags: W
HStem: 621 104<105 644> 817 106<262.904 480.721> 1414 106<262.985 483.525>
VStem: 82 119<990.18 1347.1> 545 119<991.396 1348.02>
LayerCount: 2
Fore
SplineSet
644 725 m 1,0,-1
 644 621 l 1,1,-1
 105 621 l 1,2,-1
 105 725 l 1,3,-1
 644 725 l 1,0,-1
372 1520 m 0,4,5
 514 1520 514 1520 589 1428 c 128,-1,6
 664 1336 664 1336 664 1164 c 0,7,8
 664 1007 664 1007 593 914 c 0,9,10
 518 817 518 817 373 817 c 0,11,12
 234 817 234 817 158 908.5 c 128,-1,13
 82 1000 82 1000 82 1168 c 0,14,15
 82 1330 82 1330 153 1423 c 0,16,17
 228 1520 228 1520 372 1520 c 0,4,5
373 1414 m 0,18,19
 292 1414 292 1414 246.5 1349 c 128,-1,20
 201 1284 201 1284 201 1169 c 0,21,22
 201 1067 201 1067 237 1003 c 0,23,24
 282 923 282 923 373 923 c 0,25,26
 453 923 453 923 499 988 c 128,-1,27
 545 1053 545 1053 545 1165 c 0,28,29
 545 1271 545 1271 509 1334 c 0,30,31
 464 1414 464 1414 373 1414 c 0,18,19
EndSplineSet
EndChar

StartChar: guillemotright
Encoding: 187 187 116
Width: 1139
GlyphClass: 2
Flags: W
HStem: 217 680
LayerCount: 2
Fore
SplineSet
516 648 m 1,0,-1
 516 467 l 1,1,-1
 201 217 l 1,2,-1
 201 388 l 1,3,-1
 422 557 l 1,4,-1
 201 726 l 1,5,-1
 201 897 l 1,6,-1
 516 648 l 1,0,-1
924 648 m 1,7,-1
 924 467 l 1,8,-1
 609 217 l 1,9,-1
 609 388 l 1,10,-1
 830 557 l 1,11,-1
 609 726 l 1,12,-1
 609 897 l 1,13,-1
 924 648 l 1,7,-1
EndSplineSet
EndChar

StartChar: questiondown
Encoding: 191 191 117
Width: 1251
GlyphClass: 2
Flags: W
HStem: -444 160<478.972 808.17> 860 213<564 748>
VStem: 195 184<-190.05 96.7258> 564 184<437.332 666 860 1073> 908 174<-174.562 35>
LayerCount: 2
Fore
SplineSet
564 666 m 1,0,-1
 748 666 l 1,1,-1
 748 554 l 2,2,3
 748 463 748 463 710 403.5 c 128,-1,4
 672 344 672 344 533 220 c 0,5,6
 451 147 451 147 415 83.5 c 128,-1,7
 379 20 379 20 379 -50 c 0,8,9
 379 -156 379 -156 451.5 -220 c 128,-1,10
 524 -284 524 -284 643 -284 c 0,11,12
 811 -284 811 -284 873 -165 c 0,13,14
 908 -97 908 -97 908 35 c 1,15,-1
 1082 35 l 1,16,17
 1082 -444 1082 -444 633 -444 c 0,18,19
 427 -444 427 -444 309 -332 c 0,20,21
 195 -225 195 -225 195 -50 c 0,22,23
 195 52 195 52 240 132 c 128,-1,24
 285 212 285 212 401 317 c 0,25,26
 503 409 503 409 531 452 c 0,27,28
 564 502 564 502 564 570 c 2,29,-1
 564 666 l 1,0,-1
564 860 m 1,30,-1
 564 1073 l 1,31,-1
 748 1073 l 1,32,-1
 748 860 l 1,33,-1
 564 860 l 1,30,-1
EndSplineSet
EndChar

StartChar: Agrave
Encoding: 192 192 118
Width: 1366
GlyphClass: 2
Flags: W
HStem: 449 160<443 918> 1473 20G<560.86 821.019>
LayerCount: 2
Fore
SplineSet
972 449 m 1,0,-1
 395 449 l 1,1,-1
 238 0 l 1,2,-1
 35 0 l 1,3,-1
 568 1493 l 1,4,-1
 814 1493 l 1,5,-1
 1338 0 l 1,6,-1
 1125 0 l 1,7,-1
 972 449 l 1,0,-1
918 609 m 1,8,-1
 688 1288 l 1,9,-1
 443 609 l 1,10,-1
 918 609 l 1,8,-1
621 1923 m 1,11,-1
 818 1620 l 1,12,-1
 695 1620 l 1,13,-1
 390 1923 l 1,14,-1
 621 1923 l 1,11,-1
EndSplineSet
EndChar

StartChar: Aacute
Encoding: 193 193 119
Width: 1366
GlyphClass: 2
Flags: W
HStem: 449 160<443 918> 1473 20G<560.86 821.019>
LayerCount: 2
Fore
SplineSet
972 449 m 1,0,-1
 395 449 l 1,1,-1
 238 0 l 1,2,-1
 35 0 l 1,3,-1
 568 1493 l 1,4,-1
 814 1493 l 1,5,-1
 1338 0 l 1,6,-1
 1125 0 l 1,7,-1
 972 449 l 1,0,-1
918 609 m 1,8,-1
 688 1288 l 1,9,-1
 443 609 l 1,10,-1
 918 609 l 1,8,-1
758 1923 m 1,11,-1
 989 1923 l 1,12,-1
 684 1620 l 1,13,-1
 561 1620 l 1,14,-1
 758 1923 l 1,11,-1
EndSplineSet
EndChar

StartChar: Acircumflex
Encoding: 194 194 120
Width: 1366
GlyphClass: 2
Flags: W
HStem: 449 160<443 918> 1473 20G<560.86 821.019>
LayerCount: 2
Fore
SplineSet
972 449 m 1,0,-1
 395 449 l 1,1,-1
 238 0 l 1,2,-1
 35 0 l 1,3,-1
 568 1493 l 1,4,-1
 814 1493 l 1,5,-1
 1338 0 l 1,6,-1
 1125 0 l 1,7,-1
 972 449 l 1,0,-1
918 609 m 1,8,-1
 688 1288 l 1,9,-1
 443 609 l 1,10,-1
 918 609 l 1,8,-1
589 1925 m 1,11,-1
 783 1925 l 1,12,-1
 980 1618 l 1,13,-1
 851 1618 l 1,14,-1
 686 1814 l 1,15,-1
 524 1618 l 1,16,-1
 392 1618 l 1,17,-1
 589 1925 l 1,11,-1
EndSplineSet
EndChar

StartChar: Atilde
Encoding: 195 195 121
Width: 1366
GlyphClass: 2
Flags: W
HStem: 449 160<443 918> 1473 20G<560.86 821.019> 1664 138<666.731 875.559> 1741 136<494.624 694.007>
LayerCount: 2
Fore
SplineSet
972 449 m 1,0,-1
 395 449 l 1,1,-1
 238 0 l 1,2,-1
 35 0 l 1,3,-1
 568 1493 l 1,4,-1
 814 1493 l 1,5,-1
 1338 0 l 1,6,-1
 1125 0 l 1,7,-1
 972 449 l 1,0,-1
918 609 m 1,8,-1
 688 1288 l 1,9,-1
 443 609 l 1,10,-1
 918 609 l 1,8,-1
890 1877 m 1,11,-1
 1008 1877 l 1,12,13
 978 1664 978 1664 825 1664 c 0,14,15
 782 1664 782 1664 651 1715 c 0,16,17
 583 1741 583 1741 550 1741 c 0,18,19
 504 1741 504 1741 483 1666 c 1,20,-1
 365 1666 l 1,21,22
 382 1767 382 1767 427.5 1822 c 128,-1,23
 473 1877 473 1877 541 1877 c 0,24,25
 588 1877 588 1877 684 1837 c 0,26,27
 770 1802 770 1802 813 1802 c 0,28,29
 866 1802 866 1802 890 1877 c 1,11,-1
EndSplineSet
EndChar

StartChar: Adieresis
Encoding: 196 196 122
Width: 1366
GlyphClass: 2
Flags: W
HStem: 449 160<443 918> 1473 20G<560.86 821.019> 1660 211<414 627 746 959>
VStem: 414 213<1660 1871> 746 213<1660 1871>
LayerCount: 2
Fore
SplineSet
972 449 m 1,0,-1
 395 449 l 1,1,-1
 238 0 l 1,2,-1
 35 0 l 1,3,-1
 568 1493 l 1,4,-1
 814 1493 l 1,5,-1
 1338 0 l 1,6,-1
 1125 0 l 1,7,-1
 972 449 l 1,0,-1
918 609 m 1,8,-1
 688 1288 l 1,9,-1
 443 609 l 1,10,-1
 918 609 l 1,8,-1
627 1871 m 1,11,-1
 627 1660 l 1,12,-1
 414 1660 l 1,13,-1
 414 1871 l 1,14,-1
 627 1871 l 1,11,-1
959 1871 m 1,15,-1
 959 1660 l 1,16,-1
 746 1660 l 1,17,-1
 746 1871 l 1,18,-1
 959 1871 l 1,15,-1
EndSplineSet
EndChar

StartChar: Aring
Encoding: 197 197 123
Width: 1366
GlyphClass: 2
Flags: W
HStem: 449 160<443 918> 1473 20G<560.86 821.019> 1594 89<615.617 756.849> 1863 89<614.894 757.045>
VStem: 506 89<1703.36 1842.56> 777 89<1702.67 1843.6>
LayerCount: 2
Fore
SplineSet
972 449 m 1,0,-1
 395 449 l 1,1,-1
 238 0 l 1,2,-1
 35 0 l 1,3,-1
 568 1493 l 1,4,-1
 814 1493 l 1,5,-1
 1338 0 l 1,6,-1
 1125 0 l 1,7,-1
 972 449 l 1,0,-1
918 609 m 1,8,-1
 688 1288 l 1,9,-1
 443 609 l 1,10,-1
 918 609 l 1,8,-1
686 1952 m 0,11,12
 762 1952 762 1952 814 1899.5 c 128,-1,13
 866 1847 866 1847 866 1771 c 0,14,15
 866 1698 866 1698 813 1646 c 128,-1,16
 760 1594 760 1594 686 1594 c 0,17,18
 611 1594 611 1594 559 1646 c 0,19,20
 506 1699 506 1699 506 1773 c 256,21,22
 506 1847 506 1847 559 1899.5 c 128,-1,23
 612 1952 612 1952 686 1952 c 0,11,12
686 1863 m 0,24,25
 648 1863 648 1863 621.5 1836.5 c 128,-1,26
 595 1810 595 1810 595 1773 c 256,27,28
 595 1736 595 1736 621.5 1709.5 c 128,-1,29
 648 1683 648 1683 686 1683 c 0,30,31
 723 1683 723 1683 750 1709 c 128,-1,32
 777 1735 777 1735 777 1772 c 0,33,34
 777 1811 777 1811 751 1837 c 128,-1,35
 725 1863 725 1863 686 1863 c 0,24,25
EndSplineSet
EndChar

StartChar: AE
Encoding: 198 198 124
Width: 2048
GlyphClass: 3
Flags: W
HStem: 0 168<1149 1946> 438 168<472 959> 680 168<1149 1870> 1325 168<754 959 1149 1909>
VStem: 959 190<168 438 606 680 848 1325>
LayerCount: 2
Fore
SplineSet
959 438 m 1,0,-1
 407 438 l 1,1,-1
 233 0 l 1,2,-1
 23 0 l 1,3,-1
 636 1493 l 1,4,-1
 1909 1493 l 1,5,-1
 1909 1325 l 1,6,-1
 1149 1325 l 1,7,-1
 1149 848 l 1,8,-1
 1870 848 l 1,9,-1
 1870 680 l 1,10,-1
 1149 680 l 1,11,-1
 1149 168 l 1,12,-1
 1946 168 l 1,13,-1
 1946 0 l 1,14,-1
 959 0 l 1,15,-1
 959 438 l 1,0,-1
959 606 m 1,16,-1
 959 1325 l 1,17,-1
 754 1325 l 1,18,-1
 472 606 l 1,19,-1
 959 606 l 1,16,-1
EndSplineSet
EndChar

StartChar: Ccedilla
Encoding: 199 199 125
Width: 1479
GlyphClass: 2
Flags: W
HStem: -438 84<558.783 781.512> -186 76<705.5 886.902> -48 167<776 962.891> 1349 169<554.615 980.068>
VStem: 98 190<445.45 1022.17> 814 154<-332.028 -193.52> 1160 196<1030 1167.01> 1190 196<374.692 545>
LayerCount: 2
Fore
SplineSet
776 -48 m 1,0,-1
 750 -114 l 1,1,2
 781 -110 781 -110 805 -110 c 0,3,4
 968 -110 968 -110 968 -247 c 0,5,6
 968 -336 968 -336 903 -386 c 0,7,8
 836 -438 836 -438 716 -438 c 0,9,10
 657 -438 657 -438 607 -424.5 c 128,-1,11
 557 -411 557 -411 461 -369 c 1,12,-1
 504 -286 l 1,13,-1
 522 -295 l 2,14,15
 594 -331 594 -331 629 -342.5 c 128,-1,16
 664 -354 664 -354 704 -354 c 0,17,18
 751 -354 751 -354 782.5 -328 c 128,-1,19
 814 -302 814 -302 814 -262 c 0,20,21
 814 -186 814 -186 721 -186 c 0,22,23
 690 -186 690 -186 657 -201 c 1,24,-1
 634 -188 l 1,25,-1
 697 -46 l 1,26,27
 620 -35 620 -35 578 -25 c 0,28,29
 371 25 371 25 238 221 c 0,30,31
 98 429 98 429 98 729 c 0,32,33
 98 1102 98 1102 306 1332 c 0,34,35
 475 1518 475 1518 780 1518 c 0,36,37
 1101 1518 1101 1518 1245 1312 c 0,38,39
 1324 1199 1324 1199 1356 1030 c 1,40,-1
 1160 1030 l 1,41,42
 1130 1184 1130 1184 1053 1256 c 0,43,44
 951 1349 951 1349 758 1349 c 0,45,46
 540 1349 540 1349 422 1195 c 0,47,48
 288 1018 288 1018 288 731 c 0,49,50
 288 454 288 454 418 285 c 0,51,52
 476 209 476 209 569 164 c 0,53,54
 663 119 663 119 773 119 c 0,55,56
 894 119 894 119 985.5 169.5 c 128,-1,57
 1077 220 1077 220 1123 312 c 0,58,59
 1166 399 1166 399 1190 545 c 1,60,-1
 1386 545 l 1,61,62
 1319 -46 1319 -46 776 -48 c 1,0,-1
EndSplineSet
EndChar

StartChar: Egrave
Encoding: 200 200 126
Width: 1366
GlyphClass: 2
Flags: W
HStem: 0 168<374 1255> 680 168<374 1188> 1325 168<374 1218>
VStem: 184 190<168 680 848 1325>
LayerCount: 2
Fore
SplineSet
374 680 m 1,0,-1
 374 168 l 1,1,-1
 1255 168 l 1,2,-1
 1255 0 l 1,3,-1
 184 0 l 1,4,-1
 184 1493 l 1,5,-1
 1218 1493 l 1,6,-1
 1218 1325 l 1,7,-1
 374 1325 l 1,8,-1
 374 848 l 1,9,-1
 1188 848 l 1,10,-1
 1188 680 l 1,11,-1
 374 680 l 1,0,-1
654 1923 m 1,12,-1
 852 1620 l 1,13,-1
 728 1620 l 1,14,-1
 424 1923 l 1,15,-1
 654 1923 l 1,12,-1
EndSplineSet
EndChar

StartChar: Eacute
Encoding: 201 201 127
Width: 1366
GlyphClass: 2
Flags: W
HStem: 0 168<374 1255> 680 168<374 1188> 1325 168<374 1218>
VStem: 184 190<168 680 848 1325>
LayerCount: 2
Fore
SplineSet
374 680 m 1,0,-1
 374 168 l 1,1,-1
 1255 168 l 1,2,-1
 1255 0 l 1,3,-1
 184 0 l 1,4,-1
 184 1493 l 1,5,-1
 1218 1493 l 1,6,-1
 1218 1325 l 1,7,-1
 374 1325 l 1,8,-1
 374 848 l 1,9,-1
 1188 848 l 1,10,-1
 1188 680 l 1,11,-1
 374 680 l 1,0,-1
751 1923 m 1,12,-1
 981 1923 l 1,13,-1
 676 1620 l 1,14,-1
 553 1620 l 1,15,-1
 751 1923 l 1,12,-1
EndSplineSet
EndChar

StartChar: Ecircumflex
Encoding: 202 202 128
Width: 1366
GlyphClass: 2
Flags: W
HStem: 0 168<374 1255> 680 168<374 1188> 1325 168<374 1218>
VStem: 184 190<168 680 848 1325>
LayerCount: 2
Fore
SplineSet
374 680 m 1,0,-1
 374 168 l 1,1,-1
 1255 168 l 1,2,-1
 1255 0 l 1,3,-1
 184 0 l 1,4,-1
 184 1493 l 1,5,-1
 1218 1493 l 1,6,-1
 1218 1325 l 1,7,-1
 374 1325 l 1,8,-1
 374 848 l 1,9,-1
 1188 848 l 1,10,-1
 1188 680 l 1,11,-1
 374 680 l 1,0,-1
609 1925 m 1,12,-1
 802 1925 l 1,13,-1
 1000 1618 l 1,14,-1
 870 1618 l 1,15,-1
 705 1814 l 1,16,-1
 543 1618 l 1,17,-1
 412 1618 l 1,18,-1
 609 1925 l 1,12,-1
EndSplineSet
EndChar

StartChar: Edieresis
Encoding: 203 203 129
Width: 1366
GlyphClass: 2
Flags: W
HStem: 0 168<374 1255> 680 168<374 1188> 1325 168<374 1218> 1660 211<432 645 764 977>
VStem: 184 190<168 680 848 1325> 432 213<1660 1871> 764 213<1660 1871>
LayerCount: 2
Fore
SplineSet
374 680 m 1,0,-1
 374 168 l 1,1,-1
 1255 168 l 1,2,-1
 1255 0 l 1,3,-1
 184 0 l 1,4,-1
 184 1493 l 1,5,-1
 1218 1493 l 1,6,-1
 1218 1325 l 1,7,-1
 374 1325 l 1,8,-1
 374 848 l 1,9,-1
 1188 848 l 1,10,-1
 1188 680 l 1,11,-1
 374 680 l 1,0,-1
645 1871 m 1,12,-1
 645 1660 l 1,13,-1
 432 1660 l 1,14,-1
 432 1871 l 1,15,-1
 645 1871 l 1,12,-1
977 1871 m 1,16,-1
 977 1660 l 1,17,-1
 764 1660 l 1,18,-1
 764 1871 l 1,19,-1
 977 1871 l 1,16,-1
EndSplineSet
EndChar

StartChar: Igrave
Encoding: 204 204 130
Width: 569
GlyphClass: 2
Flags: W
HStem: 1473 20G<205 395>
VStem: 205 190<0 1493>
LayerCount: 2
Fore
SplineSet
395 1493 m 1,0,-1
 395 0 l 1,1,-1
 205 0 l 1,2,-1
 205 1493 l 1,3,-1
 395 1493 l 1,0,-1
233 1923 m 1,4,-1
 430 1620 l 1,5,-1
 307 1620 l 1,6,-1
 2 1923 l 1,7,-1
 233 1923 l 1,4,-1
EndSplineSet
EndChar

StartChar: Iacute
Encoding: 205 205 131
Width: 569
GlyphClass: 2
Flags: W
HStem: 1473 20G<204 394>
VStem: 204 190<0 1493>
LayerCount: 2
Fore
SplineSet
394 1493 m 1,0,-1
 394 0 l 1,1,-1
 204 0 l 1,2,-1
 204 1493 l 1,3,-1
 394 1493 l 1,0,-1
342 1923 m 1,4,-1
 573 1923 l 1,5,-1
 268 1620 l 1,6,-1
 145 1620 l 1,7,-1
 342 1923 l 1,4,-1
EndSplineSet
EndChar

StartChar: Icircumflex
Encoding: 206 206 132
Width: 569
GlyphClass: 2
Flags: W
HStem: 1473 20G<205 395>
VStem: 205 190<0 1493>
LayerCount: 2
Fore
SplineSet
395 1493 m 1,0,-1
 395 0 l 1,1,-1
 205 0 l 1,2,-1
 205 1493 l 1,3,-1
 395 1493 l 1,0,-1
195 1925 m 1,4,-1
 388 1925 l 1,5,-1
 586 1618 l 1,6,-1
 456 1618 l 1,7,-1
 291 1814 l 1,8,-1
 129 1618 l 1,9,-1
 -2 1618 l 1,10,-1
 195 1925 l 1,4,-1
EndSplineSet
EndChar

StartChar: Idieresis
Encoding: 207 207 133
Width: 569
GlyphClass: 2
Flags: W
HStem: 1473 20G<204 394> 1647 211<18 231 350 563>
VStem: 18 213<1647 1858> 204 190<0 1493> 350 213<1647 1858>
LayerCount: 2
Fore
SplineSet
394 1493 m 1,0,-1
 394 0 l 1,1,-1
 204 0 l 1,2,-1
 204 1493 l 1,3,-1
 394 1493 l 1,0,-1
231 1858 m 1,4,-1
 231 1647 l 1,5,-1
 18 1647 l 1,6,-1
 18 1858 l 1,7,-1
 231 1858 l 1,4,-1
563 1858 m 1,8,-1
 563 1647 l 1,9,-1
 350 1647 l 1,10,-1
 350 1858 l 1,11,-1
 563 1858 l 1,8,-1
EndSplineSet
EndChar

StartChar: Ntilde
Encoding: 209 209 134
Width: 1479
GlyphClass: 2
Flags: W
HStem: 1473 20G<156 375.787 1143 1323> 1664 138<733.816 942.559> 1741 136<561.624 761.007>
VStem: 156 180<0 1211> 1143 180<273 1493>
LayerCount: 2
Fore
SplineSet
1323 1493 m 1,0,-1
 1323 0 l 1,1,-1
 1107 0 l 1,2,-1
 336 1211 l 1,3,-1
 336 0 l 1,4,-1
 156 0 l 1,5,-1
 156 1493 l 1,6,-1
 363 1493 l 1,7,-1
 1143 273 l 1,8,-1
 1143 1493 l 1,9,-1
 1323 1493 l 1,0,-1
957 1877 m 1,10,-1
 1075 1877 l 1,11,12
 1045 1664 1045 1664 892 1664 c 0,13,14
 849 1664 849 1664 718 1715 c 0,15,16
 650 1741 650 1741 617 1741 c 0,17,18
 571 1741 571 1741 550 1666 c 1,19,-1
 432 1666 l 1,20,21
 449 1767 449 1767 494.5 1822 c 128,-1,22
 540 1877 540 1877 608 1877 c 0,23,24
 656 1877 656 1877 751 1837 c 0,25,26
 837 1802 837 1802 880 1802 c 0,27,28
 933 1802 933 1802 957 1877 c 1,10,-1
EndSplineSet
EndChar

StartChar: Ograve
Encoding: 210 210 135
Width: 1593
GlyphClass: 2
Flags: W
HStem: -47 168<581.564 1019.11> 1350 168<578.365 1017.22>
VStem: 78 190<465.237 1002.85> 1329 191<466.946 1007.97>
LayerCount: 2
Fore
SplineSet
797 1518 m 0,0,1
 1075 1518 1075 1518 1262 1360 c 0,2,3
 1394 1248 1394 1248 1459 1076 c 0,4,5
 1520 914 1520 914 1520 724 c 0,6,7
 1520 469 1520 469 1397 270 c 0,8,9
 1285 88 1285 88 1092 8 c 0,10,11
 959 -47 959 -47 799 -47 c 0,12,13
 521 -47 521 -47 335 111 c 0,14,15
 205 223 205 223 139 394 c 0,16,17
 78 556 78 556 78 736 c 0,18,19
 78 1002 78 1002 201 1201 c 0,20,21
 314 1385 314 1385 506 1464 c 0,22,23
 639 1518 639 1518 797 1518 c 0,0,1
797 1350 m 0,24,25
 576 1350 576 1350 432 1203 c 0,26,27
 354 1123 354 1123 313 1006 c 0,28,29
 268 877 268 877 268 735 c 0,30,31
 268 533 268 533 350 380 c 0,32,33
 427 239 427 239 569 171 c 0,34,35
 675 121 675 121 798 121 c 0,36,37
 1022 121 1022 121 1165 268 c 0,38,39
 1243 348 1243 348 1284 465 c 0,40,41
 1329 593 1329 593 1329 727 c 0,42,43
 1329 1034 1329 1034 1165 1203 c 0,44,45
 1023 1350 1023 1350 797 1350 c 0,24,25
734 1923 m 1,46,-1
 931 1620 l 1,47,-1
 808 1620 l 1,48,-1
 503 1923 l 1,49,-1
 734 1923 l 1,46,-1
EndSplineSet
EndChar

StartChar: Oacute
Encoding: 211 211 136
Width: 1593
GlyphClass: 2
Flags: W
HStem: -47 168<581.564 1019.11> 1350 168<578.365 1017.22>
VStem: 78 190<465.237 1002.85> 1329 191<466.946 1007.97>
LayerCount: 2
Fore
SplineSet
797 1518 m 0,0,1
 1075 1518 1075 1518 1262 1360 c 0,2,3
 1394 1248 1394 1248 1459 1076 c 0,4,5
 1520 914 1520 914 1520 724 c 0,6,7
 1520 469 1520 469 1397 270 c 0,8,9
 1285 88 1285 88 1092 8 c 0,10,11
 959 -47 959 -47 799 -47 c 0,12,13
 521 -47 521 -47 335 111 c 0,14,15
 205 223 205 223 139 394 c 0,16,17
 78 556 78 556 78 736 c 0,18,19
 78 1002 78 1002 201 1201 c 0,20,21
 314 1385 314 1385 506 1464 c 0,22,23
 639 1518 639 1518 797 1518 c 0,0,1
797 1350 m 0,24,25
 576 1350 576 1350 432 1203 c 0,26,27
 354 1123 354 1123 313 1006 c 0,28,29
 268 877 268 877 268 735 c 0,30,31
 268 533 268 533 350 380 c 0,32,33
 427 239 427 239 569 171 c 0,34,35
 675 121 675 121 798 121 c 0,36,37
 1022 121 1022 121 1165 268 c 0,38,39
 1243 348 1243 348 1284 465 c 0,40,41
 1329 593 1329 593 1329 727 c 0,42,43
 1329 1034 1329 1034 1165 1203 c 0,44,45
 1023 1350 1023 1350 797 1350 c 0,24,25
857 1923 m 1,46,-1
 1088 1923 l 1,47,-1
 783 1620 l 1,48,-1
 660 1620 l 1,49,-1
 857 1923 l 1,46,-1
EndSplineSet
EndChar

StartChar: Ocircumflex
Encoding: 212 212 137
Width: 1593
GlyphClass: 2
Flags: W
HStem: -47 168<581.564 1019.11> 1350 168<578.365 1017.22>
VStem: 78 190<465.237 1002.85> 1329 191<466.946 1007.97>
LayerCount: 2
Fore
SplineSet
797 1518 m 0,0,1
 1075 1518 1075 1518 1262 1360 c 0,2,3
 1394 1248 1394 1248 1459 1076 c 0,4,5
 1520 914 1520 914 1520 724 c 0,6,7
 1520 469 1520 469 1397 270 c 0,8,9
 1285 88 1285 88 1092 8 c 0,10,11
 959 -47 959 -47 799 -47 c 0,12,13
 521 -47 521 -47 335 111 c 0,14,15
 205 223 205 223 139 394 c 0,16,17
 78 556 78 556 78 736 c 0,18,19
 78 1002 78 1002 201 1201 c 0,20,21
 314 1385 314 1385 506 1464 c 0,22,23
 639 1518 639 1518 797 1518 c 0,0,1
797 1350 m 0,24,25
 576 1350 576 1350 432 1203 c 0,26,27
 354 1123 354 1123 313 1006 c 0,28,29
 268 877 268 877 268 735 c 0,30,31
 268 533 268 533 350 380 c 0,32,33
 427 239 427 239 569 171 c 0,34,35
 675 121 675 121 798 121 c 0,36,37
 1022 121 1022 121 1165 268 c 0,38,39
 1243 348 1243 348 1284 465 c 0,40,41
 1329 593 1329 593 1329 727 c 0,42,43
 1329 1034 1329 1034 1165 1203 c 0,44,45
 1023 1350 1023 1350 797 1350 c 0,24,25
702 1925 m 1,46,-1
 895 1925 l 1,47,-1
 1093 1618 l 1,48,-1
 963 1618 l 1,49,-1
 798 1814 l 1,50,-1
 637 1618 l 1,51,-1
 505 1618 l 1,52,-1
 702 1925 l 1,46,-1
EndSplineSet
EndChar

StartChar: Otilde
Encoding: 213 213 138
Width: 1593
GlyphClass: 2
Flags: W
HStem: -47 168<581.564 1019.11> 1350 168<578.365 1017.22> 1664 138<785.816 996.811> 1741 136<613.651 813.009>
VStem: 78 190<465.237 1002.85> 1329 191<466.946 1007.97>
LayerCount: 2
Fore
SplineSet
797 1518 m 0,0,1
 1075 1518 1075 1518 1262 1360 c 0,2,3
 1394 1248 1394 1248 1459 1076 c 0,4,5
 1520 914 1520 914 1520 724 c 0,6,7
 1520 469 1520 469 1397 270 c 0,8,9
 1285 88 1285 88 1092 8 c 0,10,11
 959 -47 959 -47 799 -47 c 0,12,13
 521 -47 521 -47 335 111 c 0,14,15
 205 223 205 223 139 394 c 0,16,17
 78 556 78 556 78 736 c 0,18,19
 78 1002 78 1002 201 1201 c 0,20,21
 314 1385 314 1385 506 1464 c 0,22,23
 639 1518 639 1518 797 1518 c 0,0,1
797 1350 m 0,24,25
 576 1350 576 1350 432 1203 c 0,26,27
 354 1123 354 1123 313 1006 c 0,28,29
 268 877 268 877 268 735 c 0,30,31
 268 533 268 533 350 380 c 0,32,33
 427 239 427 239 569 171 c 0,34,35
 675 121 675 121 798 121 c 0,36,37
 1022 121 1022 121 1165 268 c 0,38,39
 1243 348 1243 348 1284 465 c 0,40,41
 1329 593 1329 593 1329 727 c 0,42,43
 1329 1034 1329 1034 1165 1203 c 0,44,45
 1023 1350 1023 1350 797 1350 c 0,24,25
1009 1877 m 1,46,-1
 1127 1877 l 1,47,48
 1097 1664 1097 1664 944 1664 c 0,49,50
 901 1664 901 1664 770 1715 c 0,51,52
 702 1741 702 1741 670 1741 c 0,53,54
 623 1741 623 1741 602 1666 c 1,55,-1
 484 1666 l 1,56,57
 501 1767 501 1767 546.5 1822 c 128,-1,58
 592 1877 592 1877 660 1877 c 0,59,60
 708 1877 708 1877 803 1837 c 0,61,62
 889 1802 889 1802 933 1802 c 0,63,64
 986 1802 986 1802 1009 1877 c 1,46,-1
EndSplineSet
EndChar

StartChar: Odieresis
Encoding: 214 214 139
Width: 1593
GlyphClass: 2
Flags: W
HStem: -47 168<581.564 1019.11> 1350 168<578.365 1017.22> 1660 211<527 740 858 1071>
VStem: 78 190<465.237 1002.85> 527 213<1660 1871> 858 213<1660 1871> 1329 191<466.946 1007.97>
LayerCount: 2
Fore
SplineSet
797 1518 m 0,0,1
 1075 1518 1075 1518 1262 1360 c 0,2,3
 1394 1248 1394 1248 1459 1076 c 0,4,5
 1520 914 1520 914 1520 724 c 0,6,7
 1520 469 1520 469 1397 270 c 0,8,9
 1285 88 1285 88 1092 8 c 0,10,11
 959 -47 959 -47 799 -47 c 0,12,13
 521 -47 521 -47 335 111 c 0,14,15
 205 223 205 223 139 394 c 0,16,17
 78 556 78 556 78 736 c 0,18,19
 78 1002 78 1002 201 1201 c 0,20,21
 314 1385 314 1385 506 1464 c 0,22,23
 639 1518 639 1518 797 1518 c 0,0,1
797 1350 m 0,24,25
 576 1350 576 1350 432 1203 c 0,26,27
 354 1123 354 1123 313 1006 c 0,28,29
 268 877 268 877 268 735 c 0,30,31
 268 533 268 533 350 380 c 0,32,33
 427 239 427 239 569 171 c 0,34,35
 675 121 675 121 798 121 c 0,36,37
 1022 121 1022 121 1165 268 c 0,38,39
 1243 348 1243 348 1284 465 c 0,40,41
 1329 593 1329 593 1329 727 c 0,42,43
 1329 1034 1329 1034 1165 1203 c 0,44,45
 1023 1350 1023 1350 797 1350 c 0,24,25
740 1871 m 1,46,-1
 740 1660 l 1,47,-1
 527 1660 l 1,48,-1
 527 1871 l 1,49,-1
 740 1871 l 1,46,-1
1071 1871 m 1,50,-1
 1071 1660 l 1,51,-1
 858 1660 l 1,52,-1
 858 1871 l 1,53,-1
 1071 1871 l 1,50,-1
EndSplineSet
EndChar

StartChar: Oslash
Encoding: 216 216 140
Width: 1593
GlyphClass: 2
Flags: W
HStem: -47 168<577.766 1012.86> 1350 168<571.326 1005.85>
VStem: 71 190<466.658 1002.95> 1323 190<467.825 999.139>
LayerCount: 2
Fore
SplineSet
227 220 m 1,0,1
 71 439 71 439 71 737 c 0,2,3
 71 1002 71 1002 194 1201 c 0,4,5
 306 1383 306 1383 499 1463 c 0,6,7
 632 1518 632 1518 793 1518 c 0,8,9
 1071 1518 1071 1518 1264 1352 c 1,10,-1
 1442 1546 l 1,11,-1
 1523 1473 l 1,12,-1
 1340 1273 l 1,13,14
 1387 1214 1387 1214 1419 1152 c 0,15,16
 1513 965 1513 965 1513 732 c 0,17,18
 1513 469 1513 469 1390 270 c 0,19,20
 1278 88 1278 88 1085 8 c 0,21,22
 952 -47 952 -47 792 -47 c 0,23,24
 498 -47 498 -47 299 138 c 1,25,-1
 141 -35 l 1,26,-1
 61 39 l 1,27,-1
 227 220 l 1,0,1
356 361 m 1,28,-1
 1142 1219 l 1,29,30
 993 1350 993 1350 791 1350 c 0,31,32
 568 1350 568 1350 425 1202 c 0,33,34
 347 1123 347 1123 306 1006 c 0,35,36
 261 877 261 877 261 737 c 0,37,38
 261 521 261 521 356 361 c 1,28,-1
1213 1135 m 1,39,-1
 422 272 l 1,40,41
 573 121 573 121 793 121 c 0,42,43
 1016 121 1016 121 1160 269 c 0,44,45
 1237 348 1237 348 1278 465 c 0,46,47
 1323 594 1323 594 1323 734 c 0,48,49
 1323 966 1323 966 1213 1135 c 1,39,-1
EndSplineSet
EndChar

StartChar: Ugrave
Encoding: 217 217 141
Width: 1479
GlyphClass: 2
Flags: W
HStem: -47 168<533.097 961.185> 1473 20G<174 364 1131 1321>
VStem: 174 190<274.303 1493> 1131 190<274.303 1493>
LayerCount: 2
Fore
SplineSet
1131 1493 m 1,0,-1
 1321 1493 l 1,1,-1
 1321 445 l 2,2,3
 1321 206 1321 206 1146 72 c 0,4,5
 990 -47 990 -47 747 -47 c 256,6,7
 504 -47 504 -47 348 72 c 0,8,9
 174 206 174 206 174 445 c 2,10,-1
 174 1493 l 1,11,-1
 364 1493 l 1,12,-1
 364 445 l 2,13,14
 364 284 364 284 478 199 c 0,15,16
 583 121 583 121 747 121 c 256,17,18
 911 121 911 121 1017 199 c 0,19,20
 1131 284 1131 284 1131 445 c 2,21,-1
 1131 1493 l 1,0,-1
682 1923 m 1,22,-1
 880 1620 l 1,23,-1
 756 1620 l 1,24,-1
 452 1923 l 1,25,-1
 682 1923 l 1,22,-1
EndSplineSet
EndChar

StartChar: Uacute
Encoding: 218 218 142
Width: 1479
GlyphClass: 2
Flags: W
HStem: -47 168<532.932 960.185> 1473 20G<174 364 1128 1318.04>
VStem: 174 190<274.303 1493> 1130 190<274.303 1493>
LayerCount: 2
Fore
SplineSet
1128 1493 m 1,0,-1
 1318 1493 l 1,1,-1
 1320 445 l 2,2,3
 1320 206 1320 206 1145 72 c 0,4,5
 989 -47 989 -47 746 -47 c 0,6,7
 504 -47 504 -47 348 72 c 0,8,9
 174 206 174 206 174 445 c 2,10,-1
 174 1493 l 1,11,-1
 364 1493 l 1,12,-1
 364 445 l 2,13,14
 364 284 364 284 478 199 c 0,15,16
 583 121 583 121 746 121 c 0,17,18
 910 121 910 121 1016 199 c 0,19,20
 1130 284 1130 284 1130 445 c 2,21,-1
 1128 1493 l 1,0,-1
792 1923 m 1,22,-1
 1023 1923 l 1,23,-1
 718 1620 l 1,24,-1
 595 1620 l 1,25,-1
 792 1923 l 1,22,-1
EndSplineSet
EndChar

StartChar: Ucircumflex
Encoding: 219 219 143
Width: 1479
GlyphClass: 2
Flags: W
HStem: -47 168<533.097 961.185> 1473 20G<174 364 1131 1321>
VStem: 174 190<274.303 1493> 1131 190<274.303 1493>
LayerCount: 2
Fore
SplineSet
1131 1493 m 1,0,-1
 1321 1493 l 1,1,-1
 1321 445 l 2,2,3
 1321 206 1321 206 1146 72 c 0,4,5
 990 -47 990 -47 747 -47 c 256,6,7
 504 -47 504 -47 348 72 c 0,8,9
 174 206 174 206 174 445 c 2,10,-1
 174 1493 l 1,11,-1
 364 1493 l 1,12,-1
 364 445 l 2,13,14
 364 284 364 284 478 199 c 0,15,16
 583 121 583 121 747 121 c 256,17,18
 911 121 911 121 1017 199 c 0,19,20
 1131 284 1131 284 1131 445 c 2,21,-1
 1131 1493 l 1,0,-1
650 1925 m 1,22,-1
 844 1925 l 1,23,-1
 1041 1618 l 1,24,-1
 912 1618 l 1,25,-1
 747 1814 l 1,26,-1
 585 1618 l 1,27,-1
 454 1618 l 1,28,-1
 650 1925 l 1,22,-1
EndSplineSet
EndChar

StartChar: Udieresis
Encoding: 220 220 144
Width: 1479
GlyphClass: 2
Flags: W
HStem: -47 168<533.097 961.185> 1473 20G<174 364 1131 1321> 1660 211<475 688 807 1020>
VStem: 174 190<274.303 1493> 475 213<1660 1871> 807 213<1660 1871> 1131 190<274.303 1493>
LayerCount: 2
Fore
SplineSet
1131 1493 m 1,0,-1
 1321 1493 l 1,1,-1
 1321 445 l 2,2,3
 1321 206 1321 206 1146 72 c 0,4,5
 990 -47 990 -47 747 -47 c 256,6,7
 504 -47 504 -47 348 72 c 0,8,9
 174 206 174 206 174 445 c 2,10,-1
 174 1493 l 1,11,-1
 364 1493 l 1,12,-1
 364 445 l 2,13,14
 364 284 364 284 478 199 c 0,15,16
 583 121 583 121 747 121 c 256,17,18
 911 121 911 121 1017 199 c 0,19,20
 1131 284 1131 284 1131 445 c 2,21,-1
 1131 1493 l 1,0,-1
688 1871 m 1,22,-1
 688 1660 l 1,23,-1
 475 1660 l 1,24,-1
 475 1871 l 1,25,-1
 688 1871 l 1,22,-1
1020 1871 m 1,26,-1
 1020 1660 l 1,27,-1
 807 1660 l 1,28,-1
 807 1871 l 1,29,-1
 1020 1871 l 1,26,-1
EndSplineSet
EndChar

StartChar: Yacute
Encoding: 221 221 145
Width: 1366
GlyphClass: 2
Flags: W
HStem: 1473 20G<27 273.05 1111.34 1351>
VStem: 600 190<0 585>
LayerCount: 2
Fore
SplineSet
790 585 m 1,0,-1
 790 0 l 1,1,-1
 600 0 l 1,2,-1
 600 585 l 1,3,-1
 27 1493 l 1,4,-1
 261 1493 l 1,5,-1
 699 766 l 1,6,-1
 1123 1493 l 1,7,-1
 1351 1493 l 1,8,-1
 790 585 l 1,0,-1
749 1923 m 1,9,-1
 980 1923 l 1,10,-1
 675 1620 l 1,11,-1
 552 1620 l 1,12,-1
 749 1923 l 1,9,-1
EndSplineSet
EndChar

StartChar: germandbls
Encoding: 223 223 146
Width: 1251
GlyphClass: 3
Flags: W
HStem: -41 168<530 800.969> 716 168<555 768.171> 1333 160<420.575 780.615>
VStem: 143 170<0 1233.34> 888 178<983.838 1235.91> 959 178<274.347 599.984>
LayerCount: 2
Fore
SplineSet
555 715 m 1,0,-1
 555 884 l 1,1,2
 674 886 674 886 747 917 c 0,3,4
 888 978 888 978 888 1110 c 0,5,6
 888 1208 888 1208 808.5 1270.5 c 128,-1,7
 729 1333 729 1333 605 1333 c 0,8,9
 472 1333 472 1333 392.5 1270.5 c 128,-1,10
 313 1208 313 1208 313 1103 c 2,11,-1
 313 0 l 1,12,-1
 143 0 l 1,13,-1
 143 1103 l 2,14,15
 143 1288 143 1288 261 1380 c 0,16,17
 405 1493 405 1493 619 1493 c 0,18,19
 817 1493 817 1493 944 1388 c 0,20,21
 1066 1287 1066 1287 1066 1117 c 0,22,23
 1066 1007 1066 1007 1003.5 935 c 128,-1,24
 941 863 941 863 808 820 c 1,25,26
 951 778 951 778 1026 711 c 0,27,28
 1085 657 1085 657 1111 595 c 128,-1,29
 1137 533 1137 533 1137 446 c 0,30,31
 1137 240 1137 240 1018 110 c 0,32,33
 880 -41 880 -41 628 -41 c 0,34,35
 578 -41 578 -41 530 -33 c 1,36,-1
 530 127 l 1,37,-1
 614 127 l 2,38,39
 775 127 775 127 872 222 c 0,40,41
 959 308 959 308 959 437 c 0,42,43
 959 627 959 627 796 690 c 0,44,45
 728 716 728 716 588 716 c 0,46,47
 581 716 581 716 555 715 c 1,0,-1
EndSplineSet
EndChar

StartChar: agrave
Encoding: 224 224 147
Width: 1139
GlyphClass: 2
Flags: W
HStem: -47 143<328.898 641.712 975.428 1094.55> 946 158<379.755 741.193> 1496 20G<281 524.961>
VStem: 86 178<158.119 390.017> 134 172<756 874.436> 797 170<222.531 530 662.304 892.523>
LayerCount: 2
Fore
SplineSet
1096 101 m 1,0,-1
 1096 -28 l 1,1,2
 1025 -47 1025 -47 980 -47 c 0,3,4
 870 -47 870 -47 829 22 c 0,5,6
 809 57 809 57 803 111 c 1,7,8
 712 27 712 27 626 -10 c 128,-1,9
 540 -47 540 -47 438 -47 c 0,10,11
 274 -47 274 -47 177 41 c 0,12,13
 86 124 86 124 86 271 c 0,14,15
 86 479 86 479 276 558 c 0,16,17
 324 578 324 578 380.5 588.5 c 128,-1,18
 437 599 437 599 619 623 c 0,19,20
 721 636 721 636 759 661.5 c 128,-1,21
 797 687 797 687 797 741 c 2,22,-1
 797 786 l 2,23,24
 797 946 797 946 556 946 c 0,25,26
 437 946 437 946 376.5 900 c 128,-1,27
 316 854 316 854 306 756 c 1,28,-1
 134 756 l 1,29,30
 140 903 140 903 207 978 c 0,31,32
 320 1104 320 1104 563 1104 c 0,33,34
 761 1104 761 1104 864 1029.5 c 128,-1,35
 967 955 967 955 967 810 c 2,36,-1
 967 181 l 2,37,38
 967 96 967 96 1059 96 c 0,39,40
 1074 96 1074 96 1096 101 c 1,0,-1
797 530 m 1,41,42
 752 510 752 510 709.5 500.5 c 128,-1,43
 667 491 667 491 522 470 c 0,44,45
 389 451 389 451 329 409 c 0,46,47
 264 362 264 362 264 274 c 0,48,49
 264 193 264 193 320 147.5 c 128,-1,50
 376 102 376 102 476 102 c 0,51,52
 625 102 625 102 730 199 c 0,53,54
 767 234 767 234 782 264.5 c 128,-1,55
 797 295 797 295 797 338 c 2,56,-1
 797 530 l 1,41,42
512 1516 m 1,57,-1
 709 1212 l 1,58,-1
 586 1212 l 1,59,-1
 281 1516 l 1,60,-1
 512 1516 l 1,57,-1
EndSplineSet
EndChar

StartChar: aacute
Encoding: 225 225 148
Width: 1139
GlyphClass: 2
Flags: W
HStem: -47 143<328.898 641.712 975.428 1094.55> 946 158<379.755 741.193> 1496 20G<609.039 853>
VStem: 86 178<158.119 390.017> 134 172<756 874.436> 797 170<222.531 530 662.304 892.523>
LayerCount: 2
Fore
SplineSet
1096 101 m 1,0,-1
 1096 -28 l 1,1,2
 1025 -47 1025 -47 980 -47 c 0,3,4
 870 -47 870 -47 829 22 c 0,5,6
 809 57 809 57 803 111 c 1,7,8
 712 27 712 27 626 -10 c 128,-1,9
 540 -47 540 -47 438 -47 c 0,10,11
 274 -47 274 -47 177 41 c 0,12,13
 86 124 86 124 86 271 c 0,14,15
 86 479 86 479 276 558 c 0,16,17
 324 578 324 578 380.5 588.5 c 128,-1,18
 437 599 437 599 619 623 c 0,19,20
 721 636 721 636 759 661.5 c 128,-1,21
 797 687 797 687 797 741 c 2,22,-1
 797 786 l 2,23,24
 797 946 797 946 556 946 c 0,25,26
 437 946 437 946 376.5 900 c 128,-1,27
 316 854 316 854 306 756 c 1,28,-1
 134 756 l 1,29,30
 140 903 140 903 207 978 c 0,31,32
 320 1104 320 1104 563 1104 c 0,33,34
 761 1104 761 1104 864 1029.5 c 128,-1,35
 967 955 967 955 967 810 c 2,36,-1
 967 181 l 2,37,38
 967 96 967 96 1059 96 c 0,39,40
 1074 96 1074 96 1096 101 c 1,0,-1
797 530 m 1,41,42
 752 510 752 510 709.5 500.5 c 128,-1,43
 667 491 667 491 522 470 c 0,44,45
 389 451 389 451 329 409 c 0,46,47
 264 362 264 362 264 274 c 0,48,49
 264 193 264 193 320 147.5 c 128,-1,50
 376 102 376 102 476 102 c 0,51,52
 625 102 625 102 730 199 c 0,53,54
 767 234 767 234 782 264.5 c 128,-1,55
 797 295 797 295 797 338 c 2,56,-1
 797 530 l 1,41,42
622 1516 m 1,57,-1
 853 1516 l 1,58,-1
 548 1212 l 1,59,-1
 425 1212 l 1,60,-1
 622 1516 l 1,57,-1
EndSplineSet
EndChar

StartChar: acircumflex
Encoding: 226 226 149
Width: 1139
GlyphClass: 2
Flags: W
HStem: -47 143<328.898 641.712 975.428 1094.55> 946 158<379.755 741.193> 1498 20G<453.273 672.792>
VStem: 86 178<158.119 390.017> 134 172<756 874.436> 797 170<222.531 530 662.304 892.523>
LayerCount: 2
Fore
SplineSet
1096 101 m 1,0,-1
 1096 -28 l 1,1,2
 1025 -47 1025 -47 980 -47 c 0,3,4
 870 -47 870 -47 829 22 c 0,5,6
 809 57 809 57 803 111 c 1,7,8
 712 27 712 27 626 -10 c 128,-1,9
 540 -47 540 -47 438 -47 c 0,10,11
 274 -47 274 -47 177 41 c 0,12,13
 86 124 86 124 86 271 c 0,14,15
 86 479 86 479 276 558 c 0,16,17
 324 578 324 578 380.5 588.5 c 128,-1,18
 437 599 437 599 619 623 c 0,19,20
 721 636 721 636 759 661.5 c 128,-1,21
 797 687 797 687 797 741 c 2,22,-1
 797 786 l 2,23,24
 797 946 797 946 556 946 c 0,25,26
 437 946 437 946 376.5 900 c 128,-1,27
 316 854 316 854 306 756 c 1,28,-1
 134 756 l 1,29,30
 140 903 140 903 207 978 c 0,31,32
 320 1104 320 1104 563 1104 c 0,33,34
 761 1104 761 1104 864 1029.5 c 128,-1,35
 967 955 967 955 967 810 c 2,36,-1
 967 181 l 2,37,38
 967 96 967 96 1059 96 c 0,39,40
 1074 96 1074 96 1096 101 c 1,0,-1
797 530 m 1,41,42
 752 510 752 510 709.5 500.5 c 128,-1,43
 667 491 667 491 522 470 c 0,44,45
 389 451 389 451 329 409 c 0,46,47
 264 362 264 362 264 274 c 0,48,49
 264 193 264 193 320 147.5 c 128,-1,50
 376 102 376 102 476 102 c 0,51,52
 625 102 625 102 730 199 c 0,53,54
 767 234 767 234 782 264.5 c 128,-1,55
 797 295 797 295 797 338 c 2,56,-1
 797 530 l 1,41,42
466 1518 m 1,57,-1
 660 1518 l 1,58,-1
 857 1210 l 1,59,-1
 728 1210 l 1,60,-1
 563 1407 l 1,61,-1
 401 1210 l 1,62,-1
 270 1210 l 1,63,-1
 466 1518 l 1,57,-1
EndSplineSet
EndChar

StartChar: atilde
Encoding: 227 227 150
Width: 1139
GlyphClass: 2
Flags: W
HStem: -47 143<328.898 641.712 975.428 1094.55> 946 158<379.755 741.193> 1256 138<543.757 752.559> 1333 136<371.651 573.951>
VStem: 86 178<158.119 390.017> 134 172<756 874.436> 797 170<222.531 530 662.304 892.523>
LayerCount: 2
Fore
SplineSet
1096 101 m 1,0,-1
 1096 -28 l 1,1,2
 1025 -47 1025 -47 980 -47 c 0,3,4
 870 -47 870 -47 829 22 c 0,5,6
 809 57 809 57 803 111 c 1,7,8
 712 27 712 27 626 -10 c 128,-1,9
 540 -47 540 -47 438 -47 c 0,10,11
 274 -47 274 -47 177 41 c 0,12,13
 86 124 86 124 86 271 c 0,14,15
 86 479 86 479 276 558 c 0,16,17
 324 578 324 578 380.5 588.5 c 128,-1,18
 437 599 437 599 619 623 c 0,19,20
 721 636 721 636 759 661.5 c 128,-1,21
 797 687 797 687 797 741 c 2,22,-1
 797 786 l 2,23,24
 797 946 797 946 556 946 c 0,25,26
 437 946 437 946 376.5 900 c 128,-1,27
 316 854 316 854 306 756 c 1,28,-1
 134 756 l 1,29,30
 140 903 140 903 207 978 c 0,31,32
 320 1104 320 1104 563 1104 c 0,33,34
 761 1104 761 1104 864 1029.5 c 128,-1,35
 967 955 967 955 967 810 c 2,36,-1
 967 181 l 2,37,38
 967 96 967 96 1059 96 c 0,39,40
 1074 96 1074 96 1096 101 c 1,0,-1
797 530 m 1,41,42
 752 510 752 510 709.5 500.5 c 128,-1,43
 667 491 667 491 522 470 c 0,44,45
 389 451 389 451 329 409 c 0,46,47
 264 362 264 362 264 274 c 0,48,49
 264 193 264 193 320 147.5 c 128,-1,50
 376 102 376 102 476 102 c 0,51,52
 625 102 625 102 730 199 c 0,53,54
 767 234 767 234 782 264.5 c 128,-1,55
 797 295 797 295 797 338 c 2,56,-1
 797 530 l 1,41,42
767 1469 m 1,57,-1
 885 1469 l 1,58,59
 855 1256 855 1256 702 1256 c 0,60,61
 658 1256 658 1256 528 1307 c 0,62,63
 461 1333 461 1333 428 1333 c 0,64,65
 381 1333 381 1333 360 1258 c 1,66,-1
 242 1258 l 1,67,68
 259 1359 259 1359 304.5 1414 c 128,-1,69
 350 1469 350 1469 418 1469 c 0,70,71
 466 1469 466 1469 561 1430 c 0,72,73
 647 1394 647 1394 690 1394 c 0,74,75
 743 1394 743 1394 767 1469 c 1,57,-1
EndSplineSet
EndChar

StartChar: adieresis
Encoding: 228 228 151
Width: 1139
GlyphClass: 2
Flags: W
HStem: -47 143<328.898 641.712 975.428 1094.55> 946 158<379.755 741.193> 1253 211<287 500 618 831>
VStem: 86 178<158.119 390.017> 134 172<756 874.436> 287 213<1253 1464> 618 213<1253 1464> 797 170<222.531 530 662.304 892.523>
LayerCount: 2
Fore
SplineSet
1096 101 m 1,0,-1
 1096 -28 l 1,1,2
 1025 -47 1025 -47 980 -47 c 0,3,4
 870 -47 870 -47 829 22 c 0,5,6
 809 57 809 57 803 111 c 1,7,8
 712 27 712 27 626 -10 c 128,-1,9
 540 -47 540 -47 438 -47 c 0,10,11
 274 -47 274 -47 177 41 c 0,12,13
 86 124 86 124 86 271 c 0,14,15
 86 479 86 479 276 558 c 0,16,17
 324 578 324 578 380.5 588.5 c 128,-1,18
 437 599 437 599 619 623 c 0,19,20
 721 636 721 636 759 661.5 c 128,-1,21
 797 687 797 687 797 741 c 2,22,-1
 797 786 l 2,23,24
 797 946 797 946 556 946 c 0,25,26
 437 946 437 946 376.5 900 c 128,-1,27
 316 854 316 854 306 756 c 1,28,-1
 134 756 l 1,29,30
 140 903 140 903 207 978 c 0,31,32
 320 1104 320 1104 563 1104 c 0,33,34
 761 1104 761 1104 864 1029.5 c 128,-1,35
 967 955 967 955 967 810 c 2,36,-1
 967 181 l 2,37,38
 967 96 967 96 1059 96 c 0,39,40
 1074 96 1074 96 1096 101 c 1,0,-1
797 530 m 1,41,42
 752 510 752 510 709.5 500.5 c 128,-1,43
 667 491 667 491 522 470 c 0,44,45
 389 451 389 451 329 409 c 0,46,47
 264 362 264 362 264 274 c 0,48,49
 264 193 264 193 320 147.5 c 128,-1,50
 376 102 376 102 476 102 c 0,51,52
 625 102 625 102 730 199 c 0,53,54
 767 234 767 234 782 264.5 c 128,-1,55
 797 295 797 295 797 338 c 2,56,-1
 797 530 l 1,41,42
500 1464 m 1,57,-1
 500 1253 l 1,58,-1
 287 1253 l 1,59,-1
 287 1464 l 1,60,-1
 500 1464 l 1,57,-1
831 1464 m 1,61,-1
 831 1253 l 1,62,-1
 618 1253 l 1,63,-1
 618 1464 l 1,64,-1
 831 1464 l 1,61,-1
EndSplineSet
EndChar

StartChar: aring
Encoding: 229 229 152
Width: 1139
GlyphClass: 2
Flags: W
HStem: -47 143<328.898 641.712 975.428 1094.55> 946 158<379.755 741.193> 1186 89<493.12 642.302> 1456 89<493.12 635.602>
VStem: 86 178<158.119 390.017> 134 172<756 874.436> 383 89<1295.86 1435.56> 655 89<1288.87 1436.6> 797 170<222.531 530 662.304 892.523>
LayerCount: 2
Fore
SplineSet
1096 101 m 1,0,-1
 1096 -28 l 1,1,2
 1025 -47 1025 -47 980 -47 c 0,3,4
 870 -47 870 -47 829 22 c 0,5,6
 809 57 809 57 803 111 c 1,7,8
 712 27 712 27 626 -10 c 128,-1,9
 540 -47 540 -47 438 -47 c 0,10,11
 274 -47 274 -47 177 41 c 0,12,13
 86 124 86 124 86 271 c 0,14,15
 86 479 86 479 276 558 c 0,16,17
 324 578 324 578 380.5 588.5 c 128,-1,18
 437 599 437 599 619 623 c 0,19,20
 721 636 721 636 759 661.5 c 128,-1,21
 797 687 797 687 797 741 c 2,22,-1
 797 786 l 2,23,24
 797 946 797 946 556 946 c 0,25,26
 437 946 437 946 376.5 900 c 128,-1,27
 316 854 316 854 306 756 c 1,28,-1
 134 756 l 1,29,30
 140 903 140 903 207 978 c 0,31,32
 320 1104 320 1104 563 1104 c 0,33,34
 761 1104 761 1104 864 1029.5 c 128,-1,35
 967 955 967 955 967 810 c 2,36,-1
 967 181 l 2,37,38
 967 96 967 96 1059 96 c 0,39,40
 1074 96 1074 96 1096 101 c 1,0,-1
797 530 m 1,41,42
 752 510 752 510 709.5 500.5 c 128,-1,43
 667 491 667 491 522 470 c 0,44,45
 389 451 389 451 329 409 c 0,46,47
 264 362 264 362 264 274 c 0,48,49
 264 193 264 193 320 147.5 c 128,-1,50
 376 102 376 102 476 102 c 0,51,52
 625 102 625 102 730 199 c 0,53,54
 767 234 767 234 782 264.5 c 128,-1,55
 797 295 797 295 797 338 c 2,56,-1
 797 530 l 1,41,42
563 1545 m 0,57,58
 639 1545 639 1545 691.5 1492.5 c 128,-1,59
 744 1440 744 1440 744 1364 c 0,60,61
 744 1290 744 1290 691 1238 c 128,-1,62
 638 1186 638 1186 563 1186 c 0,63,64
 489 1186 489 1186 436 1239 c 256,65,66
 383 1292 383 1292 383 1366 c 256,67,68
 383 1440 383 1440 436 1492.5 c 128,-1,69
 489 1545 489 1545 563 1545 c 0,57,58
563 1456 m 0,70,71
 526 1456 526 1456 499 1429.5 c 128,-1,72
 472 1403 472 1403 472 1365 c 0,73,74
 472 1328 472 1328 499 1301.5 c 128,-1,75
 526 1275 526 1275 564 1275 c 0,76,77
 601 1275 601 1275 628 1301.5 c 128,-1,78
 655 1328 655 1328 655 1364 c 0,79,80
 655 1404 655 1404 629 1430 c 128,-1,81
 603 1456 603 1456 563 1456 c 0,70,71
EndSplineSet
EndChar

StartChar: ae
Encoding: 230 230 153
Width: 1821
GlyphClass: 3
Flags: W
HStem: -47 149<305.013 620.754 1107.8 1401.1> 479 139<946 1547> 946 158<367.783 725.678 1092.65 1409.64>
VStem: 70 178<158.075 389.088> 118 172<756 870.844> 781 160<271.953 479 655.79 775.966> 1547 184<618 799.234>
LayerCount: 2
Fore
SplineSet
858 179 m 1,0,1
 739 58 739 58 636.5 5.5 c 128,-1,2
 534 -47 534 -47 414 -47 c 0,3,4
 258 -47 258 -47 161 40 c 0,5,6
 70 123 70 123 70 271 c 0,7,8
 70 477 70 477 260 558 c 0,9,10
 355 598 355 598 603 621 c 0,11,12
 708 630 708 630 744.5 655 c 128,-1,13
 781 680 781 680 781 741 c 2,14,-1
 781 787 l 2,15,16
 781 946 781 946 540 946 c 0,17,18
 309 946 309 946 290 756 c 1,19,-1
 118 756 l 1,20,21
 124 903 124 903 191 978 c 0,22,23
 304 1104 304 1104 543 1104 c 0,24,25
 807 1104 807 1104 901 936 c 1,26,27
 941 993 941 993 1000 1031 c 0,28,29
 1112 1104 1112 1104 1257 1104 c 0,30,31
 1430 1104 1430 1104 1557 1002 c 0,32,33
 1654 924 1654 924 1692.5 809 c 128,-1,34
 1731 694 1731 694 1731 490 c 0,35,36
 1731 484 1731 484 1731 479 c 1,37,-1
 941 479 l 1,38,39
 943 334 943 334 998 250 c 0,40,41
 1089 111 1089 111 1256 111 c 0,42,43
 1465 111 1465 111 1538 326 c 1,44,-1
 1710 326 l 1,45,46
 1686 197 1686 197 1609 104 c 0,47,48
 1483 -47 1483 -47 1253 -47 c 0,49,50
 1135 -47 1135 -47 1039 -2 c 128,-1,51
 943 43 943 43 890 124 c 0,52,53
 877 143 877 143 858 179 c 1,0,1
781 529 m 1,54,55
 736 509 736 509 693.5 499.5 c 128,-1,56
 651 490 651 490 506 469 c 0,57,58
 372 450 372 450 313 408 c 0,59,60
 248 361 248 361 248 273 c 0,61,62
 248 194 248 194 303 148 c 128,-1,63
 358 102 358 102 452 102 c 0,64,65
 579 102 579 102 680 180 c 0,66,67
 781 257 781 257 781 322 c 2,68,-1
 781 529 l 1,54,55
1547 618 m 1,69,70
 1547 736 1547 736 1490 821 c 0,71,72
 1406 946 1406 946 1252 946 c 0,73,74
 1084 946 1084 946 998 801 c 0,75,76
 953 723 953 723 946 618 c 1,77,-1
 1547 618 l 1,69,70
EndSplineSet
EndChar

StartChar: ccedilla
Encoding: 231 231 154
Width: 1024
GlyphClass: 2
Flags: W
HStem: -438 84<323.836 553.458> -186 76<469 610> -48 157<540 690.891> 946 158<385.85 692.444>
VStem: 63 178<282.539 768.853> 579 154<-332.028 -193.436> 804 172<231.891 369 713 822.184>
LayerCount: 2
Fore
SplineSet
540 -48 m 1,0,-1
 514 -114 l 1,1,2
 547 -110 547 -110 571 -110 c 0,3,4
 649 -110 649 -110 691 -145.5 c 128,-1,5
 733 -181 733 -181 733 -247 c 0,6,7
 733 -336 733 -336 668 -386 c 0,8,9
 601 -438 601 -438 481 -438 c 0,10,11
 421 -438 421 -438 373 -425 c 128,-1,12
 325 -412 325 -412 225 -369 c 1,13,-1
 268 -286 l 1,14,-1
 286 -295 l 2,15,16
 402 -354 402 -354 469 -354 c 0,17,18
 516 -354 516 -354 547.5 -328 c 128,-1,19
 579 -302 579 -302 579 -262 c 0,20,21
 579 -186 579 -186 485 -186 c 0,22,23
 453 -186 453 -186 421 -202 c 1,24,-1
 398 -188 l 1,25,-1
 461 -43 l 1,26,27
 344 -21 344 -21 270 33 c 0,28,29
 63 181 63 181 63 518 c 0,30,31
 63 788 63 788 197 950 c 0,32,33
 325 1104 325 1104 541 1104 c 0,34,35
 674 1104 674 1104 778 1045 c 0,36,37
 903 974 903 974 944 834 c 0,38,39
 958 785 958 785 964 713 c 1,40,-1
 792 713 l 1,41,42
 780 808 780 808 730 867 c 0,43,44
 662 946 662 946 539 946 c 0,45,46
 405 946 405 946 331 848 c 0,47,48
 241 731 241 731 241 517 c 0,49,50
 241 323 241 323 325 213 c 0,51,52
 404 109 404 109 542 109 c 0,53,54
 761 109 761 109 804 369 c 1,55,-1
 976 369 l 1,56,57
 957 113 957 113 772 9 c 0,58,59
 672 -47 672 -47 540 -48 c 1,0,-1
EndSplineSet
EndChar

StartChar: egrave
Encoding: 232 232 155
Width: 1139
GlyphClass: 2
Flags: W
HStem: -47 158<411.766 735.779> 479 139<265 867> 946 158<411.712 727.647> 1496 20G<284 527.961>
VStem: 82 178<274.234 479 618 773.721> 867 184<618 796.368>
LayerCount: 2
Fore
SplineSet
1051 479 m 1,0,-1
 260 479 l 1,1,2
 262 334 262 334 317 250 c 0,3,4
 408 111 408 111 575 111 c 0,5,6
 784 111 784 111 857 326 c 1,7,-1
 1029 326 l 1,8,9
 1005 197 1005 197 928 104 c 0,10,11
 802 -47 802 -47 570 -47 c 0,12,13
 342 -47 342 -47 209 109 c 0,14,15
 82 259 82 259 82 521 c 0,16,17
 82 797 82 797 222 953 c 0,18,19
 358 1104 358 1104 573 1104 c 0,20,21
 749 1104 749 1104 877 1002 c 0,22,23
 974 924 974 924 1012.5 807.5 c 128,-1,24
 1051 691 1051 691 1051 479 c 1,0,-1
867 618 m 1,25,26
 867 697 867 697 842 759 c 0,27,28
 805 848 805 848 734.5 897 c 128,-1,29
 664 946 664 946 571 946 c 0,30,31
 403 946 403 946 318 801 c 0,32,33
 272 723 272 723 265 618 c 1,34,-1
 867 618 l 1,25,26
515 1516 m 1,35,-1
 712 1212 l 1,36,-1
 589 1212 l 1,37,-1
 284 1516 l 1,38,-1
 515 1516 l 1,35,-1
EndSplineSet
EndChar

StartChar: eacute
Encoding: 233 233 156
Width: 1139
GlyphClass: 2
Flags: W
HStem: -47 158<411.766 735.779> 479 139<265 867> 946 158<411.712 727.647> 1496 20G<618.974 862>
VStem: 82 178<274.234 479 618 773.721> 867 184<618 796.368>
LayerCount: 2
Fore
SplineSet
1051 479 m 1,0,-1
 260 479 l 1,1,2
 262 334 262 334 317 250 c 0,3,4
 408 111 408 111 575 111 c 0,5,6
 784 111 784 111 857 326 c 1,7,-1
 1029 326 l 1,8,9
 1005 197 1005 197 928 104 c 0,10,11
 802 -47 802 -47 570 -47 c 0,12,13
 342 -47 342 -47 209 109 c 0,14,15
 82 259 82 259 82 521 c 0,16,17
 82 797 82 797 222 953 c 0,18,19
 358 1104 358 1104 573 1104 c 0,20,21
 749 1104 749 1104 877 1002 c 0,22,23
 974 924 974 924 1012.5 807.5 c 128,-1,24
 1051 691 1051 691 1051 479 c 1,0,-1
867 618 m 1,25,26
 867 697 867 697 842 759 c 0,27,28
 805 848 805 848 734.5 897 c 128,-1,29
 664 946 664 946 571 946 c 0,30,31
 403 946 403 946 318 801 c 0,32,33
 272 723 272 723 265 618 c 1,34,-1
 867 618 l 1,25,26
632 1516 m 1,35,-1
 862 1516 l 1,36,-1
 557 1212 l 1,37,-1
 434 1212 l 1,38,-1
 632 1516 l 1,35,-1
EndSplineSet
EndChar

StartChar: ecircumflex
Encoding: 234 234 157
Width: 1139
GlyphClass: 2
Flags: W
HStem: -47 158<411.766 735.779> 479 139<265 867> 946 158<411.712 727.647> 1498 20G<477.208 695.857>
VStem: 82 178<274.234 479 618 773.721> 867 184<618 796.368>
LayerCount: 2
Fore
SplineSet
1051 479 m 1,0,-1
 260 479 l 1,1,2
 262 334 262 334 317 250 c 0,3,4
 408 111 408 111 575 111 c 0,5,6
 784 111 784 111 857 326 c 1,7,-1
 1029 326 l 1,8,9
 1005 197 1005 197 928 104 c 0,10,11
 802 -47 802 -47 570 -47 c 0,12,13
 342 -47 342 -47 209 109 c 0,14,15
 82 259 82 259 82 521 c 0,16,17
 82 797 82 797 222 953 c 0,18,19
 358 1104 358 1104 573 1104 c 0,20,21
 749 1104 749 1104 877 1002 c 0,22,23
 974 924 974 924 1012.5 807.5 c 128,-1,24
 1051 691 1051 691 1051 479 c 1,0,-1
867 618 m 1,25,26
 867 697 867 697 842 759 c 0,27,28
 805 848 805 848 734.5 897 c 128,-1,29
 664 946 664 946 571 946 c 0,30,31
 403 946 403 946 318 801 c 0,32,33
 272 723 272 723 265 618 c 1,34,-1
 867 618 l 1,25,26
490 1518 m 1,35,-1
 683 1518 l 1,36,-1
 881 1210 l 1,37,-1
 751 1210 l 1,38,-1
 586 1407 l 1,39,-1
 424 1210 l 1,40,-1
 293 1210 l 1,41,-1
 490 1518 l 1,35,-1
EndSplineSet
EndChar

StartChar: edieresis
Encoding: 235 235 158
Width: 1139
GlyphClass: 2
Flags: W
HStem: -47 158<411.766 735.779> 479 139<265 867> 946 158<411.712 727.647> 1253 211<313 526 645 858>
VStem: 82 178<274.234 479 618 773.721> 313 213<1253 1464> 645 213<1253 1464> 867 184<618 796.368>
LayerCount: 2
Fore
SplineSet
1051 479 m 1,0,-1
 260 479 l 1,1,2
 262 334 262 334 317 250 c 0,3,4
 408 111 408 111 575 111 c 0,5,6
 784 111 784 111 857 326 c 1,7,-1
 1029 326 l 1,8,9
 1005 197 1005 197 928 104 c 0,10,11
 802 -47 802 -47 570 -47 c 0,12,13
 342 -47 342 -47 209 109 c 0,14,15
 82 259 82 259 82 521 c 0,16,17
 82 797 82 797 222 953 c 0,18,19
 358 1104 358 1104 573 1104 c 0,20,21
 749 1104 749 1104 877 1002 c 0,22,23
 974 924 974 924 1012.5 807.5 c 128,-1,24
 1051 691 1051 691 1051 479 c 1,0,-1
867 618 m 1,25,26
 867 697 867 697 842 759 c 0,27,28
 805 848 805 848 734.5 897 c 128,-1,29
 664 946 664 946 571 946 c 0,30,31
 403 946 403 946 318 801 c 0,32,33
 272 723 272 723 265 618 c 1,34,-1
 867 618 l 1,25,26
526 1464 m 1,35,-1
 526 1253 l 1,36,-1
 313 1253 l 1,37,-1
 313 1464 l 1,38,-1
 526 1464 l 1,35,-1
858 1464 m 1,39,-1
 858 1253 l 1,40,-1
 645 1253 l 1,41,-1
 645 1464 l 1,42,-1
 858 1464 l 1,39,-1
EndSplineSet
EndChar

StartChar: igrave
Encoding: 236 236 159
Width: 569
GlyphClass: 2
Flags: W
HStem: 1053 20G<193 363> 1496 20G<-10 233.961>
VStem: 193 170<0 1073>
LayerCount: 2
Fore
SplineSet
363 1073 m 1,0,-1
 363 0 l 1,1,-1
 193 0 l 1,2,-1
 193 1073 l 1,3,-1
 363 1073 l 1,0,-1
221 1516 m 1,4,-1
 418 1212 l 1,5,-1
 295 1212 l 1,6,-1
 -10 1516 l 1,7,-1
 221 1516 l 1,4,-1
EndSplineSet
EndChar

StartChar: iacute
Encoding: 237 237 160
Width: 569
GlyphClass: 2
Flags: W
HStem: 1053 20G<192 362> 1496 20G<317.039 561>
VStem: 192 170<0 1073>
LayerCount: 2
Fore
SplineSet
362 1073 m 1,0,-1
 362 0 l 1,1,-1
 192 0 l 1,2,-1
 192 1073 l 1,3,-1
 362 1073 l 1,0,-1
330 1516 m 1,4,-1
 561 1516 l 1,5,-1
 256 1212 l 1,6,-1
 133 1212 l 1,7,-1
 330 1516 l 1,4,-1
EndSplineSet
EndChar

StartChar: icircumflex
Encoding: 238 238 161
Width: 569
GlyphClass: 2
Flags: W
HStem: 1053 20G<193 363> 1498 20G<170.208 388.857>
VStem: 193 170<0 1073>
LayerCount: 2
Fore
SplineSet
363 1073 m 1,0,-1
 363 0 l 1,1,-1
 193 0 l 1,2,-1
 193 1073 l 1,3,-1
 363 1073 l 1,0,-1
183 1518 m 1,4,-1
 376 1518 l 1,5,-1
 574 1210 l 1,6,-1
 444 1210 l 1,7,-1
 279 1407 l 1,8,-1
 117 1210 l 1,9,-1
 -14 1210 l 1,10,-1
 183 1518 l 1,4,-1
EndSplineSet
EndChar

StartChar: idieresis
Encoding: 239 239 162
Width: 569
GlyphClass: 2
Flags: W
HStem: 1053 20G<192 362> 1239 211<6 219 338 551>
VStem: 6 213<1239 1450> 192 170<0 1073> 338 213<1239 1450>
LayerCount: 2
Fore
SplineSet
362 1073 m 1,0,-1
 362 0 l 1,1,-1
 192 0 l 1,2,-1
 192 1073 l 1,3,-1
 362 1073 l 1,0,-1
219 1450 m 1,4,-1
 219 1239 l 1,5,-1
 6 1239 l 1,6,-1
 6 1450 l 1,7,-1
 219 1450 l 1,4,-1
551 1450 m 1,8,-1
 551 1239 l 1,9,-1
 338 1239 l 1,10,-1
 338 1450 l 1,11,-1
 551 1450 l 1,8,-1
EndSplineSet
EndChar

StartChar: ntilde
Encoding: 241 241 163
Width: 1139
GlyphClass: 2
Flags: W
HStem: 954 150<466.234 751.673> 1053 20G<143 301> 1256 138<550.753 759.416> 1333 136<378.419 580.879>
VStem: 143 172<0 802.597 894 1073> 827 170<0 881.469>
LayerCount: 2
Fore
SplineSet
143 1073 m 1,0,-1
 301 1073 l 1,1,-1
 301 894 l 1,2,3
 358 985 358 985 419 1030 c 0,4,5
 518 1104 518 1104 657 1104 c 0,6,7
 795 1104 795 1104 887 1039 c 0,8,9
 997 960 997 960 997 812 c 2,10,-1
 997 0 l 1,11,-1
 827 0 l 1,12,-1
 827 743 l 2,13,14
 827 851 827 851 757 906 c 0,15,16
 695 954 695 954 606 954 c 0,17,18
 486 954 486 954 404 867 c 0,19,20
 315 771 315 771 315 591 c 2,21,-1
 315 0 l 1,22,-1
 143 0 l 1,23,-1
 143 1073 l 1,0,-1
774 1469 m 1,24,-1
 892 1469 l 1,25,26
 861 1256 861 1256 709 1256 c 0,27,28
 665 1256 665 1256 535 1307 c 0,29,30
 467 1333 467 1333 434 1333 c 0,31,32
 388 1333 388 1333 367 1258 c 1,33,-1
 249 1258 l 1,34,35
 266 1359 266 1359 311.5 1414 c 128,-1,36
 357 1469 357 1469 424 1469 c 0,37,38
 473 1469 473 1469 568 1430 c 0,39,40
 653 1394 653 1394 697 1394 c 0,41,42
 750 1394 750 1394 774 1469 c 1,24,-1
EndSplineSet
EndChar

StartChar: ograve
Encoding: 242 242 164
Width: 1139
GlyphClass: 2
Flags: W
HStem: -47 158<408.07 710.774> 946 158<407.939 714.232> 1496 20G<270 513.961>
VStem: 74 178<288.046 770.232> 867 178<287.019 768.843>
LayerCount: 2
Fore
SplineSet
558 1104 m 0,0,1
 794 1104 794 1104 924 943 c 0,2,3
 1045 792 1045 792 1045 521 c 0,4,5
 1045 267 1045 267 924 114 c 0,6,7
 795 -47 795 -47 559 -47 c 0,8,9
 324 -47 324 -47 196 114 c 0,10,11
 74 267 74 267 74 529 c 256,12,13
 74 791 74 791 196 943 c 0,14,15
 325 1104 325 1104 558 1104 c 0,0,1
559 946 m 0,16,17
 450 946 450 946 369 873 c 0,18,19
 252 768 252 768 252 529 c 0,20,21
 252 358 252 358 316 249 c 0,22,23
 353 185 353 185 418 148 c 128,-1,24
 483 111 483 111 560 111 c 0,25,26
 636 111 636 111 701 148 c 128,-1,27
 766 185 766 185 803 249 c 0,28,29
 867 358 867 358 867 523 c 0,30,31
 867 701 867 701 803 808 c 0,32,33
 767 870 767 870 705 907 c 0,34,35
 639 946 639 946 559 946 c 0,16,17
501 1516 m 1,36,-1
 698 1212 l 1,37,-1
 575 1212 l 1,38,-1
 270 1516 l 1,39,-1
 501 1516 l 1,36,-1
EndSplineSet
EndChar

StartChar: oacute
Encoding: 243 243 165
Width: 1139
GlyphClass: 2
Flags: W
HStem: -47 158<408.07 710.774> 946 158<407.939 714.232> 1496 20G<598.039 842>
VStem: 74 178<288.046 770.232> 867 178<287.019 768.843>
LayerCount: 2
Fore
SplineSet
558 1104 m 0,0,1
 794 1104 794 1104 924 943 c 0,2,3
 1045 792 1045 792 1045 521 c 0,4,5
 1045 267 1045 267 924 114 c 0,6,7
 795 -47 795 -47 559 -47 c 0,8,9
 324 -47 324 -47 196 114 c 0,10,11
 74 267 74 267 74 529 c 256,12,13
 74 791 74 791 196 943 c 0,14,15
 325 1104 325 1104 558 1104 c 0,0,1
559 946 m 0,16,17
 450 946 450 946 369 873 c 0,18,19
 252 768 252 768 252 529 c 0,20,21
 252 358 252 358 316 249 c 0,22,23
 353 185 353 185 418 148 c 128,-1,24
 483 111 483 111 560 111 c 0,25,26
 636 111 636 111 701 148 c 128,-1,27
 766 185 766 185 803 249 c 0,28,29
 867 358 867 358 867 523 c 0,30,31
 867 701 867 701 803 808 c 0,32,33
 767 870 767 870 705 907 c 0,34,35
 639 946 639 946 559 946 c 0,16,17
611 1516 m 1,36,-1
 842 1516 l 1,37,-1
 537 1212 l 1,38,-1
 414 1212 l 1,39,-1
 611 1516 l 1,36,-1
EndSplineSet
EndChar

StartChar: ocircumflex
Encoding: 244 244 166
Width: 1139
GlyphClass: 2
Flags: W
HStem: -47 158<408.07 710.774> 946 158<407.939 714.232> 1498 20G<449.273 668.792>
VStem: 74 178<288.046 770.232> 867 178<287.019 768.843>
LayerCount: 2
Fore
SplineSet
558 1104 m 0,0,1
 794 1104 794 1104 924 943 c 0,2,3
 1045 792 1045 792 1045 521 c 0,4,5
 1045 267 1045 267 924 114 c 0,6,7
 795 -47 795 -47 559 -47 c 0,8,9
 324 -47 324 -47 196 114 c 0,10,11
 74 267 74 267 74 529 c 256,12,13
 74 791 74 791 196 943 c 0,14,15
 325 1104 325 1104 558 1104 c 0,0,1
559 946 m 0,16,17
 450 946 450 946 369 873 c 0,18,19
 252 768 252 768 252 529 c 0,20,21
 252 358 252 358 316 249 c 0,22,23
 353 185 353 185 418 148 c 128,-1,24
 483 111 483 111 560 111 c 0,25,26
 636 111 636 111 701 148 c 128,-1,27
 766 185 766 185 803 249 c 0,28,29
 867 358 867 358 867 523 c 0,30,31
 867 701 867 701 803 808 c 0,32,33
 767 870 767 870 705 907 c 0,34,35
 639 946 639 946 559 946 c 0,16,17
462 1518 m 1,36,-1
 656 1518 l 1,37,-1
 853 1210 l 1,38,-1
 724 1210 l 1,39,-1
 559 1407 l 1,40,-1
 397 1210 l 1,41,-1
 266 1210 l 1,42,-1
 462 1518 l 1,36,-1
EndSplineSet
EndChar

StartChar: otilde
Encoding: 245 245 167
Width: 1139
GlyphClass: 2
Flags: W
HStem: -47 158<408.07 710.774> 946 158<407.939 714.232> 1256 138<546.757 755.559> 1333 136<374.624 576.951>
VStem: 74 178<288.046 770.232> 867 178<287.019 768.843>
LayerCount: 2
Fore
SplineSet
558 1104 m 0,0,1
 794 1104 794 1104 924 943 c 0,2,3
 1045 792 1045 792 1045 521 c 0,4,5
 1045 267 1045 267 924 114 c 0,6,7
 795 -47 795 -47 559 -47 c 0,8,9
 324 -47 324 -47 196 114 c 0,10,11
 74 267 74 267 74 529 c 256,12,13
 74 791 74 791 196 943 c 0,14,15
 325 1104 325 1104 558 1104 c 0,0,1
559 946 m 0,16,17
 450 946 450 946 369 873 c 0,18,19
 252 768 252 768 252 529 c 0,20,21
 252 358 252 358 316 249 c 0,22,23
 353 185 353 185 418 148 c 128,-1,24
 483 111 483 111 560 111 c 0,25,26
 636 111 636 111 701 148 c 128,-1,27
 766 185 766 185 803 249 c 0,28,29
 867 358 867 358 867 523 c 0,30,31
 867 701 867 701 803 808 c 0,32,33
 767 870 767 870 705 907 c 0,34,35
 639 946 639 946 559 946 c 0,16,17
770 1469 m 1,36,-1
 888 1469 l 1,37,38
 858 1256 858 1256 705 1256 c 0,39,40
 661 1256 661 1256 531 1307 c 0,41,42
 463 1333 463 1333 430 1333 c 0,43,44
 384 1333 384 1333 363 1258 c 1,45,-1
 245 1258 l 1,46,47
 262 1359 262 1359 307.5 1414 c 128,-1,48
 353 1469 353 1469 421 1469 c 0,49,50
 469 1469 469 1469 564 1430 c 0,51,52
 650 1394 650 1394 693 1394 c 0,53,54
 746 1394 746 1394 770 1469 c 1,36,-1
EndSplineSet
EndChar

StartChar: odieresis
Encoding: 246 246 168
Width: 1139
GlyphClass: 2
Flags: W
HStem: -47 158<408.07 710.774> 946 158<407.939 714.232> 1253 211<287 500 619 832>
VStem: 74 178<288.046 770.232> 287 213<1253 1464> 619 213<1253 1464> 867 178<287.019 768.843>
LayerCount: 2
Fore
SplineSet
558 1104 m 0,0,1
 794 1104 794 1104 924 943 c 0,2,3
 1045 792 1045 792 1045 521 c 0,4,5
 1045 267 1045 267 924 114 c 0,6,7
 795 -47 795 -47 559 -47 c 0,8,9
 324 -47 324 -47 196 114 c 0,10,11
 74 267 74 267 74 529 c 256,12,13
 74 791 74 791 196 943 c 0,14,15
 325 1104 325 1104 558 1104 c 0,0,1
559 946 m 0,16,17
 450 946 450 946 369 873 c 0,18,19
 252 768 252 768 252 529 c 0,20,21
 252 358 252 358 316 249 c 0,22,23
 353 185 353 185 418 148 c 128,-1,24
 483 111 483 111 560 111 c 0,25,26
 636 111 636 111 701 148 c 128,-1,27
 766 185 766 185 803 249 c 0,28,29
 867 358 867 358 867 523 c 0,30,31
 867 701 867 701 803 808 c 0,32,33
 767 870 767 870 705 907 c 0,34,35
 639 946 639 946 559 946 c 0,16,17
500 1464 m 1,36,-1
 500 1253 l 1,37,-1
 287 1253 l 1,38,-1
 287 1464 l 1,39,-1
 500 1464 l 1,36,-1
832 1464 m 1,40,-1
 832 1253 l 1,41,-1
 619 1253 l 1,42,-1
 619 1464 l 1,43,-1
 832 1464 l 1,40,-1
EndSplineSet
EndChar

StartChar: divide
Encoding: 247 247 169
Width: 1196
GlyphClass: 2
Flags: W
HStem: 0 213<491 704> 412 143<102 1093> 754 213<491 704>
VStem: 491 213<0 213 754 967>
CounterMasks: 1 e0
LayerCount: 2
Fore
SplineSet
1093 555 m 1,0,-1
 1093 412 l 1,1,-1
 102 412 l 1,2,-1
 102 555 l 1,3,-1
 1093 555 l 1,0,-1
704 213 m 1,4,-1
 704 0 l 1,5,-1
 491 0 l 1,6,-1
 491 213 l 1,7,-1
 704 213 l 1,4,-1
704 967 m 1,8,-1
 704 754 l 1,9,-1
 491 754 l 1,10,-1
 491 967 l 1,11,-1
 704 967 l 1,8,-1
EndSplineSet
EndChar

StartChar: oslash
Encoding: 248 248 170
Width: 1251
GlyphClass: 2
Flags: W
HStem: -47 158<404.617 715.479> 946 158<404.431 715.637>
VStem: 74 178<291.975 769.658> 867 178<287.424 756.241>
LayerCount: 2
Fore
SplineSet
954 901 m 1,0,1
 1045 752 1045 752 1045 529 c 0,2,3
 1045 266 1045 266 924 114 c 0,4,5
 795 -47 795 -47 562 -47 c 0,6,7
 352 -47 352 -47 227 79 c 1,8,-1
 103 -61 l 1,9,-1
 37 -5 l 1,10,-1
 172 148 l 1,11,12
 74 294 74 294 74 529 c 0,13,14
 74 791 74 791 196 943 c 0,15,16
 325 1104 325 1104 560 1104 c 0,17,18
 765 1104 765 1104 900 970 c 1,19,-1
 1018 1103 l 1,20,-1
 1084 1047 l 1,21,-1
 954 901 l 1,0,1
829 759 m 1,22,-1
 342 210 l 1,23,24
 429 111 429 111 560 111 c 0,25,26
 703 111 703 111 785 222.5 c 128,-1,27
 867 334 867 334 867 528 c 0,28,29
 867 664 867 664 829 759 c 1,22,-1
296 288 m 1,30,-1
 784 839 l 1,31,32
 700 946 700 946 559 946 c 0,33,34
 416 946 416 946 334 834.5 c 128,-1,35
 252 723 252 723 252 528 c 0,36,37
 252 389 252 389 296 288 c 1,30,-1
EndSplineSet
EndChar

StartChar: ugrave
Encoding: 249 249 171
Width: 1139
GlyphClass: 2
Flags: W
HStem: -48 150<379.207 675.092> 1053 20G<133 303 817 987> 1496 20G<266 509.961>
VStem: 133 170<176.646 1073> 817 170<253.986 1073> 833 154<0 149>
LayerCount: 2
Fore
SplineSet
987 0 m 1,0,-1
 833 0 l 1,1,-1
 833 149 l 1,2,3
 760 43 760 43 677 -2.5 c 128,-1,4
 594 -48 594 -48 475 -48 c 0,5,6
 335 -48 335 -48 243 17 c 0,7,8
 133 96 133 96 133 245 c 2,9,-1
 133 1073 l 1,10,-1
 303 1073 l 1,11,-1
 303 314 l 2,12,13
 303 205 303 205 374 150 c 0,14,15
 435 102 435 102 524 102 c 0,16,17
 646 102 646 102 728 190 c 0,18,19
 817 285 817 285 817 466 c 2,20,-1
 817 1073 l 1,21,-1
 987 1073 l 1,22,-1
 987 0 l 1,0,-1
497 1516 m 1,23,-1
 694 1212 l 1,24,-1
 571 1212 l 1,25,-1
 266 1516 l 1,26,-1
 497 1516 l 1,23,-1
EndSplineSet
EndChar

StartChar: uacute
Encoding: 250 250 172
Width: 1139
GlyphClass: 2
Flags: W
HStem: -48 150<379.207 675.092> 1053 20G<133 303 817 987> 1496 20G<593.974 838>
VStem: 133 170<176.646 1073> 817 170<253.986 1073> 833 154<0 149>
LayerCount: 2
Fore
SplineSet
987 0 m 1,0,-1
 833 0 l 1,1,-1
 833 149 l 1,2,3
 760 43 760 43 677 -2.5 c 128,-1,4
 594 -48 594 -48 475 -48 c 0,5,6
 335 -48 335 -48 243 17 c 0,7,8
 133 96 133 96 133 245 c 2,9,-1
 133 1073 l 1,10,-1
 303 1073 l 1,11,-1
 303 314 l 2,12,13
 303 205 303 205 374 150 c 0,14,15
 435 102 435 102 524 102 c 0,16,17
 646 102 646 102 728 190 c 0,18,19
 817 285 817 285 817 466 c 2,20,-1
 817 1073 l 1,21,-1
 987 1073 l 1,22,-1
 987 0 l 1,0,-1
607 1516 m 1,23,-1
 838 1516 l 1,24,-1
 533 1212 l 1,25,-1
 409 1212 l 1,26,-1
 607 1516 l 1,23,-1
EndSplineSet
EndChar

StartChar: ucircumflex
Encoding: 251 251 173
Width: 1139
GlyphClass: 2
Flags: W
HStem: -48 150<379.207 675.092> 1053 20G<133 303 817 987> 1498 20G<452.208 671.792>
VStem: 133 170<176.646 1073> 817 170<253.986 1073> 833 154<0 149>
LayerCount: 2
Fore
SplineSet
987 0 m 1,0,-1
 833 0 l 1,1,-1
 833 149 l 1,2,3
 760 43 760 43 677 -2.5 c 128,-1,4
 594 -48 594 -48 475 -48 c 0,5,6
 335 -48 335 -48 243 17 c 0,7,8
 133 96 133 96 133 245 c 2,9,-1
 133 1073 l 1,10,-1
 303 1073 l 1,11,-1
 303 314 l 2,12,13
 303 205 303 205 374 150 c 0,14,15
 435 102 435 102 524 102 c 0,16,17
 646 102 646 102 728 190 c 0,18,19
 817 285 817 285 817 466 c 2,20,-1
 817 1073 l 1,21,-1
 987 1073 l 1,22,-1
 987 0 l 1,0,-1
465 1518 m 1,23,-1
 659 1518 l 1,24,-1
 856 1210 l 1,25,-1
 726 1210 l 1,26,-1
 561 1407 l 1,27,-1
 400 1210 l 1,28,-1
 268 1210 l 1,29,-1
 465 1518 l 1,23,-1
EndSplineSet
EndChar

StartChar: udieresis
Encoding: 252 252 174
Width: 1139
GlyphClass: 2
Flags: W
HStem: -48 150<379.207 675.092> 1053 20G<133 303 817 987> 1253 211<289 502 620 833>
VStem: 133 170<176.646 1073> 289 213<1253 1464> 620 213<1253 1464> 817 170<253.986 1073> 833 154<0 149>
LayerCount: 2
Fore
SplineSet
987 0 m 1,0,-1
 833 0 l 1,1,-1
 833 149 l 1,2,3
 760 43 760 43 677 -2.5 c 128,-1,4
 594 -48 594 -48 475 -48 c 0,5,6
 335 -48 335 -48 243 17 c 0,7,8
 133 96 133 96 133 245 c 2,9,-1
 133 1073 l 1,10,-1
 303 1073 l 1,11,-1
 303 314 l 2,12,13
 303 205 303 205 374 150 c 0,14,15
 435 102 435 102 524 102 c 0,16,17
 646 102 646 102 728 190 c 0,18,19
 817 285 817 285 817 466 c 2,20,-1
 817 1073 l 1,21,-1
 987 1073 l 1,22,-1
 987 0 l 1,0,-1
502 1464 m 1,23,-1
 502 1253 l 1,24,-1
 289 1253 l 1,25,-1
 289 1464 l 1,26,-1
 502 1464 l 1,23,-1
833 1464 m 1,27,-1
 833 1253 l 1,28,-1
 620 1253 l 1,29,-1
 620 1464 l 1,30,-1
 833 1464 l 1,27,-1
EndSplineSet
EndChar

StartChar: yacute
Encoding: 253 253 175
Width: 1024
GlyphClass: 2
Flags: W
HStem: -446 168<112.578 295.184> 1053 20G<41 231.531 788.871 979> 1496 20G<542.039 786>
VStem: 41 184<889 1073>
LayerCount: 2
Fore
SplineSet
796 1073 m 1,0,-1
 979 1073 l 1,1,-1
 501 -225 l 2,2,3
 420 -446 420 -446 225 -446 c 0,4,5
 162 -446 162 -446 111 -419 c 1,6,-1
 111 -266 l 1,7,8
 161 -278 161 -278 201 -278 c 0,9,10
 255 -278 255 -278 286.5 -254.5 c 128,-1,11
 318 -231 318 -231 339 -174 c 2,12,-1
 403 -3 l 1,13,-1
 41 1073 l 1,14,-1
 225 1073 l 1,15,-1
 498 237 l 1,16,-1
 796 1073 l 1,0,-1
555 1516 m 1,17,-1
 786 1516 l 1,18,-1
 481 1212 l 1,19,-1
 358 1212 l 1,20,-1
 555 1516 l 1,17,-1
EndSplineSet
EndChar

StartChar: ydieresis
Encoding: 255 255 176
Width: 1024
GlyphClass: 2
Flags: W
HStem: -446 168<112.578 295.184> 1053 20G<41 231.531 788.871 979> 1253 211<231 444 563 776>
VStem: 41 184<889 1073> 231 213<1253 1464> 563 213<1253 1464>
LayerCount: 2
Fore
SplineSet
796 1073 m 1,0,-1
 979 1073 l 1,1,-1
 501 -225 l 2,2,3
 420 -446 420 -446 225 -446 c 0,4,5
 162 -446 162 -446 111 -419 c 1,6,-1
 111 -266 l 1,7,8
 161 -278 161 -278 201 -278 c 0,9,10
 255 -278 255 -278 286.5 -254.5 c 128,-1,11
 318 -231 318 -231 339 -174 c 2,12,-1
 403 -3 l 1,13,-1
 41 1073 l 1,14,-1
 225 1073 l 1,15,-1
 498 237 l 1,16,-1
 796 1073 l 1,0,-1
444 1464 m 1,17,-1
 444 1253 l 1,18,-1
 231 1253 l 1,19,-1
 231 1464 l 1,20,-1
 444 1464 l 1,17,-1
776 1464 m 1,21,-1
 776 1253 l 1,22,-1
 563 1253 l 1,23,-1
 563 1464 l 1,24,-1
 776 1464 l 1,21,-1
EndSplineSet
EndChar

StartChar: dotlessi
Encoding: 305 305 177
Width: 569
GlyphClass: 2
Flags: W
HStem: 1053 20G<193 365>
VStem: 193 172<0 1073>
LayerCount: 2
Fore
SplineSet
365 1073 m 1,0,-1
 365 0 l 1,1,-1
 193 0 l 1,2,-1
 193 1073 l 1,3,-1
 365 1073 l 1,0,-1
EndSplineSet
EndChar

StartChar: OE
Encoding: 338 338 178
Width: 2048
GlyphClass: 3
Flags: W
HStem: -41 168<512.122 890.298> 0 168<1266 1964> 670 168<1266 1937> 1325 168<1266 1954> 1350 168<510.168 889.934>
VStem: 89 190<411.796 1067.52> 1076 190<301.419 670 838 1174.87>
LayerCount: 2
Fore
SplineSet
1266 670 m 1,0,-1
 1266 168 l 1,1,-1
 1964 168 l 1,2,-1
 1964 0 l 1,3,-1
 1076 0 l 1,4,-1
 1076 151 l 1,5,6
 940 -41 940 -41 699 -41 c 0,7,8
 430 -41 430 -41 267 148 c 0,9,10
 89 354 89 354 89 729 c 0,11,12
 89 1151 89 1151 299 1358 c 0,13,14
 373 1431 373 1431 478 1474 c 0,15,16
 586 1518 586 1518 701 1518 c 0,17,18
 948 1518 948 1518 1076 1337 c 1,19,-1
 1076 1493 l 1,20,-1
 1954 1493 l 1,21,-1
 1954 1325 l 1,22,-1
 1266 1325 l 1,23,-1
 1266 838 l 1,24,-1
 1937 838 l 1,25,-1
 1937 670 l 1,26,-1
 1266 670 l 1,0,-1
1076 1104 m 1,27,28
 955 1350 955 1350 701 1350 c 0,29,30
 491 1350 491 1350 384 1189 c 0,31,32
 328 1107 328 1107 303.5 1000.5 c 128,-1,33
 279 894 279 894 279 738 c 256,34,35
 279 582 279 582 303.5 476 c 128,-1,36
 328 370 328 370 384 288 c 0,37,38
 492 127 492 127 700 127 c 0,39,40
 954 127 954 127 1076 372 c 1,41,-1
 1076 1104 l 1,27,28
EndSplineSet
EndChar

StartChar: oe
Encoding: 339 339 179
Width: 1933
GlyphClass: 3
Flags: W
HStem: -47 158<414.97 721.197 1204.21 1526.35> 479 139<1055 1657> 946 158<414.795 720.256 1201.37 1519.22>
VStem: 82 178<289.4 772.553> 875 176<288.153 479 618 770.121> 1657 184<618 798.023>
LayerCount: 2
Fore
SplineSet
965 165 m 1,0,1
 836 -47 836 -47 567 -47 c 0,2,3
 327 -47 327 -47 201 111 c 0,4,5
 82 261 82 261 82 529 c 256,6,7
 82 797 82 797 201 946 c 0,8,9
 327 1104 327 1104 567 1104 c 0,10,11
 844 1104 844 1104 968 886 c 1,12,13
 991 923 991 923 1018 953 c 0,14,15
 1155 1104 1155 1104 1364 1104 c 0,16,17
 1540 1104 1540 1104 1667 1002 c 0,18,19
 1764 924 1764 924 1802.5 809 c 128,-1,20
 1841 694 1841 694 1841 490 c 0,21,22
 1841 484 1841 484 1841 479 c 1,23,-1
 1051 479 l 1,24,25
 1053 334 1053 334 1108 250 c 0,26,27
 1198 111 1198 111 1366 111 c 0,28,29
 1574 111 1574 111 1647 326 c 1,30,-1
 1820 326 l 1,31,32
 1796 197 1796 197 1718 104 c 0,33,34
 1593 -47 1593 -47 1361 -47 c 0,35,36
 1092 -47 1092 -47 965 165 c 1,0,1
567 946 m 0,37,38
 459 946 459 946 377 874 c 0,39,40
 260 769 260 769 260 529 c 0,41,42
 260 358 260 358 324 249 c 0,43,44
 361 185 361 185 426.5 148 c 128,-1,45
 492 111 492 111 568 111 c 256,46,47
 644 111 644 111 709 148 c 128,-1,48
 774 185 774 185 811 249 c 0,49,50
 875 358 875 358 875 524 c 0,51,52
 875 702 875 702 811 809 c 0,53,54
 775 870 775 870 713 907 c 0,55,56
 647 946 647 946 567 946 c 0,37,38
1657 618 m 1,57,58
 1656 736 1656 736 1600 821 c 0,59,60
 1516 946 1516 946 1362 946 c 0,61,62
 1193 946 1193 946 1108 801 c 0,63,64
 1063 723 1063 723 1055 618 c 1,65,-1
 1657 618 l 1,57,58
EndSplineSet
EndChar

StartChar: Ydieresis
Encoding: 376 376 180
Width: 1366
GlyphClass: 2
Flags: W
HStem: 1473 20G<27 273.105 1113.34 1353> 1660 211<427 640 759 972>
VStem: 427 213<1660 1871> 602 190<0 585> 759 213<1660 1871>
LayerCount: 2
Fore
SplineSet
792 585 m 1,0,-1
 792 0 l 1,1,-1
 602 0 l 1,2,-1
 602 585 l 1,3,-1
 27 1493 l 1,4,-1
 261 1493 l 1,5,-1
 701 766 l 1,6,-1
 1125 1493 l 1,7,-1
 1353 1493 l 1,8,-1
 792 585 l 1,0,-1
640 1871 m 1,9,-1
 640 1660 l 1,10,-1
 427 1660 l 1,11,-1
 427 1871 l 1,12,-1
 640 1871 l 1,9,-1
972 1871 m 1,13,-1
 972 1660 l 1,14,-1
 759 1660 l 1,15,-1
 759 1871 l 1,16,-1
 972 1871 l 1,13,-1
EndSplineSet
EndChar

StartChar: florin
Encoding: 402 402 181
Width: 1139
GlyphClass: 2
Flags: W
HStem: -434 160<50.4375 274.215> 803 143<287 518 725 957> 1348 164<841.724 1062.89>
LayerCount: 2
Fore
SplineSet
957 946 m 1,0,-1
 957 803 l 1,1,-1
 698 803 l 1,2,-1
 546 -10 l 2,3,4
 507 -219 507 -219 412 -318 c 0,5,6
 360 -372 360 -372 286 -403 c 128,-1,7
 212 -434 212 -434 135 -434 c 0,8,9
 64 -434 64 -434 23 -413 c 1,10,-1
 57 -240 l 1,11,12
 105 -274 105 -274 161 -274 c 0,13,14
 314 -274 314 -274 358 -42 c 2,15,-1
 518 803 l 1,16,-1
 287 803 l 1,17,-1
 287 946 l 1,18,-1
 543 946 l 1,19,-1
 588 1159 l 2,20,21
 623 1327 623 1327 714 1414 c 0,22,23
 816 1512 816 1512 949 1512 c 0,24,25
 1023 1512 1023 1512 1110 1473 c 1,26,-1
 1050 1311 l 1,27,28
 984 1348 984 1348 942 1348 c 0,29,30
 871 1348 871 1348 822 1282 c 128,-1,31
 773 1216 773 1216 751 1090 c 2,32,-1
 725 946 l 1,33,-1
 957 946 l 1,0,-1
EndSplineSet
EndChar

StartChar: circumflex
Encoding: 710 710 182
Width: 682
GlyphClass: 2
Flags: W
HStem: 1210 308
VStem: 41 588
LayerCount: 2
Fore
SplineSet
238 1518 m 1,0,-1
 431 1518 l 1,1,-1
 629 1210 l 1,2,-1
 499 1210 l 1,3,-1
 334 1407 l 1,4,-1
 172 1210 l 1,5,-1
 41 1210 l 1,6,-1
 238 1518 l 1,0,-1
EndSplineSet
EndChar

StartChar: caron
Encoding: 711 711 183
Width: 682
GlyphClass: 2
Flags: W
HStem: 1210 308
VStem: 39 588
LayerCount: 2
Fore
SplineSet
430 1210 m 1,0,-1
 236 1210 l 1,1,-1
 39 1518 l 1,2,-1
 169 1518 l 1,3,-1
 334 1321 l 1,4,-1
 495 1518 l 1,5,-1
 627 1518 l 1,6,-1
 430 1210 l 1,0,-1
EndSplineSet
EndChar

StartChar: breve
Encoding: 728 728 184
Width: 682
GlyphClass: 2
Flags: W
HStem: 1223 141<194.121 475.246> 1480 20G<31 158.5 523.5 647>
VStem: 31 120<1407.25 1500> 527 120<1409.33 1500>
LayerCount: 2
Fore
SplineSet
31 1500 m 1,0,-1
 151 1500 l 1,1,2
 166 1364 166 1364 341 1364 c 0,3,4
 424 1364 424 1364 472 1399.5 c 128,-1,5
 520 1435 520 1435 527 1500 c 1,6,-1
 647 1500 l 1,7,8
 638 1385 638 1385 584 1322 c 0,9,10
 500 1223 500 1223 336 1223 c 0,11,12
 157 1223 157 1223 74 1339 c 0,13,14
 35 1395 35 1395 31 1500 c 1,0,-1
EndSplineSet
EndChar

StartChar: dotaccent
Encoding: 729 729 185
Width: 682
GlyphClass: 2
Flags: W
HStem: 1253 213<236 449>
VStem: 236 213<1253 1466>
LayerCount: 2
Fore
SplineSet
449 1466 m 1,0,-1
 449 1253 l 1,1,-1
 236 1253 l 1,2,-1
 236 1466 l 1,3,-1
 449 1466 l 1,0,-1
EndSplineSet
EndChar

StartChar: ring
Encoding: 730 730 186
Width: 682
GlyphClass: 2
Flags: W
HStem: 1186 89<271.874 420.391> 1456 89<270.894 413.045>
VStem: 162 89<1295.86 1435.56> 433 89<1288.23 1436.6>
LayerCount: 2
Fore
SplineSet
342 1545 m 0,0,1
 418 1545 418 1545 470 1492.5 c 128,-1,2
 522 1440 522 1440 522 1364 c 0,3,4
 522 1291 522 1291 469 1238.5 c 128,-1,5
 416 1186 416 1186 342 1186 c 0,6,7
 267 1186 267 1186 215 1239 c 0,8,9
 162 1292 162 1292 162 1366 c 256,10,11
 162 1440 162 1440 215 1492.5 c 128,-1,12
 268 1545 268 1545 342 1545 c 0,0,1
342 1456 m 0,13,14
 304 1456 304 1456 277.5 1429.5 c 128,-1,15
 251 1403 251 1403 251 1365 c 0,16,17
 251 1328 251 1328 278 1301.5 c 128,-1,18
 305 1275 305 1275 342 1275 c 256,19,20
 379 1275 379 1275 406 1301.5 c 128,-1,21
 433 1328 433 1328 433 1364 c 0,22,23
 433 1404 433 1404 407 1430 c 128,-1,24
 381 1456 381 1456 342 1456 c 0,13,14
EndSplineSet
EndChar

StartChar: ogonek
Encoding: 731 731 187
Width: 682
GlyphClass: 2
Flags: W
HStem: -420 93<286.507 540.766>
VStem: 117 149<-303.696 -103.407>
LayerCount: 2
Fore
SplineSet
316 0 m 1,0,-1
 459 0 l 1,1,2
 344 -64 344 -64 308 -106 c 0,3,4
 266 -156 266 -156 266 -216 c 0,5,6
 266 -327 266 -327 413 -327 c 0,7,8
 487 -327 487 -327 543 -307 c 1,9,-1
 543 -398 l 1,10,11
 456 -420 456 -420 388 -420 c 0,12,13
 318 -420 318 -420 246 -393 c 0,14,15
 117 -345 117 -345 117 -228 c 0,16,17
 117 -154 117 -154 169.5 -94 c 128,-1,18
 222 -34 222 -34 316 0 c 1,0,-1
EndSplineSet
EndChar

StartChar: tilde
Encoding: 732 732 188
Width: 682
GlyphClass: 2
Flags: W
HStem: 1256 138<311.757 520.559> 1333 136<139.651 341.951>
VStem: 10 643
LayerCount: 2
Fore
SplineSet
535 1469 m 1,0,-1
 653 1469 l 1,1,2
 623 1256 623 1256 470 1256 c 0,3,4
 426 1256 426 1256 296 1307 c 0,5,6
 229 1333 229 1333 196 1333 c 0,7,8
 149 1333 149 1333 128 1258 c 1,9,-1
 10 1258 l 1,10,11
 27 1359 27 1359 72.5 1414 c 128,-1,12
 118 1469 118 1469 186 1469 c 0,13,14
 234 1469 234 1469 329 1430 c 0,15,16
 415 1394 415 1394 458 1394 c 0,17,18
 511 1394 511 1394 535 1469 c 1,0,-1
EndSplineSet
EndChar

StartChar: hungarumlaut
Encoding: 733 733 189
Width: 682
GlyphClass: 2
Flags: W
HStem: 1208 308
LayerCount: 2
Fore
SplineSet
125 1516 m 1,0,-1
 356 1516 l 1,1,-1
 51 1208 l 1,2,-1
 -72 1208 l 1,3,-1
 125 1516 l 1,0,-1
482 1516 m 1,4,-1
 712 1516 l 1,5,-1
 408 1208 l 1,6,-1
 284 1208 l 1,7,-1
 482 1516 l 1,4,-1
EndSplineSet
EndChar

StartChar: uni0394
Encoding: 916 916 190
Width: 1368
GlyphClass: 2
Flags: W
HStem: 0 168<248 1115> 1473 20G<569.936 791.145>
LayerCount: 2
Fore
SplineSet
-24 0 m 1,0,-1
 578 1493 l 1,1,-1
 783 1493 l 1,2,-1
 1391 0 l 1,3,-1
 -24 0 l 1,0,-1
682 1261 m 1,4,-1
 248 168 l 1,5,-1
 1115 168 l 1,6,-1
 682 1261 l 1,4,-1
EndSplineSet
EndChar

StartChar: Pi
Encoding: 928 928 191
Width: 1479
GlyphClass: 2
Flags: W
HStem: 1325 168<358 1121>
VStem: 165 193<0 1325> 1121 193<0 1325>
LayerCount: 2
Fore
SplineSet
358 1325 m 1,0,-1
 358 0 l 1,1,-1
 165 0 l 1,2,-1
 165 1493 l 1,3,-1
 1314 1493 l 1,4,-1
 1314 0 l 1,5,-1
 1121 0 l 1,6,-1
 1121 1325 l 1,7,-1
 358 1325 l 1,0,-1
EndSplineSet
EndChar

StartChar: uni03A9
Encoding: 937 937 192
Width: 1532
GlyphClass: 2
Flags: W
HStem: 0 168<57 451 1082 1476> 1350 168<549.496 985.632>
VStem: 87 190<528.979 1065.03> 1256 190<528.979 1065.12>
LayerCount: 2
Fore
SplineSet
57 0 m 1,0,-1
 57 168 l 1,1,-1
 451 168 l 1,2,3
 359 223 359 223 308.5 265.5 c 128,-1,4
 258 308 258 308 214 368 c 0,5,6
 87 542 87 542 87 810 c 0,7,8
 87 1134 87 1134 269 1318 c 0,9,10
 467 1518 467 1518 766 1518 c 0,11,12
 982 1518 982 1518 1155 1407 c 0,13,14
 1446 1219 1446 1219 1446 810 c 0,15,16
 1446 542 1446 542 1319 368 c 0,17,18
 1275 308 1275 308 1224.5 265.5 c 128,-1,19
 1174 223 1174 223 1082 168 c 1,20,-1
 1476 168 l 1,21,-1
 1476 0 l 1,22,-1
 886 0 l 1,23,-1
 886 168 l 1,24,25
 1053 268 1053 268 1129 371 c 0,26,27
 1256 544 1256 544 1256 807 c 0,28,29
 1256 1049 1256 1049 1135 1192 c 0,30,31
 1002 1350 1002 1350 767 1350 c 0,32,33
 597 1350 597 1350 474 1262 c 0,34,35
 277 1121 277 1121 277 807 c 0,36,37
 277 544 277 544 404 371 c 0,38,39
 479 268 479 268 647 168 c 1,40,-1
 647 0 l 1,41,-1
 57 0 l 1,0,-1
EndSplineSet
EndChar

StartChar: pi
Encoding: 960 960 193
Width: 1413
GlyphClass: 2
Flags: W
HStem: 921 152<136 290 462 952 1124 1277>
VStem: 290 172<0 921> 952 172<0 921>
LayerCount: 2
Fore
SplineSet
1277 1073 m 1,0,-1
 1277 921 l 1,1,-1
 1124 921 l 1,2,-1
 1124 0 l 1,3,-1
 952 0 l 1,4,-1
 952 921 l 1,5,-1
 462 921 l 1,6,-1
 462 0 l 1,7,-1
 290 0 l 1,8,-1
 290 921 l 1,9,-1
 136 921 l 1,10,-1
 136 1073 l 1,11,-1
 1277 1073 l 1,0,-1
EndSplineSet
EndChar

StartChar: endash
Encoding: 8211 8211 194
Width: 1139
GlyphClass: 2
Flags: W
HStem: 492 147<-10 1149>
LayerCount: 2
Fore
SplineSet
1149 639 m 1,0,-1
 1149 492 l 1,1,-1
 -10 492 l 1,2,-1
 -10 639 l 1,3,-1
 1149 639 l 1,0,-1
EndSplineSet
EndChar

StartChar: emdash
Encoding: 8212 8212 195
Width: 2048
GlyphClass: 2
Flags: W
HStem: 492 147<-18 2050>
LayerCount: 2
Fore
SplineSet
2050 639 m 1,0,-1
 2050 492 l 1,1,-1
 -18 492 l 1,2,-1
 -18 639 l 1,3,-1
 2050 639 l 1,0,-1
EndSplineSet
EndChar

StartChar: quoteleft
Encoding: 8216 8216 196
Width: 455
GlyphClass: 2
Flags: W
HStem: 977 213<226 323> 1374 78<258.239 323>
VStem: 133 190<977 1186.8> 133 93<1190 1349.4>
LayerCount: 2
Fore
SplineSet
323 977 m 1,0,-1
 133 977 l 1,1,-1
 133 1183 l 2,2,3
 133 1305 133 1305 182.5 1375 c 128,-1,4
 232 1445 232 1445 323 1452 c 1,5,-1
 323 1374 l 1,6,7
 226 1361 226 1361 226 1206 c 0,8,9
 226 1198 226 1198 226 1190 c 1,10,-1
 323 1190 l 1,11,-1
 323 977 l 1,0,-1
EndSplineSet
EndChar

StartChar: quoteright
Encoding: 8217 8217 197
Width: 455
GlyphClass: 2
Flags: W
HStem: 1018 78<133 198.246> 1280 213<133 231>
VStem: 133 190<1283.17 1493> 231 92<1120.14 1280>
LayerCount: 2
Fore
SplineSet
133 1493 m 1,0,-1
 323 1493 l 1,1,-1
 323 1287 l 2,2,3
 323 1164 323 1164 274 1094.5 c 128,-1,4
 225 1025 225 1025 133 1018 c 1,5,-1
 133 1096 l 1,6,7
 231 1109 231 1109 231 1267 c 0,8,9
 231 1274 231 1274 231 1280 c 1,10,-1
 133 1280 l 1,11,-1
 133 1493 l 1,0,-1
EndSplineSet
EndChar

StartChar: quotesinglbase
Encoding: 8218 8218 198
Width: 455
GlyphClass: 2
Flags: W
HStem: -262 78<131 197.019> 0 213<133 231>
VStem: 133 190<3.16931 213> 231 92<-157.557 0>
LayerCount: 2
Fore
SplineSet
133 213 m 1,0,-1
 323 213 l 1,1,-1
 323 7 l 2,2,3
 323 -116 323 -116 273.5 -185.5 c 128,-1,4
 224 -255 224 -255 131 -262 c 1,5,-1
 131 -184 l 1,6,7
 231 -171 231 -171 231 -12 c 0,8,9
 231 -6 231 -6 231 0 c 1,10,-1
 133 0 l 1,11,-1
 133 213 l 1,0,-1
EndSplineSet
EndChar

StartChar: quotedblleft
Encoding: 8220 8220 199
Width: 682
GlyphClass: 2
Flags: W
HStem: 977 213<191 288 515 612> 1374 78<223.239 288 547.239 612>
VStem: 98 190<977 1186.8> 98 93<1190 1349.4> 422 190<977 1186.8> 422 93<1190 1349.4>
LayerCount: 2
Fore
SplineSet
288 977 m 1,0,-1
 98 977 l 1,1,-1
 98 1183 l 2,2,3
 98 1305 98 1305 147.5 1375 c 128,-1,4
 197 1445 197 1445 288 1452 c 1,5,-1
 288 1374 l 1,6,7
 191 1361 191 1361 191 1206 c 0,8,9
 191 1198 191 1198 191 1190 c 1,10,-1
 288 1190 l 1,11,-1
 288 977 l 1,0,-1
612 977 m 1,12,-1
 422 977 l 1,13,-1
 422 1183 l 2,14,15
 422 1305 422 1305 471.5 1375 c 128,-1,16
 521 1445 521 1445 612 1452 c 1,17,-1
 612 1374 l 1,18,19
 515 1361 515 1361 515 1206 c 0,20,21
 515 1198 515 1198 515 1190 c 1,22,-1
 612 1190 l 1,23,-1
 612 977 l 1,12,-1
EndSplineSet
EndChar

StartChar: quotedblright
Encoding: 8221 8221 200
Width: 682
GlyphClass: 2
Flags: W
HStem: 977 78<100 165.246 428 493.246> 1239 213<100 198 428 526>
VStem: 100 190<1242.17 1452> 198 92<1079.14 1239> 428 190<1242.17 1452> 526 92<1079.14 1239>
LayerCount: 2
Fore
SplineSet
100 1452 m 1,0,-1
 290 1452 l 1,1,-1
 290 1246 l 2,2,3
 290 1123 290 1123 241 1053.5 c 128,-1,4
 192 984 192 984 100 977 c 1,5,-1
 100 1055 l 1,6,7
 198 1068 198 1068 198 1226 c 0,8,9
 198 1233 198 1233 198 1239 c 1,10,-1
 100 1239 l 1,11,-1
 100 1452 l 1,0,-1
428 1452 m 1,12,-1
 618 1452 l 1,13,-1
 618 1246 l 2,14,15
 618 1123 618 1123 569 1053.5 c 128,-1,16
 520 984 520 984 428 977 c 1,17,-1
 428 1055 l 1,18,19
 526 1068 526 1068 526 1226 c 0,20,21
 526 1233 526 1233 526 1239 c 1,22,-1
 428 1239 l 1,23,-1
 428 1452 l 1,12,-1
EndSplineSet
EndChar

StartChar: quotedblbase
Encoding: 8222 8222 201
Width: 682
GlyphClass: 2
Flags: W
HStem: -262 78<96 161.246 424 489.246> 0 213<96 194 424 522>
VStem: 96 190<3.16931 213> 194 92<-159.857 0> 424 190<3.16931 213> 522 92<-159.857 0>
LayerCount: 2
Fore
SplineSet
96 213 m 1,0,-1
 286 213 l 1,1,-1
 286 7 l 2,2,3
 286 -116 286 -116 237 -185.5 c 128,-1,4
 188 -255 188 -255 96 -262 c 1,5,-1
 96 -184 l 1,6,7
 194 -171 194 -171 194 -13 c 0,8,9
 194 -6 194 -6 194 0 c 1,10,-1
 96 0 l 1,11,-1
 96 213 l 1,0,-1
424 213 m 1,12,-1
 614 213 l 1,13,-1
 614 7 l 2,14,15
 614 -116 614 -116 565 -185.5 c 128,-1,16
 516 -255 516 -255 424 -262 c 1,17,-1
 424 -184 l 1,18,19
 522 -171 522 -171 522 -13 c 0,20,21
 522 -6 522 -6 522 0 c 1,22,-1
 424 0 l 1,23,-1
 424 213 l 1,12,-1
EndSplineSet
EndChar

StartChar: dagger
Encoding: 8224 8224 202
Width: 1139
GlyphClass: 2
Flags: W
HStem: 860 168<78 473 653 1051>
VStem: 473 180<-362 860 1028 1452>
LayerCount: 2
Fore
SplineSet
1051 1028 m 1,0,-1
 1051 860 l 1,1,-1
 653 860 l 1,2,-1
 653 -362 l 1,3,-1
 473 -362 l 1,4,-1
 473 860 l 1,5,-1
 78 860 l 1,6,-1
 78 1028 l 1,7,-1
 473 1028 l 1,8,-1
 473 1452 l 1,9,-1
 653 1452 l 1,10,-1
 653 1028 l 1,11,-1
 1051 1028 l 1,0,-1
EndSplineSet
EndChar

StartChar: daggerdbl
Encoding: 8225 8225 203
Width: 1139
GlyphClass: 2
Flags: W
HStem: 63 168<78 473 653 1051> 860 168<78 473 653 1051>
VStem: 473 180<-362 63 231 860 1028 1452>
LayerCount: 2
Fore
SplineSet
1051 1028 m 1,0,-1
 1051 860 l 1,1,-1
 653 860 l 1,2,-1
 653 231 l 1,3,-1
 1051 231 l 1,4,-1
 1051 63 l 1,5,-1
 653 63 l 1,6,-1
 653 -362 l 1,7,-1
 473 -362 l 1,8,-1
 473 63 l 1,9,-1
 78 63 l 1,10,-1
 78 231 l 1,11,-1
 473 231 l 1,12,-1
 473 860 l 1,13,-1
 78 860 l 1,14,-1
 78 1028 l 1,15,-1
 473 1028 l 1,16,-1
 473 1452 l 1,17,-1
 653 1452 l 1,18,-1
 653 1028 l 1,19,-1
 1051 1028 l 1,0,-1
EndSplineSet
EndChar

StartChar: bullet
Encoding: 8226 8226 204
Width: 717
GlyphClass: 2
Flags: W
HStem: 451 512<214.163 502.086>
VStem: 102 512<562.859 850.976>
LayerCount: 2
Fore
SplineSet
357 963 m 0,0,1
 464 963 464 963 539 888 c 256,2,3
 614 813 614 813 614 704 c 0,4,5
 614 601 614 601 539 526 c 256,6,7
 464 451 464 451 358 451 c 256,8,9
 252 451 252 451 177 526 c 256,10,11
 102 601 102 601 102 707 c 0,12,13
 102 815 102 815 177 888 c 0,14,15
 253 963 253 963 357 963 c 0,0,1
EndSplineSet
EndChar

StartChar: ellipsis
Encoding: 8230 8230 205
Width: 2048
GlyphClass: 2
Flags: W
HStem: 0 213<236 449 918 1131 1600 1813>
VStem: 236 213<0 213> 918 213<0 213> 1600 213<0 213>
CounterMasks: 1 70
LayerCount: 2
Fore
SplineSet
449 213 m 1,0,-1
 449 0 l 1,1,-1
 236 0 l 1,2,-1
 236 213 l 1,3,-1
 449 213 l 1,0,-1
1131 213 m 1,4,-1
 1131 0 l 1,5,-1
 918 0 l 1,6,-1
 918 213 l 1,7,-1
 1131 213 l 1,4,-1
1813 213 m 1,8,-1
 1813 0 l 1,9,-1
 1600 0 l 1,10,-1
 1600 213 l 1,11,-1
 1813 213 l 1,8,-1
EndSplineSet
EndChar

StartChar: perthousand
Encoding: 8240 8240 206
Width: 2048
GlyphClass: 2
Flags: W
HStem: -45 123<869.231 1110.77 1606.48 1847.9> 448 123<869.73 1110.77 1606.86 1848.08> 875 123<203.231 444.902> 1368 123<203.73 445.193> 1491 20G<996.588 1142>
VStem: 18 121<1061.96 1303.09> 509 121<1062.9 1303.81> 684 121<143.499 383.086> 1175 121<143.24 381.787> 1421 121<143.749 383.086> 1912 121<142.99 383.807>
LayerCount: 2
Fore
SplineSet
324 1491 m 0,0,1
 451 1491 451 1491 541 1401 c 0,2,3
 630 1311 630 1311 630 1179 c 0,4,5
 630 1055 630 1055 541 965 c 0,6,7
 451 875 451 875 324 875 c 256,8,9
 197 875 197 875 108 965 c 0,10,11
 18 1056 18 1056 18 1183 c 0,12,13
 18 1313 18 1313 108 1401 c 0,14,15
 199 1491 199 1491 324 1491 c 0,0,1
324 1368 m 0,16,17
 247 1368 247 1368 193 1314 c 256,18,19
 139 1260 139 1260 139 1183 c 256,20,21
 139 1106 139 1106 193 1052 c 256,22,23
 247 998 247 998 324 998 c 256,24,25
 401 998 401 998 455 1052 c 256,26,27
 509 1106 509 1106 509 1181 c 0,28,29
 509 1260 509 1260 455.5 1314 c 128,-1,30
 402 1368 402 1368 324 1368 c 0,16,17
1007 1511 m 1,31,-1
 1142 1511 l 1,32,-1
 334 -41 l 1,33,-1
 199 -41 l 1,34,-1
 1007 1511 l 1,31,-1
990 571 m 0,35,36
 1117 571 1117 571 1206 481 c 0,37,38
 1296 391 1296 391 1296 259 c 0,39,40
 1296 136 1296 136 1206 45 c 0,41,42
 1117 -45 1117 -45 990 -45 c 256,43,44
 863 -45 863 -45 774 45 c 0,45,46
 684 135 684 135 684 263 c 0,47,48
 684 393 684 393 774 481 c 0,49,50
 865 571 865 571 990 571 c 0,35,36
990 448 m 256,51,52
 913 448 913 448 859 394 c 256,53,54
 805 340 805 340 805 263 c 0,55,56
 805 187 805 187 859 132 c 0,57,58
 913 78 913 78 990 78 c 256,59,60
 1067 78 1067 78 1121 132 c 0,61,62
 1175 187 1175 187 1175 261 c 0,63,64
 1175 339 1175 339 1121 393.5 c 128,-1,65
 1067 448 1067 448 990 448 c 256,51,52
1726 571 m 0,66,67
 1854 571 1854 571 1944 481 c 0,68,69
 2033 391 2033 391 2033 259 c 0,70,71
 2033 135 2033 135 1944 45 c 0,72,73
 1854 -45 1854 -45 1727 -45 c 0,74,75
 1601 -45 1601 -45 1511 45 c 0,76,77
 1421 136 1421 136 1421 263 c 0,78,79
 1421 393 1421 393 1511 481 c 0,80,81
 1603 571 1603 571 1726 571 c 0,66,67
1727 448 m 0,82,83
 1650 448 1650 448 1596 394 c 256,84,85
 1542 340 1542 340 1542 263 c 0,86,87
 1542 187 1542 187 1596 132 c 0,88,89
 1650 78 1650 78 1727 78 c 256,90,91
 1804 78 1804 78 1858 132 c 0,92,93
 1912 187 1912 187 1912 261 c 0,94,95
 1912 340 1912 340 1858.5 394 c 128,-1,96
 1805 448 1805 448 1727 448 c 0,82,83
EndSplineSet
EndChar

StartChar: guilsinglleft
Encoding: 8249 8249 207
Width: 682
GlyphClass: 2
Flags: W
HStem: 217 680
VStem: 186 311
LayerCount: 2
Fore
SplineSet
186 466 m 1,0,-1
 186 648 l 1,1,-1
 497 897 l 1,2,-1
 497 726 l 1,3,-1
 280 557 l 1,4,-1
 497 388 l 1,5,-1
 497 217 l 1,6,-1
 186 466 l 1,0,-1
EndSplineSet
EndChar

StartChar: guilsinglright
Encoding: 8250 8250 208
Width: 682
GlyphClass: 2
Flags: W
HStem: 217 680
VStem: 174 315
LayerCount: 2
Fore
SplineSet
489 648 m 1,0,-1
 489 467 l 1,1,-1
 174 217 l 1,2,-1
 174 388 l 1,3,-1
 395 557 l 1,4,-1
 174 726 l 1,5,-1
 174 897 l 1,6,-1
 489 648 l 1,0,-1
EndSplineSet
EndChar

StartChar: fraction
Encoding: 8260 8260 209
Width: 569
GlyphClass: 2
Flags: W
LayerCount: 2
Fore
SplineSet
683 1452 m 1,0,-1
 801 1452 l 1,1,-1
 -124 -41 l 1,2,-1
 -243 -41 l 1,3,-1
 683 1452 l 1,0,-1
EndSplineSet
EndChar

StartChar: Euro
Encoding: 8364 8364 210
Width: 1139
GlyphClass: 2
Flags: W
HStem: -47 160<553.145 896.544> 519 121<50 163 361 800> 776 121<50 165 365 900> 1295 157<551.33 888.759>
VStem: 162 181<640 776>
LayerCount: 2
Fore
SplineSet
163 640 m 1,0,1
 162 664 162 664 162 689 c 0,2,3
 162 731 162 731 165 776 c 1,4,-1
 5 776 l 1,5,-1
 50 897 l 1,6,-1
 179 897 l 1,7,8
 210 1093 210 1093 314 1245 c 0,9,10
 456 1452 456 1452 720 1452 c 0,11,12
 920 1452 920 1452 1112 1315 c 1,13,-1
 1047 1152 l 1,14,15
 936 1232 936 1232 871 1259 c 0,16,17
 787 1295 787 1295 705 1295 c 0,18,19
 573 1295 573 1295 490 1198 c 128,-1,20
 407 1101 407 1101 365 897 c 1,21,-1
 948 897 l 1,22,-1
 900 776 l 1,23,-1
 346 776 l 1,24,25
 343 738 343 738 343 701 c 0,26,27
 343 672 343 672 345 640 c 1,28,-1
 848 640 l 1,29,-1
 800 519 l 1,30,-1
 361 519 l 1,31,32
 438 113 438 113 707 113 c 0,33,34
 783 113 783 113 852 138.5 c 128,-1,35
 921 164 921 164 1047 239 c 1,36,-1
 1047 48 l 1,37,38
 892 -47 892 -47 707 -47 c 0,39,40
 270 -47 270 -47 175 519 c 1,41,-1
 4 519 l 1,42,-1
 50 640 l 1,43,-1
 163 640 l 1,0,1
EndSplineSet
EndChar

StartChar: trademark
Encoding: 8482 8482 211
Width: 2048
GlyphClass: 2
Flags: W
HStem: 1380 113<129 444 583 897>
VStem: 444 139<598 1380> 1003 137<598 1297> 1784 137<598 1297>
LayerCount: 2
Fore
SplineSet
583 1380 m 1,0,-1
 583 598 l 1,1,-1
 444 598 l 1,2,-1
 444 1380 l 1,3,-1
 129 1380 l 1,4,-1
 129 1493 l 1,5,-1
 897 1493 l 1,6,-1
 897 1380 l 1,7,-1
 583 1380 l 1,0,-1
1532 598 m 1,8,-1
 1388 598 l 1,9,-1
 1140 1297 l 1,10,-1
 1140 598 l 1,11,-1
 1003 598 l 1,12,-1
 1003 1493 l 1,13,-1
 1195 1493 l 1,14,-1
 1465 751 l 1,15,-1
 1736 1493 l 1,16,-1
 1921 1493 l 1,17,-1
 1921 598 l 1,18,-1
 1784 598 l 1,19,-1
 1784 1297 l 1,20,-1
 1532 598 l 1,8,-1
EndSplineSet
EndChar

StartChar: partialdiff
Encoding: 8706 8706 212
Width: 975
GlyphClass: 2
Flags: W
HStem: -31 66<312.524 514.226> 752 84<396.418 619.79> 1373 21G<193.34 266> 1440 96<261.338 592.988>
VStem: 45 178<175.871 540.971> 776 162<707.217 1129.37>
LayerCount: 2
Fore
SplineSet
126 1479 m 1,0,1
 254 1536 254 1536 397 1536 c 0,2,3
 544 1536 544 1536 670 1446 c 0,4,5
 800 1354 800 1354 869 1195 c 128,-1,6
 938 1036 938 1036 938 829 c 0,7,8
 938 669 938 669 899.5 492 c 128,-1,9
 861 315 861 315 803 211 c 0,10,11
 669 -31 669 -31 435 -31 c 0,12,13
 289 -31 289 -31 179 64 c 0,14,15
 45 181 45 181 45 367 c 0,16,17
 45 507 45 507 121 634 c 0,18,19
 241 836 241 836 446 836 c 0,20,21
 528 836 528 836 588.5 810 c 128,-1,22
 649 784 649 784 754 703 c 1,23,24
 776 858 776 858 776 933 c 0,25,26
 776 1046 776 1046 745.5 1154 c 128,-1,27
 715 1262 715 1262 663 1334 c 0,28,29
 587 1440 587 1440 439 1440 c 0,30,31
 381 1440 381 1440 352 1431.5 c 128,-1,32
 323 1423 323 1423 209 1373 c 1,33,-1
 126 1479 l 1,0,1
740 623 m 1,34,35
 657 752 657 752 524 752 c 0,36,37
 397 752 397 752 309 618 c 0,38,39
 223 486 223 486 223 318 c 0,40,41
 223 205 223 205 257 133 c 0,42,43
 277 90 277 90 318.5 62.5 c 128,-1,44
 360 35 360 35 406 35 c 0,45,46
 490 35 490 35 557.5 100 c 128,-1,47
 625 165 625 165 666 285 c 0,48,49
 705 397 705 397 740 623 c 1,34,35
EndSplineSet
EndChar

StartChar: product
Encoding: 8719 8719 213
Width: 2039
GlyphClass: 2
Flags: W
HStem: -494 175<295 452 652 806 1253 1394 1594 1745> 1300 175<239 452 652 1394 1594 1801>
VStem: 452 200<-319 1300> 1394 200<-319 1300>
LayerCount: 2
Fore
SplineSet
452 -319 m 1,0,-1
 452 1300 l 1,1,-1
 239 1300 l 1,2,-1
 239 1475 l 1,3,-1
 1801 1475 l 1,4,-1
 1801 1300 l 1,5,-1
 1594 1300 l 1,6,-1
 1594 -319 l 1,7,-1
 1745 -319 l 1,8,-1
 1745 -494 l 1,9,-1
 1253 -494 l 1,10,-1
 1252 -319 l 1,11,-1
 1394 -319 l 1,12,-1
 1394 1300 l 1,13,-1
 652 1300 l 1,14,-1
 652 -319 l 1,15,-1
 806 -319 l 1,16,-1
 807 -494 l 1,17,-1
 295 -494 l 1,18,-1
 295 -319 l 1,19,-1
 452 -319 l 1,0,-1
EndSplineSet
EndChar

StartChar: summation
Encoding: 8721 8721 214
Width: 2039
GlyphClass: 2
Flags: W
HStem: -275 148<647 1333> 1087 21G<1326.38 1472> 1378 150<648 1318>
VStem: 1327 145<1087 1378> 1333 154<-127 165>
LayerCount: 2
Fore
SplineSet
1472 1528 m 1,0,-1
 1472 1087 l 1,1,-1
 1327 1087 l 1,2,-1
 1318 1378 l 1,3,-1
 648 1378 l 1,4,-1
 1065 663 l 1,5,-1
 647 -127 l 1,6,-1
 1333 -127 l 1,7,-1
 1339 165 l 1,8,-1
 1487 165 l 1,9,-1
 1487 -275 l 1,10,-1
 465 -275 l 1,11,-1
 465 -128 l 1,12,-1
 885 661 l 1,13,-1
 465 1384 l 1,14,-1
 465 1528 l 1,15,-1
 1472 1528 l 1,0,-1
EndSplineSet
EndChar

StartChar: radical
Encoding: 8730 8730 215
Width: 928
GlyphClass: 2
Flags: W
LayerCount: 2
Fore
SplineSet
884 1870 m 1,0,-1
 957 1860 l 1,1,-1
 646 -74 l 1,2,-1
 153 945 l 1,3,-1
 -40 849 l 1,4,-1
 -77 918 l 1,5,-1
 226 1067 l 1,6,-1
 622 257 l 1,7,-1
 884 1870 l 1,0,-1
EndSplineSet
EndChar

StartChar: infinity
Encoding: 8734 8734 216
Width: 1460
GlyphClass: 2
Flags: W
HStem: 254 106<221.912 481.877 976.422 1241.08> 722 106<221.847 482.142 977.447 1237.83>
VStem: 51 106<423.853 657.959> 1303 106<423.424 657.993>
LayerCount: 2
Fore
SplineSet
730 609 m 1,0,1
 835 703 835 703 877 734 c 0,2,3
 1001 828 1001 828 1122 828 c 0,4,5
 1242 828 1242 828 1329 739 c 0,6,7
 1409 657 1409 657 1409 541 c 0,8,9
 1409 409 1409 409 1308 323 c 0,10,11
 1227 254 1227 254 1122 254 c 0,12,13
 1001 254 1001 254 877 348 c 0,14,15
 836 379 836 379 730 473 c 1,16,17
 624 380 624 380 582 348 c 0,18,19
 459 254 459 254 338 254 c 256,20,21
 217 254 217 254 131 342 c 0,22,23
 51 425 51 425 51 541 c 0,24,25
 51 673 51 673 152 758 c 0,26,27
 234 828 234 828 338 828 c 0,28,29
 459 828 459 828 582 734 c 0,30,31
 625 702 625 702 730 609 c 1,0,1
803 541 m 1,32,33
 890 453 890 453 973 405.5 c 128,-1,34
 1056 358 1056 358 1121 358 c 0,35,36
 1200 358 1200 358 1253 416 c 0,37,38
 1303 471 1303 471 1303 540 c 0,39,40
 1303 615 1303 615 1249 668.5 c 128,-1,41
 1195 722 1195 722 1120 722 c 0,42,43
 1055 722 1055 722 972.5 675 c 128,-1,44
 890 628 890 628 803 541 c 1,32,33
657 541 m 1,45,46
 569 628 569 628 487 675 c 128,-1,47
 405 722 405 722 340 722 c 0,48,49
 260 722 260 722 208 665 c 0,50,51
 157 610 157 610 157 541 c 0,52,53
 157 467 157 467 211 413.5 c 128,-1,54
 265 360 265 360 339 360 c 0,55,56
 404 360 404 360 486.5 407 c 128,-1,57
 569 454 569 454 657 541 c 1,45,46
EndSplineSet
EndChar

StartChar: integral
Encoding: 8747 8747 217
Width: 561
GlyphClass: 2
Flags: W
HStem: -215 157<133.5 273.104> 1713 157<348.443 487.5>
VStem: 236 107<1209.12 1698.75> 277 109<-37.6741 448.161>
LayerCount: 2
Fore
SplineSet
386 1071 m 2,0,-1
 386 603 l 2,1,2
 386 336 386 336 377 201 c 128,-1,3
 368 66 368 66 343 -32 c 0,4,5
 298 -215 298 -215 161 -215 c 0,6,7
 106 -215 106 -215 68.5 -182.5 c 128,-1,8
 31 -150 31 -150 31 -103 c 0,9,10
 31 -61 31 -61 60 -31.5 c 128,-1,11
 89 -2 89 -2 130 -2 c 0,12,13
 170 -2 170 -2 200 -32 c 0,14,15
 226 -58 226 -58 240 -58 c 0,16,17
 277 -58 277 -58 277 -1 c 0,18,19
 277 34 277 34 265 156 c 0,20,21
 236 461 236 461 236 585 c 2,22,-1
 236 1053 l 2,23,24
 236 1323 236 1323 245 1456.5 c 128,-1,25
 254 1590 254 1590 278 1688 c 0,26,27
 324 1870 324 1870 461 1870 c 0,28,29
 514 1870 514 1870 551.5 1837.5 c 128,-1,30
 589 1805 589 1805 589 1759 c 0,31,32
 589 1716 589 1716 560.5 1686.5 c 128,-1,33
 532 1657 532 1657 491 1657 c 0,34,35
 449 1657 449 1657 420 1687 c 0,36,37
 395 1713 395 1713 379 1713 c 0,38,39
 343 1713 343 1713 343 1656 c 0,40,41
 343 1620 343 1620 355 1499 c 0,42,43
 386 1198 386 1198 386 1071 c 2,0,-1
EndSplineSet
EndChar

StartChar: approxequal
Encoding: 8776 8776 218
Width: 1124
GlyphClass: 2
Flags: W
HStem: 169 156<625.342 910.715> 299 156<221.343 512.721> 497 156<624.699 910.715> 627 156<221.343 512.721>
LayerCount: 2
Fore
SplineSet
981 794 m 1,0,-1
 1059 722 l 1,1,2
 987 617 987 617 960 584 c 0,3,4
 889 497 889 497 793 497 c 0,5,6
 751 497 751 497 717.5 507 c 128,-1,7
 684 517 684 517 555 566 c 0,8,9
 399 627 399 627 338 627 c 256,10,11
 277 627 277 627 232.5 592 c 128,-1,12
 188 557 188 557 142 472 c 1,13,-1
 66 544 l 1,14,15
 124 638 124 638 153 676 c 0,16,17
 235 783 235 783 345 783 c 0,18,19
 415 783 415 783 596 709 c 0,20,21
 684 673 684 673 719.5 663 c 128,-1,22
 755 653 755 653 794 653 c 0,23,24
 856 653 856 653 895.5 683 c 128,-1,25
 935 713 935 713 981 794 c 1,0,-1
981 466 m 1,26,-1
 1059 394 l 1,27,28
 987 289 987 289 960 256 c 0,29,30
 889 169 889 169 793 169 c 0,31,32
 751 169 751 169 716.5 179 c 128,-1,33
 682 189 682 189 555 239 c 0,34,35
 399 299 399 299 338 299 c 256,36,37
 277 299 277 299 232.5 264 c 128,-1,38
 188 229 188 229 142 144 c 1,39,-1
 66 217 l 1,40,41
 125 310 125 310 153 348 c 0,42,43
 235 455 235 455 345 455 c 0,44,45
 415 455 415 455 596 381 c 0,46,47
 684 345 684 345 720 335 c 128,-1,48
 756 325 756 325 794 325 c 0,49,50
 855 325 855 325 895 355.5 c 128,-1,51
 935 386 935 386 981 466 c 1,26,-1
EndSplineSet
EndChar

StartChar: notequal
Encoding: 8800 8800 219
Width: 1124
GlyphClass: 2
Flags: W
HStem: 227 143<66 322 539 1057> 580 143<66 519 736 1057>
LayerCount: 2
Fore
SplineSet
322 227 m 1,0,-1
 66 227 l 1,1,-1
 66 370 l 1,2,-1
 402 370 l 1,3,-1
 519 580 l 1,4,-1
 66 580 l 1,5,-1
 66 723 l 1,6,-1
 599 723 l 1,7,-1
 754 996 l 1,8,-1
 857 937 l 1,9,-1
 736 723 l 1,10,-1
 1057 723 l 1,11,-1
 1057 580 l 1,12,-1
 656 580 l 1,13,-1
 539 370 l 1,14,-1
 1057 370 l 1,15,-1
 1057 227 l 1,16,-1
 458 227 l 1,17,-1
 303 -51 l 1,18,-1
 199 8 l 1,19,-1
 322 227 l 1,0,-1
EndSplineSet
EndChar

StartChar: lessequal
Encoding: 8804 8804 220
Width: 1124
GlyphClass: 2
Flags: W
HStem: -23 137<56 1057>
LayerCount: 2
Fore
SplineSet
1057 114 m 1,0,-1
 1057 -23 l 1,1,-1
 56 -23 l 1,2,-1
 56 114 l 1,3,-1
 1057 114 l 1,0,-1
56 744 m 1,4,-1
 56 884 l 1,5,-1
 1057 1308 l 1,6,-1
 1057 1146 l 1,7,-1
 250 817 l 1,8,-1
 1057 482 l 1,9,-1
 1057 319 l 1,10,-1
 56 744 l 1,4,-1
EndSplineSet
EndChar

StartChar: greaterequal
Encoding: 8805 8805 221
Width: 1124
GlyphClass: 2
Flags: W
HStem: -23 137<56 1057>
LayerCount: 2
Fore
SplineSet
1057 114 m 1,0,-1
 1057 -23 l 1,1,-1
 56 -23 l 1,2,-1
 56 114 l 1,3,-1
 1057 114 l 1,0,-1
1057 884 m 1,4,-1
 1057 743 l 1,5,-1
 56 319 l 1,6,-1
 56 482 l 1,7,-1
 863 811 l 1,8,-1
 56 1146 l 1,9,-1
 56 1308 l 1,10,-1
 1057 884 l 1,4,-1
EndSplineSet
EndChar

StartChar: uni25C6
Encoding: 9670 9670 222
Width: 2039
GlyphClass: 2
Flags: W
LayerCount: 2
Fore
SplineSet
494 678 m 1,0,-1
 1024 1277 l 1,1,-1
 1572 674 l 1,2,-1
 1037 80 l 1,3,-1
 494 678 l 1,0,-1
EndSplineSet
EndChar
